u2194_noise 300 - 40.ufo
<glyph name="exclam" format="1">
  <advance width="407"/>
  <unicode hex="0021"/>
  <outline>
    <contour>
      <point x="278" y="167" type="curve" smooth="yes"/>
      <point x="296" y="178"/>
      <point x="302" y="204"/>
      <point x="291" y="222" type="curve" smooth="yes"/>
      <point x="231" y="319" type="line"/>
      <point x="197" y="412" type="line"/>
      <point x="175" y="510" type="line" smooth="yes"/>
      <point x="175" y="511"/>
      <point x="174" y="512"/>
      <point x="174" y="513" type="curve" smooth="yes"/>
      <point x="154" y="580" type="line"/>
      <point x="335" y="665" type="line" smooth="yes"/>
      <point x="350" y="672"/>
      <point x="360" y="691"/>
      <point x="357" y="708" type="curve" smooth="yes"/>
      <point x="340" y="808" type="line" smooth="yes"/>
      <point x="337" y="829"/>
      <point x="316" y="844"/>
      <point x="294" y="840" type="curve" smooth="yes"/>
      <point x="273" y="837"/>
      <point x="258" y="816"/>
      <point x="262" y="794" type="curve" smooth="yes"/>
      <point x="273" y="724" type="line"/>
      <point x="88" y="637" type="line" smooth="yes"/>
      <point x="71" y="629"/>
      <point x="61" y="608"/>
      <point x="67" y="589" type="curve" smooth="yes"/>
      <point x="97" y="491" type="line"/>
      <point x="120" y="392" type="line" smooth="yes"/>
      <point x="120" y="391"/>
      <point x="121" y="389"/>
      <point x="121" y="387" type="curve" smooth="yes"/>
      <point x="157" y="287" type="line" smooth="yes"/>
      <point x="158" y="285"/>
      <point x="160" y="282"/>
      <point x="161" y="280" type="curve" smooth="yes"/>
      <point x="223" y="180" type="line" smooth="yes"/>
      <point x="234" y="162"/>
      <point x="260" y="156"/>
    </contour>
    <contour>
      <point x="170" y="33" type="curve" smooth="yes"/>
      <point x="162" y="53"/>
      <point x="138" y="63"/>
      <point x="118" y="55" type="curve" smooth="yes"/>
      <point x="75" y="38" type="line" smooth="yes"/>
      <point x="55" y="30"/>
      <point x="45" y="6"/>
      <point x="53" y="-14" type="curve" smooth="yes"/>
      <point x="61" y="-34"/>
      <point x="85" y="-44"/>
      <point x="105" y="-36" type="curve" smooth="yes"/>
      <point x="148" y="-19" type="line" smooth="yes"/>
      <point x="168" y="-11"/>
      <point x="178" y="13"/>
    </contour>
  </outline>
</glyph>
<glyph name="numbersign" format="1">
  <advance width="997"/>
  <unicode hex="0023"/>
  <outline>
    <contour>
      <point x="579" y="665" type="line" smooth="yes"/>
      <point x="582" y="668" type="line"/>
      <point x="567" y="639" type="line"/>
      <point x="538" y="639" type="line"/>
    </contour>
    <contour>
      <point x="522" y="289" type="curve" smooth="yes"/>
      <point x="535" y="239" type="line"/>
      <point x="249" y="239" type="line"/>
      <point x="260" y="268" type="line"/>
      <point x="503" y="362" type="line" smooth="yes"/>
      <point x="538" y="375"/>
      <point x="541" y="416"/>
      <point x="509" y="434" type="curve" smooth="yes"/>
      <point x="375" y="509" type="line"/>
      <point x="420" y="559" type="line"/>
      <point x="520" y="559" type="line"/>
      <point x="496" y="520" type="line" smooth="yes"/>
      <point x="487" y="505"/>
      <point x="489" y="483"/>
      <point x="502" y="471" type="curve" smooth="yes"/>
      <point x="577" y="394" type="line"/>
      <point x="528" y="321" type="line" smooth="yes"/>
      <point x="522" y="313"/>
      <point x="520" y="299"/>
    </contour>
    <contour>
      <point x="331" y="-22" type="curve" smooth="yes"/>
      <point x="392" y="78" type="line" smooth="yes"/>
      <point x="404" y="97"/>
      <point x="398" y="122"/>
      <point x="379" y="133" type="curve" smooth="yes"/>
      <point x="336" y="159" type="line"/>
      <point x="563" y="159" type="line"/>
      <point x="595" y="107" type="line"/>
      <point x="509" y="29" type="line" smooth="yes"/>
      <point x="493" y="14"/>
      <point x="492" y="-12"/>
      <point x="506" y="-28" type="curve" smooth="yes"/>
      <point x="521" y="-44"/>
      <point x="547" y="-45"/>
      <point x="563" y="-31" type="curve" smooth="yes"/>
      <point x="673" y="69" type="line" smooth="yes"/>
      <point x="686" y="82"/>
      <point x="690" y="104"/>
      <point x="680" y="120" type="curve" smooth="yes"/>
      <point x="633" y="198" type="line"/>
      <point x="633" y="199" type="line" smooth="yes"/>
      <point x="633" y="210"/>
      <point x="628" y="221"/>
      <point x="620" y="228" type="curve"/>
      <point x="604" y="291" type="line"/>
      <point x="662" y="377" type="line" smooth="yes"/>
      <point x="672" y="392"/>
      <point x="670" y="414"/>
      <point x="657" y="427" type="curve" smooth="yes"/>
      <point x="581" y="505" type="line"/>
      <point x="614" y="559" type="line"/>
      <point x="907" y="559" type="line" smooth="yes"/>
      <point x="929" y="559"/>
      <point x="947" y="577"/>
      <point x="947" y="599" type="curve" smooth="yes"/>
      <point x="947" y="621"/>
      <point x="929" y="639"/>
      <point x="907" y="639" type="curve" smooth="yes"/>
      <point x="657" y="639" type="line"/>
      <point x="679" y="681" type="line" smooth="yes"/>
      <point x="685" y="694"/>
      <point x="683" y="714"/>
      <point x="673" y="725" type="curve" smooth="yes"/>
      <point x="586" y="825" type="line" smooth="yes"/>
      <point x="572" y="842"/>
      <point x="546" y="843"/>
      <point x="530" y="829" type="curve" smooth="yes"/>
      <point x="513" y="815"/>
      <point x="512" y="789"/>
      <point x="526" y="773" type="curve" smooth="yes"/>
      <point x="544" y="752" type="line"/>
      <point x="396" y="834" type="line" smooth="yes"/>
      <point x="378" y="844"/>
      <point x="353" y="837"/>
      <point x="342" y="818" type="curve" smooth="yes"/>
      <point x="332" y="800"/>
      <point x="339" y="775"/>
      <point x="358" y="764" type="curve" smooth="yes"/>
      <point x="479" y="696" type="line"/>
      <point x="390" y="639" type="line"/>
      <point x="243" y="639" type="line" smooth="yes"/>
      <point x="221" y="639"/>
      <point x="203" y="621"/>
      <point x="203" y="599" type="curve" smooth="yes"/>
      <point x="203" y="577"/>
      <point x="221" y="559"/>
      <point x="243" y="559" type="curve" smooth="yes"/>
      <point x="312" y="559" type="line"/>
      <point x="282" y="526" type="line" smooth="yes"/>
      <point x="264" y="506"/>
      <point x="269" y="477"/>
      <point x="292" y="464" type="curve" smooth="yes"/>
      <point x="395" y="406" type="line"/>
      <point x="214" y="336" type="line" smooth="yes"/>
      <point x="204" y="333"/>
      <point x="194" y="322"/>
      <point x="190" y="312" type="curve" smooth="yes"/>
      <point x="165" y="239" type="line"/>
      <point x="90" y="239" type="line" smooth="yes"/>
      <point x="68" y="239"/>
      <point x="50" y="221"/>
      <point x="50" y="199" type="curve" smooth="yes"/>
      <point x="50" y="177"/>
      <point x="68" y="159"/>
      <point x="90" y="159" type="curve" smooth="yes"/>
      <point x="182" y="159" type="line"/>
      <point x="303" y="86" type="line"/>
      <point x="263" y="20" type="line" smooth="yes"/>
      <point x="252" y="1"/>
      <point x="258" y="-24"/>
      <point x="276" y="-35" type="curve" smooth="yes"/>
      <point x="295" y="-46"/>
      <point x="320" y="-40"/>
    </contour>
  </outline>
</glyph>
<glyph name="dollar" format="1">
  <advance width="945"/>
  <unicode hex="0024"/>
  <outline>
    <contour>
      <point x="370" y="676" type="line" smooth="yes"/>
      <point x="372" y="694"/>
      <point x="360" y="714"/>
      <point x="343" y="720" type="curve" smooth="yes"/>
      <point x="269" y="745" type="line"/>
      <point x="353" y="755" type="line"/>
      <point x="434" y="691" type="line"/>
      <point x="385" y="622" type="line" smooth="yes"/>
      <point x="379" y="613"/>
      <point x="377" y="598"/>
      <point x="380" y="588" type="curve" smooth="yes"/>
      <point x="409" y="488" type="line"/>
      <point x="421" y="439" type="line"/>
      <point x="359" y="443" type="line"/>
      <point x="354" y="460" type="line"/>
      <point x="358" y="594" type="line"/>
    </contour>
    <contour>
      <point x="641" y="302" type="line" smooth="yes"/>
      <point x="640" y="312"/>
      <point x="633" y="324"/>
      <point x="626" y="331" type="curve" smooth="yes"/>
      <point x="593" y="356" type="line"/>
      <point x="671" y="353" type="line"/>
      <point x="721" y="328" type="line"/>
      <point x="646" y="227" type="line"/>
    </contour>
    <contour>
      <point x="307" y="-41" type="curve" smooth="yes"/>
      <point x="659" y="-41" type="line" smooth="yes"/>
      <point x="662" y="-41"/>
      <point x="666" y="-40"/>
      <point x="669" y="-40" type="curve" smooth="yes"/>
      <point x="813" y="-3" type="line" smooth="yes"/>
      <point x="852" y="7"/>
      <point x="857" y="53"/>
      <point x="821" y="72" type="curve" smooth="yes"/>
      <point x="693" y="136" type="line"/>
      <point x="712" y="181" type="line"/>
      <point x="814" y="319" type="line" smooth="yes"/>
      <point x="829" y="340"/>
      <point x="823" y="367"/>
      <point x="800" y="378" type="curve" smooth="yes"/>
      <point x="699" y="429" type="line" smooth="yes"/>
      <point x="695" y="431"/>
      <point x="688" y="433"/>
      <point x="683" y="433" type="curve" smooth="yes"/>
      <point x="504" y="439" type="line"/>
      <point x="485" y="510" type="line"/>
      <point x="462" y="592" type="line"/>
      <point x="522" y="676" type="line" smooth="yes"/>
      <point x="534" y="693"/>
      <point x="530" y="717"/>
      <point x="514" y="730" type="curve" smooth="yes"/>
      <point x="477" y="759" type="line"/>
      <point x="499" y="759" type="line"/>
      <point x="586" y="726" type="line"/>
      <point x="731" y="679" type="line"/>
      <point x="617" y="636" type="line" smooth="yes"/>
      <point x="597" y="629"/>
      <point x="586" y="605"/>
      <point x="594" y="585" type="curve" smooth="yes"/>
      <point x="601" y="565"/>
      <point x="625" y="554"/>
      <point x="645" y="562" type="curve" smooth="yes"/>
      <point x="867" y="645" type="line" smooth="yes"/>
      <point x="905" y="659"/>
      <point x="904" y="708"/>
      <point x="865" y="721" type="curve" smooth="yes"/>
      <point x="614" y="800" type="line"/>
      <point x="520" y="836" type="line" smooth="yes"/>
      <point x="516" y="838"/>
      <point x="510" y="839"/>
      <point x="506" y="839" type="curve" smooth="yes"/>
      <point x="378" y="839" type="line" smooth="yes"/>
      <point x="377" y="839"/>
      <point x="374" y="839"/>
      <point x="373" y="839" type="curve" smooth="yes"/>
      <point x="369" y="838" type="line"/>
      <point x="361" y="840"/>
      <point x="353" y="838"/>
      <point x="346" y="835" type="curve"/>
      <point x="87" y="802" type="line" smooth="yes"/>
      <point x="42" y="797"/>
      <point x="37" y="739"/>
      <point x="80" y="725" type="curve" smooth="yes"/>
      <point x="286" y="655" type="line"/>
      <point x="278" y="603" type="line" smooth="yes"/>
      <point x="278" y="601"/>
      <point x="278" y="599"/>
      <point x="278" y="598" type="curve" smooth="yes"/>
      <point x="274" y="457" type="line" smooth="yes"/>
      <point x="274" y="453"/>
      <point x="275" y="448"/>
      <point x="275" y="445" type="curve" smooth="yes"/>
      <point x="289" y="395" type="line" smooth="yes"/>
      <point x="293" y="379"/>
      <point x="309" y="366"/>
      <point x="325" y="365" type="curve" smooth="yes"/>
      <point x="429" y="359" type="line"/>
      <point x="459" y="359" type="line"/>
      <point x="562" y="278" type="line"/>
      <point x="566" y="222" type="line"/>
      <point x="397" y="135" type="line" smooth="yes"/>
      <point x="369" y="120"/>
      <point x="366" y="88"/>
      <point x="390" y="68" type="curve" smooth="yes"/>
      <point x="425" y="39" type="line"/>
      <point x="419" y="39" type="line"/>
      <point x="415" y="42"/>
      <point x="409" y="44"/>
      <point x="403" y="45" type="curve" smooth="yes"/>
      <point x="164" y="91" type="line"/>
      <point x="148" y="205" type="line" smooth="yes"/>
      <point x="144" y="226"/>
      <point x="123" y="242"/>
      <point x="102" y="239" type="curve" smooth="yes"/>
      <point x="81" y="235"/>
      <point x="65" y="214"/>
      <point x="68" y="193" type="curve" smooth="yes"/>
      <point x="90" y="51" type="line" smooth="yes"/>
      <point x="92" y="36"/>
      <point x="106" y="21"/>
      <point x="121" y="18" type="curve" smooth="yes"/>
      <point x="268" y="-10" type="line"/>
      <point x="271" y="-27"/>
      <point x="285" y="-41"/>
    </contour>
    <contour>
      <point x="604" y="133" type="line" smooth="yes"/>
      <point x="596" y="114"/>
      <point x="605" y="91"/>
      <point x="623" y="82" type="curve" smooth="yes"/>
      <point x="690" y="48" type="line"/>
      <point x="654" y="39" type="line"/>
      <point x="550" y="39" type="line"/>
      <point x="487" y="91" type="line"/>
      <point x="615" y="158" type="line"/>
    </contour>
  </outline>
</glyph>
<glyph name="percent" format="1">
  <advance width="886"/>
  <unicode hex="0025"/>
  <outline>
    <contour>
      <point x="92" y="559" type="curve" smooth="yes"/>
      <point x="351" y="559" type="line" smooth="yes"/>
      <point x="374" y="559"/>
      <point x="392" y="577"/>
      <point x="391" y="600" type="curve" smooth="yes"/>
      <point x="388" y="700" type="line" smooth="yes"/>
      <point x="387" y="722"/>
      <point x="368" y="740"/>
      <point x="347" y="739" type="curve" smooth="yes"/>
      <point x="331" y="739"/>
      <point x="317" y="728"/>
      <point x="311" y="714" type="curve"/>
      <point x="274" y="745" type="line"/>
      <point x="329" y="760" type="line" smooth="yes"/>
      <point x="350" y="766"/>
      <point x="362" y="789"/>
      <point x="357" y="810" type="curve" smooth="yes"/>
      <point x="351" y="831"/>
      <point x="328" y="843"/>
      <point x="307" y="838" type="curve" smooth="yes"/>
      <point x="178" y="801" type="line" smooth="yes"/>
      <point x="144" y="792"/>
      <point x="137" y="754"/>
      <point x="164" y="732" type="curve" smooth="yes"/>
      <point x="211" y="693" type="line"/>
      <point x="76" y="636" type="line" smooth="yes"/>
      <point x="34" y="618"/>
      <point x="46" y="559"/>
    </contour>
    <contour>
      <point x="156" y="-27" type="curve" smooth="yes"/>
      <point x="218" y="48" type="line"/>
      <point x="343" y="124" type="line"/>
      <point x="513" y="203" type="line" smooth="yes"/>
      <point x="520" y="206"/>
      <point x="528" y="214"/>
      <point x="532" y="221" type="curve" smooth="yes"/>
      <point x="572" y="301" type="line" smooth="yes"/>
      <point x="573" y="304"/>
      <point x="575" y="309"/>
      <point x="575" y="313" type="curve" smooth="yes"/>
      <point x="588" y="393" type="line" smooth="yes"/>
      <point x="591" y="406"/>
      <point x="583" y="424"/>
      <point x="572" y="432" type="curve" smooth="yes"/>
      <point x="500" y="482" type="line"/>
      <point x="551" y="524" type="line"/>
      <point x="749" y="602" type="line" smooth="yes"/>
      <point x="776" y="613"/>
      <point x="784" y="643"/>
      <point x="764" y="665" type="curve" smooth="yes"/>
      <point x="702" y="738" type="line"/>
      <point x="685" y="808" type="line" smooth="yes"/>
      <point x="680" y="829"/>
      <point x="658" y="843"/>
      <point x="637" y="838" type="curve" smooth="yes"/>
      <point x="616" y="833"/>
      <point x="602" y="811"/>
      <point x="607" y="790" type="curve" smooth="yes"/>
      <point x="626" y="710" type="line" smooth="yes"/>
      <point x="627" y="705"/>
      <point x="631" y="697"/>
      <point x="635" y="693" type="curve" smooth="yes"/>
      <point x="667" y="656" type="line"/>
      <point x="515" y="596" type="line" smooth="yes"/>
      <point x="512" y="595"/>
      <point x="507" y="592"/>
      <point x="504" y="590" type="curve" smooth="yes"/>
      <point x="408" y="510" type="line" smooth="yes"/>
      <point x="387" y="492"/>
      <point x="388" y="462"/>
      <point x="411" y="446" type="curve" smooth="yes"/>
      <point x="505" y="381" type="line"/>
      <point x="497" y="331" type="line"/>
      <point x="466" y="269" type="line"/>
      <point x="307" y="195" type="line" smooth="yes"/>
      <point x="306" y="195"/>
      <point x="304" y="194"/>
      <point x="303" y="193" type="curve" smooth="yes"/>
      <point x="171" y="113" type="line" smooth="yes"/>
      <point x="168" y="111"/>
      <point x="164" y="107"/>
      <point x="161" y="105" type="curve" smooth="yes"/>
      <point x="94" y="25" type="line" smooth="yes"/>
      <point x="80" y="8"/>
      <point x="83" y="-18"/>
      <point x="99" y="-32" type="curve" smooth="yes"/>
      <point x="116" y="-46"/>
      <point x="142" y="-43"/>
    </contour>
    <contour>
      <point x="303" y="645" type="line" smooth="yes"/>
      <point x="305" y="646"/>
      <point x="308" y="647"/>
      <point x="309" y="648" type="curve"/>
      <point x="310" y="639" type="line"/>
      <point x="289" y="639" type="line"/>
    </contour>
    <contour>
      <point x="447" y="-41" type="curve" smooth="yes"/>
      <point x="800" y="-4" type="line" smooth="yes"/>
      <point x="824" y="-2"/>
      <point x="840" y="19"/>
      <point x="835" y="43" type="curve" smooth="yes"/>
      <point x="820" y="124" type="line" smooth="yes"/>
      <point x="820" y="125"/>
      <point x="819" y="127"/>
      <point x="818" y="129" type="curve" smooth="yes"/>
      <point x="791" y="212" type="line" smooth="yes"/>
      <point x="786" y="227"/>
      <point x="769" y="239"/>
      <point x="753" y="239" type="curve" smooth="yes"/>
      <point x="621" y="239" type="line" smooth="yes"/>
      <point x="585" y="239"/>
      <point x="567" y="203"/>
      <point x="589" y="174" type="curve" smooth="yes"/>
      <point x="667" y="74" type="line" smooth="yes"/>
      <point x="671" y="70"/>
      <point x="676" y="66"/>
      <point x="681" y="64" type="curve"/>
      <point x="439" y="39" type="line" smooth="yes"/>
      <point x="417" y="37"/>
      <point x="401" y="16"/>
      <point x="403" y="-5" type="curve" smooth="yes"/>
      <point x="405" y="-27"/>
      <point x="426" y="-43"/>
    </contour>
    <contour>
      <point x="731" y="124" type="curve" smooth="yes"/>
      <point x="703" y="159" type="line"/>
      <point x="724" y="159" type="line"/>
      <point x="742" y="106" type="line"/>
      <point x="748" y="71" type="line"/>
      <point x="724" y="68" type="line"/>
      <point x="741" y="81"/>
      <point x="744" y="107"/>
    </contour>
  </outline>
</glyph>
<glyph name="ampersand" format="1">
  <advance width="1048"/>
  <unicode hex="0026"/>
  <outline>
    <contour>
      <point x="628" y="761" type="line"/>
      <point x="614" y="745" type="line"/>
      <point x="614" y="751"/>
      <point x="612" y="756"/>
      <point x="609" y="761" type="curve"/>
    </contour>
    <contour>
      <point x="614" y="665" type="curve" smooth="yes"/>
      <point x="760" y="602" type="line"/>
      <point x="539" y="497" type="line" smooth="yes"/>
      <point x="515" y="486"/>
      <point x="508" y="460"/>
      <point x="521" y="441" type="curve"/>
      <point x="379" y="441" type="line"/>
      <point x="361" y="505" type="line"/>
      <point x="363" y="575" type="line"/>
      <point x="589" y="704" type="line"/>
      <point x="588" y="689"/>
      <point x="597" y="673"/>
    </contour>
    <contour>
      <point x="404" y="126" type="line" smooth="yes"/>
      <point x="401" y="138"/>
      <point x="389" y="150"/>
      <point x="377" y="154" type="curve" smooth="yes"/>
      <point x="171" y="217" type="line"/>
      <point x="277" y="311" type="line" smooth="yes"/>
      <point x="279" y="313"/>
      <point x="282" y="317"/>
      <point x="284" y="320" type="curve" smooth="yes"/>
      <point x="310" y="361" type="line"/>
      <point x="413" y="361" type="line"/>
      <point x="548" y="314" type="line"/>
      <point x="527" y="302" type="line" smooth="yes"/>
      <point x="497" y="285"/>
      <point x="498" y="247"/>
      <point x="528" y="232" type="curve" smooth="yes"/>
      <point x="637" y="175" type="line"/>
      <point x="581" y="106" type="line" smooth="yes"/>
      <point x="580" y="105"/>
      <point x="578" y="103"/>
      <point x="577" y="100" type="curve"/>
      <point x="419" y="66" type="line"/>
    </contour>
    <contour>
      <point x="662" y="252" type="line"/>
      <point x="631" y="268" type="line"/>
      <point x="639" y="273" type="line"/>
    </contour>
    <contour>
      <point x="314" y="-38" type="curve" smooth="yes"/>
      <point x="623" y="28" type="line" smooth="yes"/>
      <point x="625" y="29"/>
      <point x="628" y="30"/>
      <point x="631" y="32" type="curve"/>
      <point x="826" y="-37" type="line" smooth="yes"/>
      <point x="846" y="-44"/>
      <point x="870" y="-33"/>
      <point x="877" y="-12" type="curve" smooth="yes"/>
      <point x="884" y="8"/>
      <point x="873" y="32"/>
      <point x="852" y="39" type="curve" smooth="yes"/>
      <point x="700" y="93" type="line"/>
      <point x="713" y="105" type="line" smooth="yes"/>
      <point x="721" y="113"/>
      <point x="727" y="129"/>
      <point x="725" y="140" type="curve" smooth="yes"/>
      <point x="722" y="155" type="line"/>
      <point x="765" y="219" type="line" smooth="yes"/>
      <point x="776" y="234"/>
      <point x="773" y="257"/>
      <point x="759" y="270" type="curve" smooth="yes"/>
      <point x="722" y="305" type="line"/>
      <point x="967" y="361" type="line" smooth="yes"/>
      <point x="988" y="366"/>
      <point x="1002" y="388"/>
      <point x="997" y="409" type="curve" smooth="yes"/>
      <point x="992" y="430"/>
      <point x="970" y="444"/>
      <point x="949" y="439" type="curve" smooth="yes"/>
      <point x="668" y="375" type="line"/>
      <point x="682" y="391"/>
      <point x="681" y="417"/>
      <point x="659" y="433" type="curve" smooth="yes"/>
      <point x="633" y="453" type="line"/>
      <point x="873" y="567" type="line" smooth="yes"/>
      <point x="907" y="583"/>
      <point x="906" y="625"/>
      <point x="872" y="640" type="curve" smooth="yes"/>
      <point x="696" y="717" type="line"/>
      <point x="746" y="775" type="line" smooth="yes"/>
      <point x="771" y="803"/>
      <point x="753" y="841"/>
      <point x="716" y="841" type="curve" smooth="yes"/>
      <point x="528" y="841" type="line" smooth="yes"/>
      <point x="492" y="841"/>
      <point x="474" y="805"/>
      <point x="496" y="777" type="curve" smooth="yes"/>
      <point x="514" y="753" type="line"/>
      <point x="303" y="634" type="line" smooth="yes"/>
      <point x="292" y="628"/>
      <point x="283" y="612"/>
      <point x="283" y="600" type="curve" smooth="yes"/>
      <point x="281" y="501" type="line" smooth="yes"/>
      <point x="281" y="498"/>
      <point x="282" y="492"/>
      <point x="283" y="489" type="curve" smooth="yes"/>
      <point x="296" y="441" type="line"/>
      <point x="288" y="441" type="line" smooth="yes"/>
      <point x="276" y="441"/>
      <point x="261" y="433"/>
      <point x="254" y="422" type="curve" smooth="yes"/>
      <point x="219" y="367" type="line"/>
      <point x="65" y="229" type="line" smooth="yes"/>
      <point x="40" y="206"/>
      <point x="48" y="171"/>
      <point x="80" y="161" type="curve" smooth="yes"/>
      <point x="332" y="84" type="line"/>
      <point x="339" y="59" type="line"/>
      <point x="290" y="38" type="line" smooth="yes"/>
      <point x="244" y="17"/>
      <point x="266" y="-49"/>
    </contour>
  </outline>
</glyph>
<glyph name="asterisk" format="1">
  <advance width="567"/>
  <unicode hex="002A"/>
  <outline>
    <contour>
      <point x="446" y="273" type="curve" smooth="yes"/>
      <point x="462" y="288"/>
      <point x="463" y="314"/>
      <point x="448" y="329" type="curve" smooth="yes"/>
      <point x="383" y="398" type="line"/>
      <point x="342" y="436" type="line"/>
      <point x="369" y="462" type="line"/>
      <point x="477" y="462" type="line" smooth="yes"/>
      <point x="499" y="462"/>
      <point x="517" y="480"/>
      <point x="517" y="502" type="curve" smooth="yes"/>
      <point x="517" y="524"/>
      <point x="499" y="542"/>
      <point x="477" y="542" type="curve" smooth="yes"/>
      <point x="367" y="542" type="line"/>
      <point x="408" y="569" type="line" smooth="yes"/>
      <point x="411" y="571"/>
      <point x="416" y="575"/>
      <point x="419" y="579" type="curve" smooth="yes"/>
      <point x="490" y="679" type="line" smooth="yes"/>
      <point x="502" y="696"/>
      <point x="498" y="722"/>
      <point x="480" y="735" type="curve" smooth="yes"/>
      <point x="463" y="747"/>
      <point x="437" y="743"/>
      <point x="424" y="725" type="curve" smooth="yes"/>
      <point x="358" y="631" type="line"/>
      <point x="221" y="542" type="line"/>
      <point x="106" y="542" type="line" smooth="yes"/>
      <point x="84" y="542"/>
      <point x="66" y="524"/>
      <point x="66" y="502" type="curve" smooth="yes"/>
      <point x="66" y="480"/>
      <point x="84" y="462"/>
      <point x="106" y="462" type="curve" smooth="yes"/>
      <point x="212" y="462" type="line"/>
      <point x="175" y="434" type="line" smooth="yes"/>
      <point x="174" y="433"/>
      <point x="173" y="432"/>
      <point x="172" y="431" type="curve" smooth="yes"/>
      <point x="63" y="331" type="line" smooth="yes"/>
      <point x="47" y="317"/>
      <point x="46" y="291"/>
      <point x="61" y="275" type="curve" smooth="yes"/>
      <point x="75" y="259"/>
      <point x="101" y="258"/>
      <point x="117" y="273" type="curve" smooth="yes"/>
      <point x="225" y="371" type="line"/>
      <point x="263" y="400" type="line"/>
      <point x="329" y="339" type="line"/>
      <point x="390" y="275" type="line" smooth="yes"/>
      <point x="405" y="259"/>
      <point x="431" y="258"/>
    </contour>
    <contour>
      <point x="248" y="490" type="line"/>
      <point x="245" y="487" type="line"/>
      <point x="245" y="502" type="line"/>
    </contour>
  </outline>
</glyph>
<glyph name="plus" format="1">
  <advance width="849"/>
  <unicode hex="002B"/>
  <outline>
    <contour>
      <point x="464" y="82" type="curve" smooth="yes"/>
      <point x="485" y="86"/>
      <point x="501" y="107"/>
      <point x="498" y="128" type="curve" smooth="yes"/>
      <point x="483" y="228" type="line" smooth="yes"/>
      <point x="481" y="238"/>
      <point x="473" y="250"/>
      <point x="465" y="255" type="curve" smooth="yes"/>
      <point x="425" y="282" type="line"/>
      <point x="759" y="282" type="line" smooth="yes"/>
      <point x="781" y="282"/>
      <point x="799" y="300"/>
      <point x="799" y="322" type="curve" smooth="yes"/>
      <point x="799" y="344"/>
      <point x="781" y="362"/>
      <point x="759" y="362" type="curve" smooth="yes"/>
      <point x="407" y="362" type="line"/>
      <point x="442" y="391" type="line" smooth="yes"/>
      <point x="460" y="405"/>
      <point x="462" y="430"/>
      <point x="448" y="448" type="curve" smooth="yes"/>
      <point x="365" y="548" type="line" smooth="yes"/>
      <point x="351" y="564"/>
      <point x="325" y="567"/>
      <point x="308" y="553" type="curve" smooth="yes"/>
      <point x="292" y="539"/>
      <point x="289" y="513"/>
      <point x="303" y="496" type="curve" smooth="yes"/>
      <point x="360" y="428" type="line"/>
      <point x="280" y="362" type="line"/>
      <point x="90" y="362" type="line" smooth="yes"/>
      <point x="68" y="362"/>
      <point x="50" y="344"/>
      <point x="50" y="322" type="curve" smooth="yes"/>
      <point x="50" y="300"/>
      <point x="68" y="282"/>
      <point x="90" y="282" type="curve" smooth="yes"/>
      <point x="282" y="282" type="line"/>
      <point x="406" y="199" type="line"/>
      <point x="418" y="116" type="line" smooth="yes"/>
      <point x="422" y="95"/>
      <point x="443" y="79"/>
    </contour>
  </outline>
</glyph>
<glyph name="comma" format="1">
  <advance width="296"/>
  <unicode hex="002C"/>
  <outline>
    <contour>
      <point x="127" y="-98" type="curve" smooth="yes"/>
      <point x="153" y="-98" type="line" smooth="yes"/>
      <point x="175" y="-98"/>
      <point x="193" y="-80"/>
      <point x="193" y="-58" type="curve" smooth="yes"/>
      <point x="193" y="-53"/>
      <point x="192" y="-48"/>
      <point x="190" y="-43" type="curve"/>
      <point x="237" y="17" type="line" smooth="yes"/>
      <point x="251" y="34"/>
      <point x="248" y="59"/>
      <point x="232" y="72" type="curve" smooth="yes"/>
      <point x="115" y="172" type="line" smooth="yes"/>
      <point x="99" y="186"/>
      <point x="73" y="184"/>
      <point x="59" y="168" type="curve" smooth="yes"/>
      <point x="45" y="152"/>
      <point x="47" y="126"/>
      <point x="63" y="112" type="curve" smooth="yes"/>
      <point x="151" y="37" type="line"/>
      <point x="96" y="-33" type="line" smooth="yes"/>
      <point x="73" y="-62"/>
      <point x="91" y="-98"/>
    </contour>
  </outline>
</glyph>
<glyph name="hyphen" format="1">
  <advance width="217"/>
  <unicode hex="002D"/>
  <outline>
    <contour>
      <point x="50" y="296" type="curve" smooth="yes"/>
      <point x="50" y="274"/>
      <point x="68" y="256"/>
      <point x="90" y="256" type="curve" smooth="yes"/>
      <point x="127" y="256" type="line" smooth="yes"/>
      <point x="149" y="256"/>
      <point x="167" y="274"/>
      <point x="167" y="296" type="curve" smooth="yes"/>
      <point x="167" y="318"/>
      <point x="149" y="336"/>
      <point x="127" y="336" type="curve" smooth="yes"/>
      <point x="90" y="336" type="line" smooth="yes"/>
      <point x="68" y="336"/>
      <point x="50" y="318"/>
    </contour>
  </outline>
</glyph>
<glyph name="period" format="1">
  <advance width="211"/>
  <unicode hex="002E"/>
  <outline>
    <contour>
      <point x="159" y="22" type="curve" smooth="yes"/>
      <point x="152" y="43"/>
      <point x="129" y="55"/>
      <point x="109" y="48" type="curve" smooth="yes"/>
      <point x="78" y="38" type="line" smooth="yes"/>
      <point x="57" y="31"/>
      <point x="45" y="8"/>
      <point x="52" y="-12" type="curve" smooth="yes"/>
      <point x="59" y="-33"/>
      <point x="82" y="-45"/>
      <point x="102" y="-38" type="curve" smooth="yes"/>
      <point x="133" y="-28" type="line" smooth="yes"/>
      <point x="154" y="-21"/>
      <point x="166" y="2"/>
    </contour>
  </outline>
</glyph>
<glyph name="slash" format="1">
  <advance width="966"/>
  <unicode hex="002F"/>
  <outline>
    <contour>
      <point x="104" y="-36" type="curve" smooth="yes"/>
      <point x="321" y="44" type="line" smooth="yes"/>
      <point x="345" y="54"/>
      <point x="355" y="80"/>
      <point x="341" y="103" type="curve" smooth="yes"/>
      <point x="312" y="152" type="line"/>
      <point x="384" y="208" type="line"/>
      <point x="539" y="286" type="line" smooth="yes"/>
      <point x="565" y="299"/>
      <point x="570" y="330"/>
      <point x="549" y="350" type="curve" smooth="yes"/>
      <point x="504" y="396" type="line"/>
      <point x="582" y="449" type="line" smooth="yes"/>
      <point x="599" y="460"/>
      <point x="605" y="484"/>
      <point x="595" y="501" type="curve" smooth="yes"/>
      <point x="573" y="541" type="line"/>
      <point x="737" y="605" type="line" smooth="yes"/>
      <point x="771" y="618"/>
      <point x="775" y="656"/>
      <point x="745" y="676" type="curve" smooth="yes"/>
      <point x="694" y="708" type="line"/>
      <point x="887" y="764" type="line" smooth="yes"/>
      <point x="908" y="770"/>
      <point x="920" y="792"/>
      <point x="914" y="813" type="curve" smooth="yes"/>
      <point x="908" y="834"/>
      <point x="886" y="846"/>
      <point x="865" y="840" type="curve" smooth="yes"/>
      <point x="587" y="760" type="line" smooth="yes"/>
      <point x="551" y="750"/>
      <point x="545" y="709"/>
      <point x="576" y="688" type="curve" smooth="yes"/>
      <point x="635" y="651" type="line"/>
      <point x="502" y="599" type="line" smooth="yes"/>
      <point x="478" y="590"/>
      <point x="469" y="565"/>
      <point x="481" y="543" type="curve" smooth="yes"/>
      <point x="507" y="495" type="line"/>
      <point x="419" y="435" type="line" smooth="yes"/>
      <point x="397" y="421"/>
      <point x="394" y="392"/>
      <point x="413" y="374" type="curve" smooth="yes"/>
      <point x="454" y="333" type="line"/>
      <point x="345" y="278" type="line" smooth="yes"/>
      <point x="343" y="277"/>
      <point x="340" y="275"/>
      <point x="339" y="274" type="curve" smooth="yes"/>
      <point x="235" y="194" type="line" smooth="yes"/>
      <point x="219" y="182"/>
      <point x="215" y="158"/>
      <point x="225" y="141" type="curve" smooth="yes"/>
      <point x="248" y="103" type="line"/>
      <point x="76" y="40" type="line" smooth="yes"/>
      <point x="56" y="32"/>
      <point x="45" y="8"/>
      <point x="52" y="-12" type="curve" smooth="yes"/>
      <point x="60" y="-32"/>
      <point x="84" y="-43"/>
    </contour>
  </outline>
</glyph>
<glyph name="zero" format="1">
  <advance width="985"/>
  <unicode hex="0030"/>
  <outline>
    <contour>
      <point x="420" y="-38" type="curve" smooth="yes"/>
      <point x="484" y="-38" type="line" smooth="yes"/>
      <point x="485" y="-38"/>
      <point x="487" y="-38"/>
      <point x="488" y="-38" type="curve" smooth="yes"/>
      <point x="872" y="-2" type="line" smooth="yes"/>
      <point x="887" y="0"/>
      <point x="902" y="12"/>
      <point x="907" y="26" type="curve" smooth="yes"/>
      <point x="933" y="106" type="line" smooth="yes"/>
      <point x="938" y="122"/>
      <point x="931" y="142"/>
      <point x="917" y="152" type="curve" smooth="yes"/>
      <point x="812" y="223" type="line"/>
      <point x="814" y="292" type="line"/>
      <point x="863" y="383" type="line" smooth="yes"/>
      <point x="871" y="398"/>
      <point x="868" y="419"/>
      <point x="855" y="431" type="curve" smooth="yes"/>
      <point x="783" y="499" type="line"/>
      <point x="875" y="570" type="line" smooth="yes"/>
      <point x="883" y="577"/>
      <point x="889" y="590"/>
      <point x="890" y="600" type="curve" smooth="yes"/>
      <point x="892" y="652" type="line" smooth="yes"/>
      <point x="893" y="666"/>
      <point x="884" y="682"/>
      <point x="872" y="689" type="curve" smooth="yes"/>
      <point x="788" y="735" type="line"/>
      <point x="750" y="765" type="line" smooth="yes"/>
      <point x="741" y="772"/>
      <point x="730" y="775"/>
      <point x="719" y="773" type="curve"/>
      <point x="697" y="785" type="line" smooth="yes"/>
      <point x="696" y="786"/>
      <point x="693" y="788"/>
      <point x="691" y="788" type="curve" smooth="yes"/>
      <point x="531" y="840" type="line"/>
      <point x="523" y="787" type="line"/>
      <point x="523" y="842" type="line"/>
      <point x="278" y="842" type="line" smooth="yes"/>
      <point x="238" y="842"/>
      <point x="221" y="798"/>
      <point x="252" y="772" type="curve" smooth="yes"/>
      <point x="290" y="738" type="line"/>
      <point x="339" y="674" type="line"/>
      <point x="331" y="624" type="line"/>
      <point x="210" y="534" type="line" smooth="yes"/>
      <point x="208" y="533"/>
      <point x="205" y="530"/>
      <point x="203" y="528" type="curve" smooth="yes"/>
      <point x="119" y="428" type="line" smooth="yes"/>
      <point x="118" y="426"/>
      <point x="117" y="424"/>
      <point x="116" y="423" type="curve" smooth="yes"/>
      <point x="55" y="323" type="line" smooth="yes"/>
      <point x="48" y="312"/>
      <point x="48" y="294"/>
      <point x="54" y="283" type="curve" smooth="yes"/>
      <point x="108" y="183" type="line" smooth="yes"/>
      <point x="111" y="177"/>
      <point x="119" y="169"/>
      <point x="126" y="166" type="curve" smooth="yes"/>
      <point x="195" y="133" type="line"/>
      <point x="194" y="119"/>
      <point x="203" y="102"/>
      <point x="222" y="94" type="curve" smooth="yes"/>
      <point x="252" y="82" type="line"/>
      <point x="238" y="58" type="line" smooth="yes"/>
      <point x="228" y="41"/>
      <point x="233" y="18"/>
      <point x="249" y="6" type="curve" smooth="yes"/>
      <point x="298" y="-30" type="line" smooth="yes"/>
      <point x="316" y="-43"/>
      <point x="341" y="-39"/>
      <point x="354" y="-22" type="curve" smooth="yes"/>
      <point x="367" y="-4"/>
      <point x="363" y="21"/>
      <point x="346" y="34" type="curve" smooth="yes"/>
      <point x="325" y="49" type="line"/>
      <point x="326" y="50" type="line"/>
      <point x="387" y="25" type="line"/>
      <point x="383" y="18"/>
      <point x="380" y="10"/>
      <point x="380" y="2" type="curve" smooth="yes"/>
      <point x="380" y="-20"/>
      <point x="398" y="-38"/>
    </contour>
    <contour>
      <point x="392" y="570" type="line" smooth="yes"/>
      <point x="399" y="575"/>
      <point x="406" y="587"/>
      <point x="408" y="596" type="curve" smooth="yes"/>
      <point x="421" y="679" type="line" smooth="yes"/>
      <point x="422" y="688"/>
      <point x="419" y="702"/>
      <point x="413" y="709" type="curve" smooth="yes"/>
      <point x="373" y="762" type="line"/>
      <point x="513" y="762" type="line"/>
      <point x="662" y="713" type="line"/>
      <point x="735" y="673" type="line"/>
      <point x="580" y="621" type="line" smooth="yes"/>
      <point x="552" y="612"/>
      <point x="543" y="581"/>
      <point x="562" y="558" type="curve" smooth="yes"/>
      <point x="586" y="528" type="line"/>
      <point x="405" y="471" type="line" smooth="yes"/>
      <point x="368" y="459"/>
      <point x="365" y="415"/>
      <point x="399" y="397" type="curve" smooth="yes"/>
      <point x="471" y="360" type="line"/>
      <point x="377" y="319" type="line" smooth="yes"/>
      <point x="367" y="314"/>
      <point x="357" y="302"/>
      <point x="354" y="291" type="curve" smooth="yes"/>
      <point x="341" y="233" type="line"/>
      <point x="262" y="190" type="line"/>
      <point x="172" y="233" type="line"/>
      <point x="135" y="301" type="line"/>
      <point x="183" y="379" type="line"/>
      <point x="262" y="473" type="line"/>
    </contour>
    <contour>
      <point x="686" y="533" type="curve"/>
      <point x="661" y="564" type="line"/>
      <point x="792" y="607" type="line"/>
      <point x="697" y="534" type="line" smooth="yes"/>
      <point x="695" y="531"/>
      <point x="692" y="529"/>
      <point x="690" y="526" type="curve"/>
      <point x="686" y="533"/>
      <point x="686" y="533"/>
    </contour>
    <contour>
      <point x="432" y="93" type="curve" smooth="yes"/>
      <point x="359" y="123" type="line"/>
      <point x="358" y="132"/>
      <point x="355" y="140"/>
      <point x="349" y="146" type="curve"/>
      <point x="395" y="171" type="line" smooth="yes"/>
      <point x="404" y="176"/>
      <point x="413" y="188"/>
      <point x="415" y="198" type="curve" smooth="yes"/>
      <point x="428" y="254" type="line"/>
      <point x="581" y="321" type="line" smooth="yes"/>
      <point x="614" y="336"/>
      <point x="615" y="376"/>
      <point x="583" y="393" type="curve" smooth="yes"/>
      <point x="522" y="424" type="line"/>
      <point x="667" y="470" type="line" smooth="yes"/>
      <point x="675" y="473"/>
      <point x="682" y="477"/>
      <point x="687" y="483" type="curve"/>
      <point x="689" y="479"/>
      <point x="691" y="476"/>
      <point x="695" y="473" type="curve" smooth="yes"/>
      <point x="778" y="394" type="line"/>
      <point x="739" y="321" type="line" smooth="yes"/>
      <point x="736" y="316"/>
      <point x="734" y="308"/>
      <point x="734" y="303" type="curve" smooth="yes"/>
      <point x="732" y="203" type="line" smooth="yes"/>
      <point x="732" y="191"/>
      <point x="740" y="176"/>
      <point x="750" y="169" type="curve" smooth="yes"/>
      <point x="847" y="102" type="line"/>
      <point x="839" y="75" type="line"/>
      <point x="482" y="42" type="line"/>
      <point x="453" y="42" type="line"/>
      <point x="461" y="60"/>
      <point x="451" y="84"/>
    </contour>
  </outline>
</glyph>
<glyph name="one" format="1">
  <advance width="841"/>
  <unicode hex="0031"/>
  <outline>
    <contour>
      <point x="751" y="-39" type="line" smooth="yes"/>
      <point x="773" y="-39"/>
      <point x="791" y="-21"/>
      <point x="791" y="1" type="curve" smooth="yes"/>
      <point x="791" y="23"/>
      <point x="773" y="41"/>
      <point x="751" y="41" type="curve" smooth="yes"/>
      <point x="657" y="41" type="line"/>
      <point x="662" y="50"/>
      <point x="663" y="61"/>
      <point x="660" y="71" type="curve" smooth="yes"/>
      <point x="615" y="213" type="line" smooth="yes"/>
      <point x="613" y="219"/>
      <point x="608" y="227"/>
      <point x="604" y="231" type="curve" smooth="yes"/>
      <point x="518" y="307" type="line"/>
      <point x="568" y="375" type="line"/>
      <point x="664" y="473" type="line" smooth="yes"/>
      <point x="676" y="486"/>
      <point x="678" y="508"/>
      <point x="669" y="523" type="curve" smooth="yes"/>
      <point x="605" y="623" type="line" smooth="yes"/>
      <point x="602" y="626"/>
      <point x="598" y="631"/>
      <point x="594" y="634" type="curve" smooth="yes"/>
      <point x="583" y="642" type="line"/>
      <point x="588" y="653"/>
      <point x="589" y="667"/>
      <point x="582" y="679" type="curve" smooth="yes"/>
      <point x="503" y="820" type="line" smooth="yes"/>
      <point x="485" y="853"/>
      <point x="444" y="850"/>
      <point x="431" y="816" type="curve" smooth="yes"/>
      <point x="391" y="716" type="line" smooth="yes"/>
      <point x="384" y="700"/>
      <point x="391" y="678"/>
      <point x="405" y="668" type="curve" smooth="yes"/>
      <point x="435" y="648" type="line"/>
      <point x="183" y="641" type="line" smooth="yes"/>
      <point x="130" y="640"/>
      <point x="131" y="561"/>
      <point x="184" y="561" type="curve" smooth="yes"/>
      <point x="230" y="561" type="line" smooth="yes"/>
      <point x="234" y="561"/>
      <point x="237" y="561"/>
      <point x="240" y="562" type="curve"/>
      <point x="453" y="568" type="line" smooth="yes"/>
      <point x="459" y="568"/>
      <point x="467" y="570"/>
      <point x="472" y="573" type="curve" smooth="yes"/>
      <point x="511" y="594" type="line"/>
      <point x="542" y="573" type="line"/>
      <point x="584" y="506" type="line"/>
      <point x="508" y="429" type="line" smooth="yes"/>
      <point x="507" y="428"/>
      <point x="506" y="426"/>
      <point x="505" y="425" type="curve" smooth="yes"/>
      <point x="432" y="325" type="line" smooth="yes"/>
      <point x="420" y="308"/>
      <point x="422" y="284"/>
      <point x="437" y="271" type="curve" smooth="yes"/>
      <point x="542" y="178" type="line"/>
      <point x="572" y="83" type="line"/>
      <point x="479" y="48" type="line"/>
      <point x="342" y="41" type="line"/>
      <point x="90" y="41" type="line" smooth="yes"/>
      <point x="68" y="41"/>
      <point x="50" y="23"/>
      <point x="50" y="1" type="curve" smooth="yes"/>
      <point x="50" y="-21"/>
      <point x="68" y="-39"/>
      <point x="90" y="-39" type="curve" smooth="yes"/>
    </contour>
  </outline>
</glyph>
<glyph name="two" format="1">
  <advance width="1051"/>
  <unicode hex="0032"/>
  <outline>
    <contour>
      <point x="961" y="-40" type="line" smooth="yes"/>
      <point x="983" y="-40"/>
      <point x="1001" y="-22"/>
      <point x="1001" y="0" type="curve" smooth="yes"/>
      <point x="1001" y="22"/>
      <point x="983" y="40"/>
      <point x="961" y="40" type="curve" smooth="yes"/>
      <point x="205" y="40" type="line"/>
      <point x="241" y="69" type="line" smooth="yes"/>
      <point x="243" y="71"/>
      <point x="246" y="74"/>
      <point x="248" y="76" type="curve" smooth="yes"/>
      <point x="325" y="176" type="line" smooth="yes"/>
      <point x="338" y="193"/>
      <point x="335" y="217"/>
      <point x="318" y="231" type="curve" smooth="yes"/>
      <point x="210" y="320" type="line"/>
      <point x="360" y="353" type="line"/>
      <point x="493" y="360" type="line"/>
      <point x="583" y="360" type="line" smooth="yes"/>
      <point x="584" y="360"/>
      <point x="586" y="360"/>
      <point x="588" y="360" type="curve" smooth="yes"/>
      <point x="648" y="367" type="line" smooth="yes"/>
      <point x="649" y="367"/>
      <point x="650" y="368"/>
      <point x="651" y="368" type="curve" smooth="yes"/>
      <point x="912" y="419" type="line" smooth="yes"/>
      <point x="948" y="426"/>
      <point x="958" y="467"/>
      <point x="929" y="490" type="curve" smooth="yes"/>
      <point x="774" y="612" type="line"/>
      <point x="781" y="630" type="line"/>
      <point x="864" y="721" type="line" smooth="yes"/>
      <point x="887" y="746"/>
      <point x="876" y="780"/>
      <point x="843" y="787" type="curve" smooth="yes"/>
      <point x="599" y="839" type="line"/>
      <point x="594" y="789" type="line"/>
      <point x="594" y="840" type="line"/>
      <point x="321" y="840" type="line" smooth="yes"/>
      <point x="304" y="840"/>
      <point x="291" y="832"/>
      <point x="284" y="821" type="curve"/>
      <point x="150" y="780" type="line" smooth="yes"/>
      <point x="119" y="770"/>
      <point x="111" y="737"/>
      <point x="133" y="714" type="curve" smooth="yes"/>
      <point x="270" y="572" type="line" smooth="yes"/>
      <point x="285" y="557"/>
      <point x="311" y="556"/>
      <point x="327" y="571" type="curve" smooth="yes"/>
      <point x="342" y="586"/>
      <point x="343" y="612"/>
      <point x="328" y="628" type="curve" smooth="yes"/>
      <point x="236" y="723" type="line"/>
      <point x="341" y="755" type="line" smooth="yes"/>
      <point x="346" y="756"/>
      <point x="349" y="758"/>
      <point x="353" y="760" type="curve"/>
      <point x="587" y="760" type="line"/>
      <point x="758" y="724" type="line"/>
      <point x="717" y="679" type="line" smooth="yes"/>
      <point x="715" y="676"/>
      <point x="712" y="671"/>
      <point x="710" y="667" type="curve" smooth="yes"/>
      <point x="688" y="616" type="line" smooth="yes"/>
      <point x="682" y="600"/>
      <point x="687" y="579"/>
      <point x="700" y="569" type="curve" smooth="yes"/>
      <point x="811" y="481" type="line"/>
      <point x="637" y="447" type="line"/>
      <point x="581" y="440" type="line"/>
      <point x="489" y="440" type="line"/>
      <point x="353" y="433" type="line" smooth="yes"/>
      <point x="351" y="433"/>
      <point x="348" y="432"/>
      <point x="346" y="432" type="curve" smooth="yes"/>
      <point x="112" y="381" type="line" smooth="yes"/>
      <point x="77" y="373"/>
      <point x="68" y="334"/>
      <point x="96" y="311" type="curve" smooth="yes"/>
      <point x="238" y="194" type="line"/>
      <point x="187" y="128" type="line"/>
      <point x="67" y="31" type="line" smooth="yes"/>
      <point x="35" y="5"/>
      <point x="51" y="-40"/>
      <point x="92" y="-40" type="curve" smooth="yes"/>
    </contour>
  </outline>
</glyph>
<glyph name="three" format="1">
  <advance width="942"/>
  <unicode hex="0033"/>
  <outline>
    <contour>
      <point x="396" y="-39" type="curve" smooth="yes"/>
      <point x="589" y="-39" type="line"/>
      <point x="589" y="-37" type="line"/>
      <point x="742" y="-32" type="line" smooth="yes"/>
      <point x="751" y="-32"/>
      <point x="763" y="-26"/>
      <point x="769" y="-20" type="curve" smooth="yes"/>
      <point x="819" y="32" type="line" smooth="yes"/>
      <point x="828" y="41"/>
      <point x="832" y="59"/>
      <point x="828" y="72" type="curve" smooth="yes"/>
      <point x="789" y="187" type="line"/>
      <point x="876" y="253" type="line" smooth="yes"/>
      <point x="898" y="269"/>
      <point x="899" y="299"/>
      <point x="876" y="316" type="curve" smooth="yes"/>
      <point x="779" y="390" type="line"/>
      <point x="839" y="397" type="line" smooth="yes"/>
      <point x="880" y="402"/>
      <point x="891" y="450"/>
      <point x="856" y="471" type="curve" smooth="yes"/>
      <point x="765" y="526" type="line"/>
      <point x="809" y="574" type="line" smooth="yes"/>
      <point x="821" y="588"/>
      <point x="822" y="610"/>
      <point x="811" y="625" type="curve" smooth="yes"/>
      <point x="728" y="736" type="line"/>
      <point x="762" y="763" type="line" smooth="yes"/>
      <point x="794" y="788"/>
      <point x="779" y="833"/>
      <point x="739" y="834" type="curve" smooth="yes"/>
      <point x="491" y="841" type="line" smooth="yes"/>
      <point x="491" y="841"/>
      <point x="490" y="841"/>
      <point x="490" y="841" type="curve" smooth="yes"/>
      <point x="470" y="841" type="line" smooth="yes"/>
      <point x="468" y="841"/>
      <point x="465" y="841"/>
      <point x="463" y="840" type="curve" smooth="yes"/>
      <point x="267" y="804" type="line" smooth="yes"/>
      <point x="258" y="803"/>
      <point x="246" y="795"/>
      <point x="241" y="786" type="curve" smooth="yes"/>
      <point x="189" y="706" type="line" smooth="yes"/>
      <point x="180" y="691"/>
      <point x="182" y="669"/>
      <point x="195" y="656" type="curve" smooth="yes"/>
      <point x="279" y="573" type="line" smooth="yes"/>
      <point x="294" y="557"/>
      <point x="320" y="557"/>
      <point x="335" y="573" type="curve" smooth="yes"/>
      <point x="351" y="588"/>
      <point x="351" y="614"/>
      <point x="335" y="629" type="curve" smooth="yes"/>
      <point x="274" y="690" type="line"/>
      <point x="299" y="729" type="line"/>
      <point x="474" y="761" type="line"/>
      <point x="489" y="761" type="line"/>
      <point x="636" y="757" type="line"/>
      <point x="631" y="745"/>
      <point x="632" y="730"/>
      <point x="641" y="719" type="curve" smooth="yes"/>
      <point x="727" y="603" type="line"/>
      <point x="673" y="545" type="line" smooth="yes"/>
      <point x="656" y="525"/>
      <point x="660" y="497"/>
      <point x="682" y="483" type="curve" smooth="yes"/>
      <point x="715" y="463" type="line"/>
      <point x="531" y="441" type="line"/>
      <point x="446" y="441" type="line"/>
      <point x="446" y="361" type="line"/>
      <point x="693" y="361" type="line"/>
      <point x="719" y="336" type="line" smooth="yes"/>
      <point x="720" y="335"/>
      <point x="721" y="334"/>
      <point x="722" y="333" type="curve" smooth="yes"/>
      <point x="786" y="285" type="line"/>
      <point x="718" y="233" type="line" smooth="yes"/>
      <point x="705" y="223"/>
      <point x="699" y="203"/>
      <point x="704" y="188" type="curve" smooth="yes"/>
      <point x="744" y="70" type="line"/>
      <point x="723" y="47" type="line"/>
      <point x="514" y="41" type="line"/>
      <point x="399" y="41" type="line"/>
      <point x="172" y="74" type="line"/>
      <point x="143" y="114" type="line"/>
      <point x="201" y="173" type="line" smooth="yes"/>
      <point x="216" y="188"/>
      <point x="215" y="214"/>
      <point x="200" y="230" type="curve" smooth="yes"/>
      <point x="185" y="245"/>
      <point x="159" y="244"/>
      <point x="143" y="229" type="curve" smooth="yes"/>
      <point x="61" y="146" type="line" smooth="yes"/>
      <point x="48" y="132"/>
      <point x="47" y="109"/>
      <point x="58" y="94" type="curve" smooth="yes"/>
      <point x="118" y="13" type="line" smooth="yes"/>
      <point x="124" y="6"/>
      <point x="136" y="-1"/>
      <point x="145" y="-3" type="curve" smooth="yes"/>
      <point x="390" y="-39" type="line" smooth="yes"/>
      <point x="392" y="-39"/>
      <point x="394" y="-39"/>
    </contour>
  </outline>
</glyph>
<glyph name="four" format="1">
  <advance width="947"/>
  <unicode hex="0034"/>
  <outline>
    <contour>
      <point x="754" y="-15" type="curve" smooth="yes"/>
      <point x="799" y="84" type="line" smooth="yes"/>
      <point x="801" y="87"/>
      <point x="802" y="91"/>
      <point x="802" y="94" type="curve" smooth="yes"/>
      <point x="819" y="184" type="line"/>
      <point x="889" y="276" type="line" smooth="yes"/>
      <point x="902" y="294"/>
      <point x="899" y="319"/>
      <point x="881" y="333" type="curve" smooth="yes"/>
      <point x="770" y="415" type="line"/>
      <point x="796" y="487" type="line" smooth="yes"/>
      <point x="798" y="494"/>
      <point x="798" y="507"/>
      <point x="795" y="515" type="curve" smooth="yes"/>
      <point x="756" y="615" type="line" smooth="yes"/>
      <point x="748" y="635"/>
      <point x="725" y="645"/>
      <point x="704" y="637" type="curve" smooth="yes"/>
      <point x="684" y="629"/>
      <point x="674" y="606"/>
      <point x="682" y="585" type="curve" smooth="yes"/>
      <point x="715" y="500" type="line"/>
      <point x="684" y="414" type="line" smooth="yes"/>
      <point x="679" y="398"/>
      <point x="685" y="378"/>
      <point x="698" y="368" type="curve" smooth="yes"/>
      <point x="736" y="340" type="line"/>
      <point x="735" y="340" type="line" smooth="yes"/>
      <point x="354" y="340" type="line"/>
      <point x="371" y="345" type="line" smooth="yes"/>
      <point x="398" y="354"/>
      <point x="408" y="382"/>
      <point x="392" y="406" type="curve" smooth="yes"/>
      <point x="345" y="474" type="line"/>
      <point x="359" y="523" type="line"/>
      <point x="494" y="598" type="line" smooth="yes"/>
      <point x="495" y="599"/>
      <point x="498" y="601"/>
      <point x="500" y="603" type="curve" smooth="yes"/>
      <point x="600" y="686" type="line" smooth="yes"/>
      <point x="602" y="688"/>
      <point x="605" y="692"/>
      <point x="607" y="694" type="curve" smooth="yes"/>
      <point x="663" y="778" type="line" smooth="yes"/>
      <point x="675" y="796"/>
      <point x="670" y="821"/>
      <point x="652" y="833" type="curve" smooth="yes"/>
      <point x="634" y="845"/>
      <point x="609" y="840"/>
      <point x="597" y="822" type="curve" smooth="yes"/>
      <point x="544" y="744" type="line"/>
      <point x="451" y="666" type="line"/>
      <point x="305" y="585" type="line" smooth="yes"/>
      <point x="297" y="580"/>
      <point x="289" y="570"/>
      <point x="286" y="561" type="curve" smooth="yes"/>
      <point x="263" y="477" type="line" smooth="yes"/>
      <point x="261" y="467"/>
      <point x="263" y="453"/>
      <point x="269" y="444" type="curve" smooth="yes"/>
      <point x="295" y="405" type="line"/>
      <point x="80" y="338" type="line" smooth="yes"/>
      <point x="34" y="324"/>
      <point x="44" y="260"/>
      <point x="92" y="260" type="curve" smooth="yes"/>
      <point x="711" y="260" type="line"/>
      <point x="714" y="253" type="line"/>
      <point x="719" y="189" type="line"/>
      <point x="690" y="115" type="line" smooth="yes"/>
      <point x="683" y="98"/>
      <point x="690" y="78"/>
      <point x="704" y="67" type="curve"/>
      <point x="682" y="17" type="line" smooth="yes"/>
      <point x="673" y="-2"/>
      <point x="682" y="-27"/>
      <point x="702" y="-35" type="curve" smooth="yes"/>
      <point x="721" y="-44"/>
      <point x="746" y="-35"/>
    </contour>
    <contour>
      <point x="789" y="282" type="curve"/>
      <point x="774" y="312" type="line"/>
      <point x="801" y="292" type="line"/>
      <point x="791" y="279" type="line"/>
      <point x="789" y="282"/>
      <point x="789" y="282"/>
    </contour>
  </outline>
</glyph>
<glyph name="five" format="1">
  <advance width="1014"/>
  <unicode hex="0035"/>
  <outline>
    <contour>
      <point x="458" y="-39" type="curve" smooth="yes"/>
      <point x="489" y="-39" type="line"/>
      <point x="753" y="-32" type="line" smooth="yes"/>
      <point x="766" y="-32"/>
      <point x="782" y="-22"/>
      <point x="788" y="-11" type="curve" smooth="yes"/>
      <point x="812" y="35" type="line"/>
      <point x="952" y="172" type="line" smooth="yes"/>
      <point x="968" y="188"/>
      <point x="968" y="213"/>
      <point x="953" y="229" type="curve" smooth="yes"/>
      <point x="871" y="312" type="line"/>
      <point x="789" y="393" type="line" smooth="yes"/>
      <point x="785" y="397"/>
      <point x="779" y="401"/>
      <point x="774" y="403" type="curve" smooth="yes"/>
      <point x="675" y="439" type="line" smooth="yes"/>
      <point x="671" y="440"/>
      <point x="665" y="441"/>
      <point x="661" y="441" type="curve" smooth="yes"/>
      <point x="179" y="441" type="line"/>
      <point x="208" y="475" type="line" smooth="yes"/>
      <point x="215" y="482"/>
      <point x="219" y="496"/>
      <point x="218" y="506" type="curve" smooth="yes"/>
      <point x="209" y="583" type="line"/>
      <point x="304" y="652" type="line" smooth="yes"/>
      <point x="306" y="654"/>
      <point x="309" y="657"/>
      <point x="311" y="659" type="curve" smooth="yes"/>
      <point x="378" y="739" type="line" smooth="yes"/>
      <point x="384" y="746"/>
      <point x="387" y="753"/>
      <point x="387" y="761" type="curve"/>
      <point x="688" y="761" type="line" smooth="yes"/>
      <point x="710" y="761"/>
      <point x="728" y="779"/>
      <point x="728" y="801" type="curve" smooth="yes"/>
      <point x="728" y="823"/>
      <point x="710" y="841"/>
      <point x="688" y="841" type="curve" smooth="yes"/>
      <point x="297" y="841" type="line" smooth="yes"/>
      <point x="255" y="841"/>
      <point x="239" y="793"/>
      <point x="274" y="768" type="curve" smooth="yes"/>
      <point x="289" y="758" type="line"/>
      <point x="252" y="714" type="line"/>
      <point x="142" y="633" type="line" smooth="yes"/>
      <point x="132" y="626"/>
      <point x="125" y="609"/>
      <point x="126" y="596" type="curve" smooth="yes"/>
      <point x="136" y="514" type="line"/>
      <point x="62" y="427" type="line" smooth="yes"/>
      <point x="37" y="399"/>
      <point x="55" y="361"/>
      <point x="92" y="361" type="curve" smooth="yes"/>
      <point x="654" y="361" type="line"/>
      <point x="739" y="330" type="line"/>
      <point x="814" y="256" type="line"/>
      <point x="867" y="201" type="line"/>
      <point x="752" y="88" type="line" smooth="yes"/>
      <point x="749" y="86"/>
      <point x="746" y="81"/>
      <point x="745" y="78" type="curve" smooth="yes"/>
      <point x="728" y="47" type="line"/>
      <point x="489" y="41" type="line"/>
      <point x="469" y="41" type="line"/>
      <point x="419" y="72" type="line"/>
      <point x="275" y="153" type="line"/>
      <point x="118" y="236" type="line" smooth="yes"/>
      <point x="99" y="246"/>
      <point x="74" y="239"/>
      <point x="64" y="220" type="curve" smooth="yes"/>
      <point x="54" y="201"/>
      <point x="61" y="176"/>
      <point x="80" y="166" type="curve" smooth="yes"/>
      <point x="237" y="82" type="line"/>
      <point x="380" y="2" type="line"/>
      <point x="437" y="-33" type="line" smooth="yes"/>
      <point x="442" y="-36"/>
      <point x="452" y="-39"/>
    </contour>
  </outline>
</glyph>
<glyph name="six" format="1">
  <advance width="1028"/>
  <unicode hex="0036"/>
  <outline>
    <contour>
      <point x="510" y="-39" type="curve" smooth="yes"/>
      <point x="636" y="-39" type="line" smooth="yes"/>
      <point x="659" y="-39"/>
      <point x="673" y="-25"/>
      <point x="677" y="-8" type="curve"/>
      <point x="738" y="24" type="line" smooth="yes"/>
      <point x="740" y="25"/>
      <point x="743" y="26"/>
      <point x="744" y="27" type="curve" smooth="yes"/>
      <point x="931" y="169" type="line" smooth="yes"/>
      <point x="959" y="190"/>
      <point x="953" y="227"/>
      <point x="920" y="239" type="curve" smooth="yes"/>
      <point x="747" y="299" type="line"/>
      <point x="788" y="334" type="line" smooth="yes"/>
      <point x="811" y="353"/>
      <point x="808" y="384"/>
      <point x="783" y="399" type="curve" smooth="yes"/>
      <point x="724" y="435" type="line" smooth="yes"/>
      <point x="718" y="438"/>
      <point x="709" y="441"/>
      <point x="703" y="441" type="curve" smooth="yes"/>
      <point x="480" y="441" type="line"/>
      <point x="329" y="470" type="line"/>
      <point x="331" y="516" type="line" smooth="yes"/>
      <point x="331" y="529"/>
      <point x="323" y="544"/>
      <point x="313" y="551" type="curve" smooth="yes"/>
      <point x="240" y="598" type="line"/>
      <point x="312" y="653" type="line" smooth="yes"/>
      <point x="314" y="654"/>
      <point x="317" y="657"/>
      <point x="318" y="658" type="curve" smooth="yes"/>
      <point x="382" y="732" type="line"/>
      <point x="445" y="761" type="line"/>
      <point x="586" y="761" type="line"/>
      <point x="720" y="756" type="line"/>
      <point x="721" y="741" type="line" smooth="yes"/>
      <point x="721" y="731"/>
      <point x="728" y="718"/>
      <point x="736" y="711" type="curve" smooth="yes"/>
      <point x="914" y="570" type="line" smooth="yes"/>
      <point x="931" y="556"/>
      <point x="957" y="559"/>
      <point x="970" y="576" type="curve" smooth="yes"/>
      <point x="984" y="593"/>
      <point x="981" y="619"/>
      <point x="964" y="632" type="curve" smooth="yes"/>
      <point x="800" y="763" type="line"/>
      <point x="798" y="796" type="line" smooth="yes"/>
      <point x="797" y="816"/>
      <point x="780" y="833"/>
      <point x="760" y="834" type="curve" smooth="yes"/>
      <point x="589" y="841" type="line" smooth="yes"/>
      <point x="588" y="841"/>
      <point x="587" y="841"/>
      <point x="587" y="841" type="curve" smooth="yes"/>
      <point x="436" y="841" type="line" smooth="yes"/>
      <point x="431" y="841"/>
      <point x="424" y="839"/>
      <point x="419" y="837" type="curve" smooth="yes"/>
      <point x="341" y="801" type="line" smooth="yes"/>
      <point x="336" y="799"/>
      <point x="330" y="795"/>
      <point x="327" y="791" type="curve" smooth="yes"/>
      <point x="260" y="714" type="line"/>
      <point x="165" y="641" type="line"/>
      <point x="150" y="642"/>
      <point x="136" y="635"/>
      <point x="127" y="623" type="curve" smooth="yes"/>
      <point x="122" y="614"/>
      <point x="120" y="605"/>
      <point x="122" y="596" type="curve"/>
      <point x="61" y="527" type="line" smooth="yes"/>
      <point x="44" y="509"/>
      <point x="48" y="481"/>
      <point x="69" y="468" type="curve" smooth="yes"/>
      <point x="191" y="387" type="line"/>
      <point x="157" y="319" type="line" smooth="yes"/>
      <point x="149" y="303"/>
      <point x="154" y="281"/>
      <point x="168" y="269" type="curve" smooth="yes"/>
      <point x="264" y="195" type="line"/>
      <point x="222" y="143" type="line" smooth="yes"/>
      <point x="220" y="140"/>
      <point x="217" y="135"/>
      <point x="215" y="131" type="curve" smooth="yes"/>
      <point x="187" y="50" type="line" smooth="yes"/>
      <point x="178" y="25"/>
      <point x="193" y="1"/>
      <point x="219" y="-3" type="curve" smooth="yes"/>
      <point x="505" y="-39" type="line" smooth="yes"/>
      <point x="506" y="-39"/>
      <point x="509" y="-39"/>
    </contour>
    <contour>
      <point x="249" y="445" type="line"/>
      <point x="151" y="509" type="line"/>
      <point x="180" y="541" type="line"/>
      <point x="250" y="496" type="line"/>
    </contour>
    <contour>
      <point x="352" y="176" type="line" smooth="yes"/>
      <point x="366" y="193"/>
      <point x="363" y="219"/>
      <point x="346" y="233" type="curve" smooth="yes"/>
      <point x="243" y="313" type="line"/>
      <point x="278" y="383" type="line" smooth="yes"/>
      <point x="280" y="388"/>
      <point x="281" y="393"/>
      <point x="282" y="398" type="curve"/>
      <point x="468" y="362" type="line" smooth="yes"/>
      <point x="471" y="361"/>
      <point x="474" y="361"/>
      <point x="476" y="361" type="curve" smooth="yes"/>
      <point x="692" y="361" type="line"/>
      <point x="694" y="360" type="line"/>
      <point x="641" y="315" type="line" smooth="yes"/>
      <point x="616" y="293"/>
      <point x="622" y="258"/>
      <point x="654" y="247" type="curve" smooth="yes"/>
      <point x="823" y="188" type="line"/>
      <point x="699" y="93" type="line"/>
      <point x="601" y="44" type="line" smooth="yes"/>
      <point x="600" y="43"/>
      <point x="598" y="42"/>
      <point x="597" y="41" type="curve"/>
      <point x="513" y="41" type="line"/>
      <point x="279" y="71" type="line"/>
      <point x="288" y="98" type="line"/>
    </contour>
  </outline>
</glyph>
<glyph name="seven" format="1">
  <advance width="775"/>
  <unicode hex="0037"/>
  <outline>
    <contour>
      <point x="155" y="-42" type="curve" smooth="yes"/>
      <point x="176" y="-36"/>
      <point x="189" y="-14"/>
      <point x="184" y="7" type="curve" smooth="yes"/>
      <point x="171" y="56" type="line"/>
      <point x="413" y="130" type="line" smooth="yes"/>
      <point x="427" y="135"/>
      <point x="440" y="150"/>
      <point x="441" y="165" type="curve" smooth="yes"/>
      <point x="448" y="251" type="line" smooth="yes"/>
      <point x="449" y="264"/>
      <point x="441" y="280"/>
      <point x="430" y="287" type="curve" smooth="yes"/>
      <point x="344" y="346" type="line"/>
      <point x="387" y="390" type="line"/>
      <point x="693" y="473" type="line" smooth="yes"/>
      <point x="731" y="483"/>
      <point x="737" y="527"/>
      <point x="703" y="546" type="curve" smooth="yes"/>
      <point x="574" y="620" type="line"/>
      <point x="575" y="680" type="line" smooth="yes"/>
      <point x="575" y="687"/>
      <point x="572" y="697"/>
      <point x="569" y="702" type="curve" smooth="yes"/>
      <point x="517" y="783" type="line" smooth="yes"/>
      <point x="511" y="791"/>
      <point x="499" y="799"/>
      <point x="489" y="800" type="curve" smooth="yes"/>
      <point x="261" y="837" type="line" smooth="yes"/>
      <point x="260" y="837"/>
      <point x="257" y="837"/>
      <point x="255" y="837" type="curve" smooth="yes"/>
      <point x="90" y="837" type="line" smooth="yes"/>
      <point x="68" y="837"/>
      <point x="50" y="819"/>
      <point x="50" y="797" type="curve" smooth="yes"/>
      <point x="50" y="775"/>
      <point x="68" y="757"/>
      <point x="90" y="757" type="curve" smooth="yes"/>
      <point x="252" y="757" type="line"/>
      <point x="459" y="724" type="line"/>
      <point x="495" y="669" type="line"/>
      <point x="494" y="598" type="line" smooth="yes"/>
      <point x="494" y="585"/>
      <point x="503" y="569"/>
      <point x="514" y="562" type="curve" smooth="yes"/>
      <point x="579" y="525" type="line"/>
      <point x="356" y="464" type="line" smooth="yes"/>
      <point x="350" y="463"/>
      <point x="342" y="458"/>
      <point x="337" y="454" type="curve" smooth="yes"/>
      <point x="253" y="368" type="line" smooth="yes"/>
      <point x="235" y="349"/>
      <point x="238" y="321"/>
      <point x="260" y="307" type="curve" smooth="yes"/>
      <point x="366" y="234" type="line"/>
      <point x="363" y="199" type="line"/>
      <point x="111" y="121" type="line" smooth="yes"/>
      <point x="91" y="115"/>
      <point x="79" y="93"/>
      <point x="84" y="73" type="curve" smooth="yes"/>
      <point x="106" y="-13" type="line" smooth="yes"/>
      <point x="112" y="-34"/>
      <point x="134" y="-47"/>
    </contour>
  </outline>
</glyph>
<glyph name="eight" format="1">
  <advance width="986"/>
  <unicode hex="0038"/>
  <outline>
    <contour>
      <point x="284" y="-40" type="curve" smooth="yes"/>
      <point x="488" y="-40" type="line"/>
      <point x="538" y="-40" type="line"/>
      <point x="657" y="-33" type="line" smooth="yes"/>
      <point x="665" y="-32"/>
      <point x="677" y="-27"/>
      <point x="683" y="-21" type="curve" smooth="yes"/>
      <point x="730" y="28" type="line"/>
      <point x="918" y="168" type="line" smooth="yes"/>
      <point x="945" y="188"/>
      <point x="940" y="224"/>
      <point x="910" y="237" type="curve" smooth="yes"/>
      <point x="723" y="316" type="line"/>
      <point x="687" y="366" type="line"/>
      <point x="711" y="367" type="line" smooth="yes"/>
      <point x="725" y="368"/>
      <point x="741" y="379"/>
      <point x="746" y="392" type="curve" smooth="yes"/>
      <point x="768" y="443" type="line"/>
      <point x="826" y="585" type="line" smooth="yes"/>
      <point x="833" y="602"/>
      <point x="826" y="625"/>
      <point x="809" y="634" type="curve" smooth="yes"/>
      <point x="673" y="716" type="line"/>
      <point x="614" y="770" type="line"/>
      <point x="620" y="778" type="line" smooth="yes"/>
      <point x="638" y="807"/>
      <point x="620" y="840"/>
      <point x="586" y="840" type="curve" smooth="yes"/>
      <point x="239" y="840" type="line" smooth="yes"/>
      <point x="215" y="840"/>
      <point x="197" y="821"/>
      <point x="199" y="797" type="curve" smooth="yes"/>
      <point x="203" y="739" type="line" smooth="yes"/>
      <point x="203" y="737"/>
      <point x="204" y="734"/>
      <point x="204" y="733" type="curve" smooth="yes"/>
      <point x="235" y="598" type="line"/>
      <point x="228" y="538" type="line"/>
      <point x="138" y="468" type="line" smooth="yes"/>
      <point x="109" y="445"/>
      <point x="117" y="406"/>
      <point x="153" y="397" type="curve" smooth="yes"/>
      <point x="158" y="396" type="line"/>
      <point x="95" y="380" type="line" smooth="yes"/>
      <point x="62" y="372"/>
      <point x="53" y="336"/>
      <point x="77" y="313" type="curve" smooth="yes"/>
      <point x="185" y="210" type="line"/>
      <point x="74" y="152" type="line" smooth="yes"/>
      <point x="41" y="135"/>
      <point x="42" y="95"/>
      <point x="76" y="80" type="curve" smooth="yes"/>
      <point x="240" y="7" type="line"/>
      <point x="246" y="-12" type="line" smooth="yes"/>
      <point x="251" y="-28"/>
      <point x="268" y="-40"/>
    </contour>
    <contour>
      <point x="291" y="485" type="line" smooth="yes"/>
      <point x="298" y="491"/>
      <point x="305" y="503"/>
      <point x="306" y="512" type="curve" smooth="yes"/>
      <point x="315" y="596" type="line" smooth="yes"/>
      <point x="315" y="599"/>
      <point x="315" y="605"/>
      <point x="314" y="609" type="curve" smooth="yes"/>
      <point x="283" y="747" type="line"/>
      <point x="282" y="760" type="line"/>
      <point x="523" y="760" type="line"/>
      <point x="524" y="750"/>
      <point x="529" y="741"/>
      <point x="535" y="735" type="curve" smooth="yes"/>
      <point x="622" y="654" type="line" smooth="yes"/>
      <point x="623" y="653"/>
      <point x="627" y="650"/>
      <point x="629" y="649" type="curve" smooth="yes"/>
      <point x="739" y="583" type="line"/>
      <point x="694" y="474" type="line"/>
      <point x="682" y="446" type="line"/>
      <point x="544" y="440" type="line"/>
      <point x="313" y="440" type="line"/>
      <point x="252" y="455" type="line"/>
    </contour>
    <contour>
      <point x="534" y="40" type="line"/>
      <point x="488" y="40" type="line"/>
      <point x="313" y="40" type="line"/>
      <point x="310" y="48" type="line" smooth="yes"/>
      <point x="307" y="58"/>
      <point x="298" y="69"/>
      <point x="289" y="73" type="curve" smooth="yes"/>
      <point x="184" y="119" type="line"/>
      <point x="271" y="164" type="line" smooth="yes"/>
      <point x="297" y="178"/>
      <point x="302" y="209"/>
      <point x="281" y="229" type="curve" smooth="yes"/>
      <point x="185" y="320" type="line"/>
      <point x="323" y="354" type="line"/>
      <point x="358" y="360" type="line"/>
      <point x="460" y="360" type="line"/>
      <point x="615" y="328" type="line"/>
      <point x="665" y="260" type="line" smooth="yes"/>
      <point x="668" y="255"/>
      <point x="676" y="249"/>
      <point x="681" y="247" type="curve" smooth="yes"/>
      <point x="814" y="190" type="line"/>
      <point x="680" y="90" type="line" smooth="yes"/>
      <point x="679" y="89"/>
      <point x="676" y="87"/>
      <point x="675" y="86" type="curve" smooth="yes"/>
      <point x="636" y="46" type="line"/>
    </contour>
  </outline>
</glyph>
<glyph name="nine" format="1">
  <advance width="909"/>
  <unicode hex="0039"/>
  <outline>
    <contour>
      <point x="582" y="486" type="curve" smooth="yes"/>
      <point x="605" y="422" type="line"/>
      <point x="552" y="431" type="line"/>
      <point x="552" y="440" type="line"/>
      <point x="318" y="440" type="line"/>
      <point x="176" y="470" type="line"/>
      <point x="171" y="500" type="line"/>
      <point x="259" y="569" type="line" smooth="yes"/>
      <point x="278" y="584"/>
      <point x="280" y="611"/>
      <point x="262" y="629" type="curve" smooth="yes"/>
      <point x="149" y="739" type="line"/>
      <point x="166" y="753" type="line"/>
      <point x="375" y="760" type="line"/>
      <point x="580" y="760" type="line"/>
      <point x="569" y="690" type="line" smooth="yes"/>
      <point x="566" y="673"/>
      <point x="576" y="654"/>
      <point x="591" y="647" type="curve" smooth="yes"/>
      <point x="701" y="596" type="line"/>
      <point x="599" y="534" type="line" smooth="yes"/>
      <point x="584" y="525"/>
      <point x="576" y="504"/>
    </contour>
    <contour>
      <point x="191" y="-40" type="curve" smooth="yes"/>
      <point x="531" y="-40" type="line" smooth="yes"/>
      <point x="532" y="-40"/>
      <point x="535" y="-40"/>
      <point x="536" y="-40" type="curve" smooth="yes"/>
      <point x="824" y="-4" type="line" smooth="yes"/>
      <point x="848" y="-1"/>
      <point x="864" y="22"/>
      <point x="857" y="46" type="curve" smooth="yes"/>
      <point x="839" y="118" type="line"/>
      <point x="854" y="192" type="line" smooth="yes"/>
      <point x="856" y="201"/>
      <point x="853" y="216"/>
      <point x="847" y="223" type="curve" smooth="yes"/>
      <point x="775" y="323" type="line" smooth="yes"/>
      <point x="775" y="324"/>
      <point x="774" y="325"/>
      <point x="773" y="326" type="curve" smooth="yes"/>
      <point x="751" y="351" type="line"/>
      <point x="760" y="374"/>
      <point x="747" y="399"/>
      <point x="719" y="403" type="curve" smooth="yes"/>
      <point x="704" y="406" type="line"/>
      <point x="691" y="421" type="line"/>
      <point x="669" y="483" type="line"/>
      <point x="807" y="566" type="line" smooth="yes"/>
      <point x="836" y="584"/>
      <point x="834" y="621"/>
      <point x="803" y="636" type="curve" smooth="yes"/>
      <point x="652" y="707" type="line"/>
      <point x="658" y="744" type="line"/>
      <point x="688" y="770" type="line" smooth="yes"/>
      <point x="717" y="797"/>
      <point x="701" y="840"/>
      <point x="661" y="840" type="curve" smooth="yes"/>
      <point x="322" y="840" type="line"/>
      <point x="322" y="838" type="line"/>
      <point x="149" y="833" type="line" smooth="yes"/>
      <point x="142" y="833"/>
      <point x="131" y="829"/>
      <point x="125" y="824" type="curve" smooth="yes"/>
      <point x="64" y="772" type="line" smooth="yes"/>
      <point x="46" y="757"/>
      <point x="45" y="730"/>
      <point x="62" y="713" type="curve" smooth="yes"/>
      <point x="174" y="603" type="line"/>
      <point x="103" y="548" type="line" smooth="yes"/>
      <point x="93" y="540"/>
      <point x="86" y="523"/>
      <point x="88" y="511" type="curve" smooth="yes"/>
      <point x="101" y="430" type="line" smooth="yes"/>
      <point x="103" y="415"/>
      <point x="117" y="400"/>
      <point x="132" y="397" type="curve" smooth="yes"/>
      <point x="306" y="361" type="line" smooth="yes"/>
      <point x="308" y="360"/>
      <point x="312" y="360"/>
      <point x="314" y="360" type="curve" smooth="yes"/>
      <point x="494" y="360" type="line"/>
      <point x="635" y="336" type="line"/>
      <point x="611" y="310" type="line" smooth="yes"/>
      <point x="599" y="297"/>
      <point x="598" y="275"/>
      <point x="608" y="260" type="curve" smooth="yes"/>
      <point x="667" y="177" type="line" smooth="yes"/>
      <point x="680" y="159"/>
      <point x="705" y="155"/>
      <point x="723" y="167" type="curve" smooth="yes"/>
      <point x="741" y="180"/>
      <point x="745" y="205"/>
      <point x="733" y="223" type="curve" smooth="yes"/>
      <point x="692" y="281" type="line"/>
      <point x="700" y="289" type="line"/>
      <point x="712" y="275" type="line"/>
      <point x="772" y="191" type="line"/>
      <point x="759" y="125" type="line" smooth="yes"/>
      <point x="758" y="120"/>
      <point x="758" y="112"/>
      <point x="759" y="107" type="curve" smooth="yes"/>
      <point x="769" y="70" type="line"/>
      <point x="529" y="40" type="line"/>
      <point x="247" y="40" type="line"/>
      <point x="249" y="45" type="line" smooth="yes"/>
      <point x="253" y="57"/>
      <point x="250" y="74"/>
      <point x="242" y="83" type="curve" smooth="yes"/>
      <point x="130" y="225" type="line" smooth="yes"/>
      <point x="117" y="242"/>
      <point x="91" y="245"/>
      <point x="74" y="231" type="curve" smooth="yes"/>
      <point x="57" y="218"/>
      <point x="54" y="192"/>
      <point x="68" y="175" type="curve" smooth="yes"/>
      <point x="166" y="51" type="line"/>
      <point x="153" y="13" type="line" smooth="yes"/>
      <point x="144" y="-15"/>
      <point x="162" y="-40"/>
    </contour>
  </outline>
</glyph>
<glyph name="colon" format="1">
  <advance width="450"/>
  <unicode hex="003A"/>
  <outline>
    <contour>
      <point x="400" y="581" type="curve" smooth="yes"/>
      <point x="401" y="602"/>
      <point x="384" y="622"/>
      <point x="362" y="623" type="curve" smooth="yes"/>
      <point x="213" y="632" type="line" smooth="yes"/>
      <point x="192" y="633"/>
      <point x="172" y="616"/>
      <point x="171" y="594" type="curve" smooth="yes"/>
      <point x="170" y="573"/>
      <point x="187" y="553"/>
      <point x="209" y="552" type="curve" smooth="yes"/>
      <point x="358" y="543" type="line" smooth="yes"/>
      <point x="379" y="542"/>
      <point x="399" y="559"/>
    </contour>
    <contour>
      <point x="50" y="0" type="curve" smooth="yes"/>
      <point x="51" y="-22"/>
      <point x="69" y="-40"/>
      <point x="91" y="-39" type="curve" smooth="yes"/>
      <point x="247" y="-35" type="line" smooth="yes"/>
      <point x="269" y="-34"/>
      <point x="287" y="-16"/>
      <point x="286" y="6" type="curve" smooth="yes"/>
      <point x="285" y="28"/>
      <point x="267" y="46"/>
      <point x="245" y="45" type="curve" smooth="yes"/>
      <point x="89" y="41" type="line" smooth="yes"/>
      <point x="67" y="40"/>
      <point x="49" y="22"/>
    </contour>
  </outline>
</glyph>
<glyph name="semicolon" format="1">
  <advance width="327"/>
  <unicode hex="003B"/>
  <outline>
    <contour>
      <point x="233" y="576" type="curve" smooth="yes"/>
      <point x="237" y="597"/>
      <point x="222" y="619"/>
      <point x="201" y="622" type="curve" smooth="yes"/>
      <point x="150" y="631" type="line" smooth="yes"/>
      <point x="129" y="635"/>
      <point x="107" y="620"/>
      <point x="104" y="599" type="curve" smooth="yes"/>
      <point x="100" y="578"/>
      <point x="115" y="556"/>
      <point x="136" y="553" type="curve" smooth="yes"/>
      <point x="187" y="544" type="line" smooth="yes"/>
      <point x="208" y="540"/>
      <point x="230" y="555"/>
    </contour>
    <contour>
      <point x="90" y="-48" type="curve" smooth="yes"/>
      <point x="162" y="-48" type="line" smooth="yes"/>
      <point x="173" y="-48"/>
      <point x="187" y="-41"/>
      <point x="194" y="-32" type="curve" smooth="yes"/>
      <point x="269" y="68" type="line" smooth="yes"/>
      <point x="276" y="77"/>
      <point x="279" y="93"/>
      <point x="275" y="104" type="curve" smooth="yes"/>
      <point x="243" y="204" type="line" smooth="yes"/>
      <point x="237" y="225"/>
      <point x="213" y="237"/>
      <point x="193" y="230" type="curve" smooth="yes"/>
      <point x="172" y="224"/>
      <point x="160" y="200"/>
      <point x="167" y="180" type="curve" smooth="yes"/>
      <point x="193" y="99" type="line"/>
      <point x="142" y="32" type="line"/>
      <point x="90" y="32" type="line" smooth="yes"/>
      <point x="68" y="32"/>
      <point x="50" y="14"/>
      <point x="50" y="-8" type="curve" smooth="yes"/>
      <point x="50" y="-30"/>
      <point x="68" y="-48"/>
    </contour>
  </outline>
</glyph>
<glyph name="less" format="1">
  <advance width="654"/>
  <unicode hex="003C"/>
  <outline>
    <contour>
      <point x="324" y="69" type="curve" smooth="yes"/>
      <point x="408" y="119" type="line" smooth="yes"/>
      <point x="421" y="126"/>
      <point x="430" y="145"/>
      <point x="427" y="159" type="curve" smooth="yes"/>
      <point x="419" y="209" type="line" smooth="yes"/>
      <point x="417" y="224"/>
      <point x="404" y="239"/>
      <point x="389" y="242" type="curve" smooth="yes"/>
      <point x="184" y="290" type="line"/>
      <point x="144" y="316" type="line"/>
      <point x="152" y="330" type="line"/>
      <point x="188" y="372" type="line"/>
      <point x="263" y="415" type="line"/>
      <point x="570" y="463" type="line" smooth="yes"/>
      <point x="592" y="467"/>
      <point x="607" y="488"/>
      <point x="604" y="509" type="curve" smooth="yes"/>
      <point x="600" y="531"/>
      <point x="579" y="546"/>
      <point x="558" y="543" type="curve" smooth="yes"/>
      <point x="244" y="493" type="line" smooth="yes"/>
      <point x="240" y="492"/>
      <point x="234" y="490"/>
      <point x="230" y="488" type="curve" smooth="yes"/>
      <point x="142" y="438" type="line" smooth="yes"/>
      <point x="139" y="436"/>
      <point x="134" y="432"/>
      <point x="132" y="429" type="curve" smooth="yes"/>
      <point x="89" y="379" type="line" smooth="yes"/>
      <point x="87" y="378"/>
      <point x="85" y="375"/>
      <point x="84" y="373" type="curve" smooth="yes"/>
      <point x="55" y="323" type="line" smooth="yes"/>
      <point x="45" y="305"/>
      <point x="51" y="281"/>
      <point x="68" y="269" type="curve" smooth="yes"/>
      <point x="146" y="219" type="line" smooth="yes"/>
      <point x="150" y="217"/>
      <point x="155" y="215"/>
      <point x="159" y="214" type="curve" smooth="yes"/>
      <point x="340" y="171" type="line"/>
      <point x="284" y="137" type="line" smooth="yes"/>
      <point x="265" y="126"/>
      <point x="259" y="101"/>
      <point x="270" y="83" type="curve" smooth="yes"/>
      <point x="281" y="64"/>
      <point x="306" y="58"/>
    </contour>
  </outline>
</glyph>
<glyph name="equal" format="1">
  <advance width="773"/>
  <unicode hex="003D"/>
  <outline>
    <contour>
      <point x="683" y="398" type="line" smooth="yes"/>
      <point x="705" y="398"/>
      <point x="723" y="416"/>
      <point x="723" y="438" type="curve" smooth="yes"/>
      <point x="723" y="460"/>
      <point x="705" y="478"/>
      <point x="683" y="478" type="curve" smooth="yes"/>
      <point x="50" y="478" type="line"/>
      <point x="50" y="398" type="line"/>
    </contour>
    <contour>
      <point x="613" y="98" type="line" smooth="yes"/>
      <point x="635" y="98"/>
      <point x="653" y="116"/>
      <point x="653" y="138" type="curve" smooth="yes"/>
      <point x="653" y="160"/>
      <point x="635" y="178"/>
      <point x="613" y="178" type="curve" smooth="yes"/>
      <point x="103" y="178" type="line"/>
      <point x="103" y="98" type="line"/>
    </contour>
  </outline>
</glyph>
<glyph name="greater" format="1">
  <advance width="784"/>
  <unicode hex="003E"/>
  <outline>
    <contour>
      <point x="96" y="80" type="curve" smooth="yes"/>
      <point x="435" y="130" type="line" smooth="yes"/>
      <point x="479" y="137"/>
      <point x="485" y="192"/>
      <point x="443" y="207" type="curve" smooth="yes"/>
      <point x="429" y="213" type="line"/>
      <point x="502" y="231" type="line"/>
      <point x="702" y="281" type="line" smooth="yes"/>
      <point x="744" y="292"/>
      <point x="745" y="346"/>
      <point x="703" y="358" type="curve" smooth="yes"/>
      <point x="559" y="399" type="line"/>
      <point x="561" y="416" type="line" smooth="yes"/>
      <point x="563" y="437"/>
      <point x="548" y="457"/>
      <point x="527" y="460" type="curve" smooth="yes"/>
      <point x="185" y="508" type="line"/>
      <point x="120" y="553" type="line" smooth="yes"/>
      <point x="102" y="565"/>
      <point x="76" y="560"/>
      <point x="64" y="543" type="curve" smooth="yes"/>
      <point x="52" y="525"/>
      <point x="57" y="499"/>
      <point x="74" y="487" type="curve" smooth="yes"/>
      <point x="147" y="437" type="line" smooth="yes"/>
      <point x="152" y="434"/>
      <point x="159" y="431"/>
      <point x="164" y="430" type="curve" smooth="yes"/>
      <point x="477" y="386" type="line"/>
      <point x="476" y="374" type="line" smooth="yes"/>
      <point x="474" y="356"/>
      <point x="487" y="337"/>
      <point x="505" y="332" type="curve" smooth="yes"/>
      <point x="537" y="322" type="line"/>
      <point x="482" y="309" type="line"/>
      <point x="286" y="259" type="line" smooth="yes"/>
      <point x="249" y="249"/>
      <point x="243" y="206"/>
      <point x="272" y="187" type="curve"/>
      <point x="84" y="160" type="line" smooth="yes"/>
      <point x="63" y="156"/>
      <point x="47" y="136"/>
      <point x="50" y="114" type="curve" smooth="yes"/>
      <point x="54" y="93"/>
      <point x="74" y="77"/>
    </contour>
  </outline>
</glyph>
<glyph name="question" format="1">
  <advance width="774"/>
  <unicode hex="003F"/>
  <outline>
    <contour>
      <point x="370" y="186" type="curve" smooth="yes"/>
      <point x="407" y="286" type="line" smooth="yes"/>
      <point x="413" y="301"/>
      <point x="407" y="321"/>
      <point x="395" y="331" type="curve" smooth="yes"/>
      <point x="344" y="371" type="line"/>
      <point x="348" y="373" type="line" smooth="yes"/>
      <point x="427" y="423" type="line"/>
      <point x="700" y="564" type="line" smooth="yes"/>
      <point x="730" y="580"/>
      <point x="732" y="615"/>
      <point x="704" y="633" type="curve" smooth="yes"/>
      <point x="579" y="717" type="line" smooth="yes"/>
      <point x="578" y="717"/>
      <point x="576" y="719"/>
      <point x="574" y="719" type="curve" smooth="yes"/>
      <point x="419" y="797" type="line"/>
      <point x="389" y="828" type="line" smooth="yes"/>
      <point x="382" y="835"/>
      <point x="369" y="840"/>
      <point x="360" y="840" type="curve" smooth="yes"/>
      <point x="166" y="840" type="line" smooth="yes"/>
      <point x="159" y="840"/>
      <point x="148" y="836"/>
      <point x="142" y="832" type="curve" smooth="yes"/>
      <point x="65" y="773" type="line" smooth="yes"/>
      <point x="52" y="763"/>
      <point x="46" y="743"/>
      <point x="52" y="728" type="curve" smooth="yes"/>
      <point x="101" y="586" type="line" smooth="yes"/>
      <point x="108" y="565"/>
      <point x="132" y="554"/>
      <point x="152" y="561" type="curve" smooth="yes"/>
      <point x="173" y="568"/>
      <point x="184" y="592"/>
      <point x="177" y="612" type="curve" smooth="yes"/>
      <point x="137" y="727" type="line"/>
      <point x="180" y="760" type="line"/>
      <point x="343" y="760" type="line"/>
      <point x="366" y="736" type="line" smooth="yes"/>
      <point x="369" y="733"/>
      <point x="374" y="730"/>
      <point x="377" y="728" type="curve" smooth="yes"/>
      <point x="536" y="649" type="line"/>
      <point x="603" y="604" type="line"/>
      <point x="389" y="494" type="line" smooth="yes"/>
      <point x="388" y="493"/>
      <point x="386" y="492"/>
      <point x="385" y="492" type="curve" smooth="yes"/>
      <point x="313" y="445" type="line"/>
      <point x="240" y="439" type="line" smooth="yes"/>
      <point x="200" y="435"/>
      <point x="187" y="392"/>
      <point x="218" y="368" type="curve" smooth="yes"/>
      <point x="322" y="286" type="line"/>
      <point x="296" y="214" type="line" smooth="yes"/>
      <point x="288" y="194"/>
      <point x="299" y="170"/>
      <point x="319" y="163" type="curve" smooth="yes"/>
      <point x="339" y="155"/>
      <point x="363" y="166"/>
    </contour>
    <contour>
      <point x="176" y="-2" type="curve" smooth="yes"/>
      <point x="177" y="-24"/>
      <point x="197" y="-41"/>
      <point x="218" y="-40" type="curve" smooth="yes"/>
      <point x="404" y="-29" type="line" smooth="yes"/>
      <point x="426" y="-28"/>
      <point x="443" y="-8"/>
      <point x="442" y="13" type="curve" smooth="yes"/>
      <point x="441" y="35"/>
      <point x="421" y="52"/>
      <point x="400" y="51" type="curve" smooth="yes"/>
      <point x="214" y="40" type="line" smooth="yes"/>
      <point x="192" y="39"/>
      <point x="175" y="19"/>
    </contour>
  </outline>
</glyph>
<glyph name="at" format="1">
  <advance width="1025"/>
  <unicode hex="0040"/>
  <outline>
    <contour>
      <point x="299" y="463" type="line" smooth="yes"/>
      <point x="299" y="470"/>
      <point x="295" y="480"/>
      <point x="290" y="486" type="curve" smooth="yes"/>
      <point x="209" y="587" type="line" smooth="yes"/>
      <point x="208" y="588"/>
      <point x="206" y="590"/>
      <point x="205" y="591" type="curve" smooth="yes"/>
      <point x="159" y="635" type="line"/>
      <point x="251" y="685" type="line"/>
      <point x="381" y="718" type="line"/>
      <point x="483" y="718" type="line"/>
      <point x="723" y="683" type="line"/>
      <point x="867" y="612" type="line"/>
      <point x="881" y="579" type="line"/>
      <point x="678" y="495" type="line" smooth="yes"/>
      <point x="677" y="495"/>
      <point x="676" y="495"/>
      <point x="676" y="494" type="curve"/>
      <point x="693" y="545" type="line" smooth="yes"/>
      <point x="700" y="566"/>
      <point x="688" y="589"/>
      <point x="668" y="596" type="curve" smooth="yes"/>
      <point x="656" y="600"/>
      <point x="643" y="598"/>
      <point x="633" y="591" type="curve"/>
      <point x="485" y="598" type="line" smooth="yes"/>
      <point x="463" y="599"/>
      <point x="444" y="581"/>
      <point x="443" y="560" type="curve" smooth="yes"/>
      <point x="442" y="538"/>
      <point x="460" y="519"/>
      <point x="481" y="518" type="curve" smooth="yes"/>
      <point x="549" y="515" type="line"/>
      <point x="312" y="394" type="line" smooth="yes"/>
      <point x="309" y="392"/>
      <point x="305" y="390"/>
      <point x="303" y="387" type="curve"/>
    </contour>
    <contour>
      <point x="653" y="434" type="line" smooth="yes"/>
      <point x="654" y="436"/>
      <point x="656" y="438"/>
      <point x="657" y="441" type="curve"/>
      <point x="659" y="437"/>
      <point x="662" y="433"/>
      <point x="665" y="430" type="curve" smooth="yes"/>
      <point x="762" y="333" type="line"/>
      <point x="841" y="222" type="line"/>
      <point x="822" y="205" type="line"/>
      <point x="651" y="201" type="line"/>
      <point x="546" y="271" type="line"/>
      <point x="582" y="336" type="line"/>
    </contour>
    <contour>
      <point x="516" y="382" type="line" smooth="yes"/>
      <point x="515" y="380"/>
      <point x="514" y="379"/>
      <point x="513" y="377" type="curve" smooth="yes"/>
      <point x="458" y="277" type="line" smooth="yes"/>
      <point x="457" y="276"/>
      <point x="457" y="275"/>
      <point x="456" y="274" type="curve"/>
      <point x="369" y="328" type="line"/>
      <point x="370" y="333" type="line"/>
      <point x="546" y="424" type="line"/>
    </contour>
    <contour>
      <point x="608" y="-82" type="line"/>
      <point x="608" y="-2" type="line"/>
      <point x="463" y="-2" type="line"/>
      <point x="271" y="31" type="line"/>
      <point x="238" y="77" type="line"/>
      <point x="272" y="139" type="line" smooth="yes"/>
      <point x="282" y="156"/>
      <point x="276" y="179"/>
      <point x="260" y="190" type="curve" smooth="yes"/>
      <point x="169" y="256" type="line"/>
      <point x="285" y="326" type="line" smooth="yes"/>
      <point x="286" y="327"/>
      <point x="288" y="328"/>
      <point x="289" y="329" type="curve"/>
      <point x="289" y="307" type="line" smooth="yes"/>
      <point x="289" y="294"/>
      <point x="297" y="279"/>
      <point x="308" y="272" type="curve" smooth="yes"/>
      <point x="457" y="179" type="line"/>
      <point x="500" y="131" type="line" smooth="yes"/>
      <point x="507" y="124"/>
      <point x="521" y="118"/>
      <point x="531" y="118" type="curve" smooth="yes"/>
      <point x="630" y="120" type="line"/>
      <point x="639" y="117"/>
      <point x="649" y="118"/>
      <point x="657" y="121" type="curve"/>
      <point x="839" y="125" type="line" smooth="yes"/>
      <point x="848" y="125"/>
      <point x="860" y="130"/>
      <point x="866" y="136" type="curve" smooth="yes"/>
      <point x="921" y="188" type="line" smooth="yes"/>
      <point x="935" y="201"/>
      <point x="938" y="225"/>
      <point x="927" y="240" type="curve" smooth="yes"/>
      <point x="826" y="382" type="line" smooth="yes"/>
      <point x="825" y="384"/>
      <point x="823" y="386"/>
      <point x="821" y="387" type="curve" smooth="yes"/>
      <point x="764" y="444" type="line"/>
      <point x="949" y="521" type="line" smooth="yes"/>
      <point x="970" y="530"/>
      <point x="980" y="553"/>
      <point x="971" y="574" type="curve" smooth="yes"/>
      <point x="934" y="657" type="line" smooth="yes"/>
      <point x="931" y="665"/>
      <point x="922" y="674"/>
      <point x="915" y="677" type="curve" smooth="yes"/>
      <point x="753" y="758" type="line" smooth="yes"/>
      <point x="750" y="759"/>
      <point x="744" y="761"/>
      <point x="741" y="762" type="curve" smooth="yes"/>
      <point x="499" y="797" type="line"/>
      <point x="499" y="798" type="line"/>
      <point x="376" y="798" type="line" smooth="yes"/>
      <point x="373" y="798"/>
      <point x="369" y="797"/>
      <point x="366" y="797" type="curve" smooth="yes"/>
      <point x="226" y="761" type="line" smooth="yes"/>
      <point x="224" y="761"/>
      <point x="220" y="759"/>
      <point x="217" y="758" type="curve" smooth="yes"/>
      <point x="72" y="679" type="line" smooth="yes"/>
      <point x="46" y="665"/>
      <point x="42" y="634"/>
      <point x="63" y="614" type="curve" smooth="yes"/>
      <point x="149" y="535" type="line"/>
      <point x="220" y="446" type="line"/>
      <point x="223" y="382" type="line"/>
      <point x="76" y="293" type="line" smooth="yes"/>
      <point x="50" y="277"/>
      <point x="49" y="245"/>
      <point x="74" y="227" type="curve" smooth="yes"/>
      <point x="185" y="146" type="line"/>
      <point x="156" y="94" type="line" smooth="yes"/>
      <point x="149" y="82"/>
      <point x="150" y="63"/>
      <point x="158" y="51" type="curve" smooth="yes"/>
      <point x="215" y="-29" type="line" smooth="yes"/>
      <point x="221" y="-37"/>
      <point x="232" y="-44"/>
      <point x="241" y="-45" type="curve" smooth="yes"/>
      <point x="453" y="-81" type="line" smooth="yes"/>
      <point x="455" y="-82"/>
      <point x="458" y="-82"/>
      <point x="460" y="-82" type="curve" smooth="yes"/>
    </contour>
  </outline>
</glyph>
<glyph name="A" format="1">
  <advance width="1068"/>
  <unicode hex="0041"/>
  <outline>
    <contour>
      <point x="722" y="-40" type="curve" smooth="yes"/>
      <point x="791" y="-6" type="line" smooth="yes"/>
      <point x="806" y="2"/>
      <point x="816" y="22"/>
      <point x="812" y="39" type="curve" smooth="yes"/>
      <point x="797" y="104" type="line"/>
      <point x="922" y="209" type="line" smooth="yes"/>
      <point x="937" y="222"/>
      <point x="940" y="245"/>
      <point x="929" y="262" type="curve" smooth="yes"/>
      <point x="900" y="306" type="line"/>
      <point x="978" y="306" type="line" smooth="yes"/>
      <point x="1000" y="306"/>
      <point x="1018" y="324"/>
      <point x="1018" y="346" type="curve" smooth="yes"/>
      <point x="1018" y="368"/>
      <point x="1000" y="386"/>
      <point x="978" y="386" type="curve" smooth="yes"/>
      <point x="863" y="386" type="line"/>
      <point x="920" y="478" type="line" smooth="yes"/>
      <point x="923" y="484"/>
      <point x="926" y="494"/>
      <point x="926" y="500" type="curve" smooth="yes"/>
      <point x="924" y="581" type="line"/>
      <point x="988" y="652" type="line" smooth="yes"/>
      <point x="1001" y="667"/>
      <point x="1001" y="692"/>
      <point x="987" y="706" type="curve" smooth="yes"/>
      <point x="912" y="787" type="line" smooth="yes"/>
      <point x="908" y="791"/>
      <point x="900" y="796"/>
      <point x="895" y="798" type="curve" smooth="yes"/>
      <point x="784" y="834" type="line" smooth="yes"/>
      <point x="781" y="835"/>
      <point x="776" y="836"/>
      <point x="772" y="836" type="curve" smooth="yes"/>
      <point x="416" y="836" type="line" smooth="yes"/>
      <point x="413" y="836"/>
      <point x="408" y="835"/>
      <point x="405" y="835" type="curve" smooth="yes"/>
      <point x="277" y="799" type="line" smooth="yes"/>
      <point x="250" y="792"/>
      <point x="239" y="764"/>
      <point x="253" y="740" type="curve" smooth="yes"/>
      <point x="281" y="693" type="line"/>
      <point x="192" y="631" type="line"/>
      <point x="66" y="531" type="line" smooth="yes"/>
      <point x="43" y="512"/>
      <point x="45" y="480"/>
      <point x="70" y="465" type="curve" smooth="yes"/>
      <point x="192" y="392" type="line"/>
      <point x="121" y="328" type="line" smooth="yes"/>
      <point x="108" y="315"/>
      <point x="104" y="293"/>
      <point x="114" y="277" type="curve" smooth="yes"/>
      <point x="170" y="186" type="line"/>
      <point x="168" y="97" type="line" smooth="yes"/>
      <point x="168" y="83"/>
      <point x="178" y="67"/>
      <point x="191" y="60" type="curve" smooth="yes"/>
      <point x="242" y="37" type="line" smooth="yes"/>
      <point x="257" y="30"/>
      <point x="278" y="34"/>
      <point x="289" y="47" type="curve" smooth="yes"/>
      <point x="356" y="124" type="line" smooth="yes"/>
      <point x="365" y="134"/>
      <point x="368" y="153"/>
      <point x="363" y="166" type="curve" smooth="yes"/>
      <point x="335" y="228" type="line"/>
      <point x="367" y="277" type="line"/>
      <point x="447" y="306" type="line"/>
      <point x="805" y="306" type="line"/>
      <point x="843" y="247" type="line"/>
      <point x="726" y="149" type="line" smooth="yes"/>
      <point x="716" y="140"/>
      <point x="710" y="122"/>
      <point x="713" y="109" type="curve" smooth="yes"/>
      <point x="727" y="52" type="line"/>
      <point x="686" y="32" type="line" smooth="yes"/>
      <point x="667" y="22"/>
      <point x="659" y="-2"/>
      <point x="668" y="-22" type="curve" smooth="yes"/>
      <point x="678" y="-41"/>
      <point x="702" y="-49"/>
    </contour>
    <contour>
      <point x="250" y="197" type="line" smooth="yes"/>
      <point x="250" y="203"/>
      <point x="247" y="213"/>
      <point x="244" y="218" type="curve" smooth="yes"/>
      <point x="199" y="291" type="line"/>
      <point x="286" y="369" type="line" smooth="yes"/>
      <point x="307" y="388"/>
      <point x="304" y="418"/>
      <point x="280" y="433" type="curve" smooth="yes"/>
      <point x="161" y="504" type="line"/>
      <point x="242" y="569" type="line"/>
      <point x="357" y="649" type="line" smooth="yes"/>
      <point x="373" y="660"/>
      <point x="379" y="684"/>
      <point x="368" y="702" type="curve" smooth="yes"/>
      <point x="348" y="736" type="line"/>
      <point x="421" y="756" type="line"/>
      <point x="766" y="756" type="line"/>
      <point x="860" y="725" type="line"/>
      <point x="904" y="678" type="line"/>
      <point x="854" y="623" type="line" smooth="yes"/>
      <point x="848" y="616"/>
      <point x="844" y="604"/>
      <point x="844" y="595" type="curve" smooth="yes"/>
      <point x="846" y="510" type="line"/>
      <point x="774" y="395" type="line" smooth="yes"/>
      <point x="772" y="392"/>
      <point x="771" y="389"/>
      <point x="770" y="386" type="curve"/>
      <point x="440" y="386" type="line" smooth="yes"/>
      <point x="436" y="386"/>
      <point x="430" y="385"/>
      <point x="427" y="384" type="curve" smooth="yes"/>
      <point x="327" y="348" type="line" smooth="yes"/>
      <point x="320" y="346"/>
      <point x="311" y="339"/>
      <point x="307" y="332" type="curve" smooth="yes"/>
      <point x="256" y="253" type="line" smooth="yes"/>
      <point x="249" y="243"/>
      <point x="248" y="226"/>
      <point x="253" y="215" type="curve" smooth="yes"/>
      <point x="279" y="157" type="line"/>
      <point x="249" y="122" type="line"/>
    </contour>
  </outline>
</glyph>
<glyph name="B" format="1">
  <advance width="1044"/>
  <unicode hex="0042"/>
  <outline>
    <contour>
      <point x="579" y="-36" type="curve" smooth="yes"/>
      <point x="587" y="-36" type="line"/>
      <point x="815" y="-29" type="line" smooth="yes"/>
      <point x="825" y="-29"/>
      <point x="838" y="-22"/>
      <point x="844" y="-15" type="curve" smooth="yes"/>
      <point x="887" y="37" type="line" smooth="yes"/>
      <point x="887" y="38"/>
      <point x="888" y="39"/>
      <point x="889" y="40" type="curve" smooth="yes"/>
      <point x="987" y="181" type="line" smooth="yes"/>
      <point x="1000" y="200"/>
      <point x="995" y="226"/>
      <point x="975" y="238" type="curve" smooth="yes"/>
      <point x="889" y="291" type="line"/>
      <point x="946" y="337" type="line" smooth="yes"/>
      <point x="977" y="360"/>
      <point x="965" y="403"/>
      <point x="927" y="408" type="curve" smooth="yes"/>
      <point x="714" y="436" type="line"/>
      <point x="715" y="436"/>
      <point x="715" y="437"/>
      <point x="716" y="437" type="curve" smooth="yes"/>
      <point x="844" y="579" type="line" smooth="yes"/>
      <point x="858" y="596"/>
      <point x="857" y="621"/>
      <point x="841" y="635" type="curve" smooth="yes"/>
      <point x="753" y="716" type="line"/>
      <point x="695" y="793" type="line" smooth="yes"/>
      <point x="690" y="799"/>
      <point x="681" y="805"/>
      <point x="673" y="807" type="curve" smooth="yes"/>
      <point x="538" y="843" type="line" smooth="yes"/>
      <point x="535" y="843"/>
      <point x="531" y="844"/>
      <point x="528" y="844" type="curve" smooth="yes"/>
      <point x="397" y="844" type="line" smooth="yes"/>
      <point x="393" y="844"/>
      <point x="387" y="843"/>
      <point x="384" y="842" type="curve" smooth="yes"/>
      <point x="283" y="806" type="line" smooth="yes"/>
      <point x="262" y="799"/>
      <point x="251" y="776"/>
      <point x="259" y="755" type="curve" smooth="yes"/>
      <point x="276" y="707" type="line"/>
      <point x="172" y="642" type="line" smooth="yes"/>
      <point x="146" y="626"/>
      <point x="145" y="593"/>
      <point x="170" y="575" type="curve" smooth="yes"/>
      <point x="256" y="516" type="line"/>
      <point x="76" y="442" type="line" smooth="yes"/>
      <point x="47" y="430"/>
      <point x="41" y="398"/>
      <point x="63" y="376" type="curve" smooth="yes"/>
      <point x="170" y="274" type="line" smooth="yes"/>
      <point x="172" y="273"/>
      <point x="174" y="272"/>
      <point x="175" y="271" type="curve" smooth="yes"/>
      <point x="271" y="203" type="line"/>
      <point x="103" y="94" type="line" smooth="yes"/>
      <point x="73" y="75"/>
      <point x="76" y="37"/>
      <point x="108" y="24" type="curve" smooth="yes"/>
      <point x="225" y="-27" type="line" smooth="yes"/>
      <point x="229" y="-28"/>
      <point x="236" y="-30"/>
      <point x="240" y="-30" type="curve" smooth="yes"/>
      <point x="578" y="-36" type="line" smooth="yes"/>
      <point x="578" y="-36"/>
      <point x="579" y="-36"/>
    </contour>
    <contour>
      <point x="355" y="469" type="line" smooth="yes"/>
      <point x="387" y="483"/>
      <point x="391" y="520"/>
      <point x="363" y="539" type="curve" smooth="yes"/>
      <point x="266" y="606" type="line"/>
      <point x="345" y="656" type="line" smooth="yes"/>
      <point x="360" y="665"/>
      <point x="368" y="687"/>
      <point x="362" y="703" type="curve" smooth="yes"/>
      <point x="347" y="744" type="line"/>
      <point x="404" y="764" type="line"/>
      <point x="523" y="764" type="line"/>
      <point x="640" y="733" type="line"/>
      <point x="692" y="665" type="line" smooth="yes"/>
      <point x="693" y="663"/>
      <point x="695" y="661"/>
      <point x="696" y="659" type="curve" smooth="yes"/>
      <point x="758" y="603" type="line"/>
      <point x="660" y="495" type="line"/>
      <point x="582" y="450" type="line"/>
      <point x="542" y="444" type="line"/>
      <point x="293" y="444" type="line"/>
    </contour>
    <contour>
      <point x="587" y="44" type="line"/>
      <point x="579" y="44" type="line"/>
      <point x="250" y="50" type="line"/>
      <point x="209" y="68" type="line"/>
      <point x="365" y="168" type="line" smooth="yes"/>
      <point x="390" y="185"/>
      <point x="391" y="217"/>
      <point x="366" y="235" type="curve" smooth="yes"/>
      <point x="223" y="335" type="line"/>
      <point x="192" y="364" type="line"/>
      <point x="647" y="364" type="line"/>
      <point x="823" y="341" type="line"/>
      <point x="795" y="319" type="line" smooth="yes"/>
      <point x="772" y="300"/>
      <point x="774" y="269"/>
      <point x="799" y="253" type="curve" smooth="yes"/>
      <point x="897" y="192" type="line"/>
      <point x="824" y="87" type="line"/>
      <point x="794" y="50" type="line"/>
    </contour>
  </outline>
</glyph>
<glyph name="C" format="1">
  <advance width="816"/>
  <unicode hex="0043"/>
  <outline>
    <contour>
      <point x="327" y="-42" type="curve" smooth="yes"/>
      <point x="410" y="-42" type="line"/>
      <point x="511" y="-35" type="line" smooth="yes"/>
      <point x="513" y="-35"/>
      <point x="516" y="-34"/>
      <point x="518" y="-34" type="curve" smooth="yes"/>
      <point x="735" y="17" type="line" smooth="yes"/>
      <point x="759" y="23"/>
      <point x="772" y="46"/>
      <point x="764" y="69" type="curve" smooth="yes"/>
      <point x="716" y="211" type="line" smooth="yes"/>
      <point x="709" y="231"/>
      <point x="686" y="243"/>
      <point x="665" y="236" type="curve" smooth="yes"/>
      <point x="645" y="229"/>
      <point x="633" y="206"/>
      <point x="640" y="185" type="curve" smooth="yes"/>
      <point x="674" y="85" type="line"/>
      <point x="502" y="45" type="line"/>
      <point x="410" y="38" type="line"/>
      <point x="351" y="38" type="line"/>
      <point x="331" y="74" type="line" smooth="yes"/>
      <point x="330" y="76"/>
      <point x="327" y="80"/>
      <point x="325" y="82" type="curve" smooth="yes"/>
      <point x="212" y="198" type="line"/>
      <point x="272" y="272" type="line" smooth="yes"/>
      <point x="276" y="277"/>
      <point x="279" y="284"/>
      <point x="280" y="290" type="curve" smooth="yes"/>
      <point x="300" y="391" type="line" smooth="yes"/>
      <point x="303" y="407"/>
      <point x="295" y="425"/>
      <point x="282" y="433" type="curve" smooth="yes"/>
      <point x="162" y="505" type="line"/>
      <point x="246" y="570" type="line" smooth="yes"/>
      <point x="249" y="573"/>
      <point x="254" y="579"/>
      <point x="256" y="583" type="curve" smooth="yes"/>
      <point x="301" y="665" type="line" smooth="yes"/>
      <point x="306" y="674"/>
      <point x="307" y="689"/>
      <point x="303" y="699" type="curve" smooth="yes"/>
      <point x="288" y="736" type="line"/>
      <point x="367" y="758" type="line"/>
      <point x="481" y="758" type="line"/>
      <point x="595" y="737" type="line"/>
      <point x="567" y="710" type="line" smooth="yes"/>
      <point x="548" y="692"/>
      <point x="550" y="664"/>
      <point x="572" y="649" type="curve" smooth="yes"/>
      <point x="691" y="565" type="line" smooth="yes"/>
      <point x="709" y="553"/>
      <point x="734" y="557"/>
      <point x="747" y="575" type="curve" smooth="yes"/>
      <point x="759" y="593"/>
      <point x="755" y="618"/>
      <point x="737" y="631" type="curve" smooth="yes"/>
      <point x="658" y="686" type="line"/>
      <point x="707" y="733" type="line" smooth="yes"/>
      <point x="732" y="757"/>
      <point x="721" y="795"/>
      <point x="686" y="801" type="curve" smooth="yes"/>
      <point x="521" y="832" type="line"/>
      <point x="521" y="838" type="line"/>
      <point x="362" y="838" type="line" smooth="yes"/>
      <point x="359" y="838"/>
      <point x="354" y="837"/>
      <point x="351" y="837" type="curve" smooth="yes"/>
      <point x="223" y="801" type="line" smooth="yes"/>
      <point x="199" y="795"/>
      <point x="187" y="770"/>
      <point x="197" y="747" type="curve" smooth="yes"/>
      <point x="222" y="686" type="line"/>
      <point x="190" y="628" type="line"/>
      <point x="66" y="532" type="line" smooth="yes"/>
      <point x="43" y="513"/>
      <point x="45" y="482"/>
      <point x="70" y="466" type="curve" smooth="yes"/>
      <point x="216" y="379" type="line"/>
      <point x="204" y="315" type="line"/>
      <point x="128" y="221" type="line" smooth="yes"/>
      <point x="116" y="206"/>
      <point x="117" y="182"/>
      <point x="130" y="168" type="curve" smooth="yes"/>
      <point x="264" y="31" type="line"/>
      <point x="292" y="-21" type="line" smooth="yes"/>
      <point x="298" y="-33"/>
      <point x="314" y="-42"/>
    </contour>
  </outline>
</glyph>
<glyph name="D" format="1">
  <advance width="1031"/>
  <unicode hex="0044"/>
  <outline>
    <contour>
      <point x="255" y="-41" type="curve" smooth="yes"/>
      <point x="691" y="-41" type="line" smooth="yes"/>
      <point x="731" y="-41"/>
      <point x="747" y="2"/>
      <point x="718" y="29" type="curve" smooth="yes"/>
      <point x="696" y="49" type="line"/>
      <point x="914" y="164" type="line" smooth="yes"/>
      <point x="929" y="172"/>
      <point x="938" y="192"/>
      <point x="934" y="208" type="curve" smooth="yes"/>
      <point x="910" y="308" type="line" smooth="yes"/>
      <point x="908" y="318"/>
      <point x="899" y="329"/>
      <point x="891" y="334" type="curve" smooth="yes"/>
      <point x="785" y="393" type="line"/>
      <point x="953" y="462" type="line" smooth="yes"/>
      <point x="973" y="470"/>
      <point x="983" y="494"/>
      <point x="975" y="514" type="curve" smooth="yes"/>
      <point x="967" y="534"/>
      <point x="943" y="544"/>
      <point x="923" y="536" type="curve" smooth="yes"/>
      <point x="678" y="436" type="line" smooth="yes"/>
      <point x="644" y="422"/>
      <point x="642" y="382"/>
      <point x="673" y="364" type="curve" smooth="yes"/>
      <point x="836" y="273" type="line"/>
      <point x="849" y="220" type="line"/>
      <point x="608" y="93" type="line" smooth="yes"/>
      <point x="587" y="81"/>
      <point x="580" y="58"/>
      <point x="591" y="39" type="curve"/>
      <point x="268" y="39" type="line"/>
      <point x="182" y="104" type="line"/>
      <point x="249" y="171" type="line" smooth="yes"/>
      <point x="266" y="188"/>
      <point x="264" y="215"/>
      <point x="245" y="230" type="curve" smooth="yes"/>
      <point x="135" y="319" type="line"/>
      <point x="132" y="374" type="line"/>
      <point x="327" y="463" type="line" smooth="yes"/>
      <point x="355" y="476"/>
      <point x="360" y="509"/>
      <point x="336" y="530" type="curve" smooth="yes"/>
      <point x="258" y="595" type="line"/>
      <point x="364" y="666" type="line" smooth="yes"/>
      <point x="392" y="684"/>
      <point x="390" y="720"/>
      <point x="360" y="735" type="curve" smooth="yes"/>
      <point x="312" y="759" type="line"/>
      <point x="559" y="759" type="line"/>
      <point x="722" y="729" type="line"/>
      <point x="727" y="679" type="line" smooth="yes"/>
      <point x="728" y="666"/>
      <point x="738" y="652"/>
      <point x="749" y="646" type="curve" smooth="yes"/>
      <point x="924" y="563" type="line" smooth="yes"/>
      <point x="943" y="554"/>
      <point x="968" y="562"/>
      <point x="977" y="582" type="curve" smooth="yes"/>
      <point x="986" y="601"/>
      <point x="978" y="626"/>
      <point x="958" y="635" type="curve" smooth="yes"/>
      <point x="804" y="709" type="line"/>
      <point x="799" y="767" type="line" smooth="yes"/>
      <point x="797" y="783"/>
      <point x="783" y="799"/>
      <point x="766" y="802" type="curve" smooth="yes"/>
      <point x="570" y="838" type="line" smooth="yes"/>
      <point x="568" y="839"/>
      <point x="565" y="839"/>
      <point x="563" y="839" type="curve" smooth="yes"/>
      <point x="141" y="839" type="line"/>
      <point x="141" y="760" type="line"/>
      <point x="127" y="763" type="line"/>
      <point x="263" y="694" type="line"/>
      <point x="170" y="632" type="line" smooth="yes"/>
      <point x="146" y="617"/>
      <point x="145" y="587"/>
      <point x="166" y="568" type="curve" smooth="yes"/>
      <point x="236" y="509" type="line"/>
      <point x="73" y="435" type="line" smooth="yes"/>
      <point x="60" y="429"/>
      <point x="49" y="412"/>
      <point x="50" y="397" type="curve" smooth="yes"/>
      <point x="56" y="297" type="line" smooth="yes"/>
      <point x="57" y="287"/>
      <point x="63" y="274"/>
      <point x="71" y="268" type="curve" smooth="yes"/>
      <point x="161" y="196" type="line"/>
      <point x="93" y="127" type="line" smooth="yes"/>
      <point x="76" y="109"/>
      <point x="78" y="82"/>
      <point x="98" y="67" type="curve" smooth="yes"/>
      <point x="231" y="-33" type="line" smooth="yes"/>
      <point x="237" y="-37"/>
      <point x="248" y="-41"/>
    </contour>
  </outline>
</glyph>
<glyph name="E" format="1">
  <advance width="922"/>
  <unicode hex="0045"/>
  <outline>
    <contour>
      <point x="587" y="-40" type="line"/>
      <point x="587" y="-23" type="line"/>
      <point x="776" y="-5" type="line" smooth="yes"/>
      <point x="808" y="-2"/>
      <point x="823" y="28"/>
      <point x="807" y="55" type="curve" smooth="yes"/>
      <point x="766" y="126" type="line"/>
      <point x="763" y="198" type="line" smooth="yes"/>
      <point x="762" y="219"/>
      <point x="743" y="237"/>
      <point x="721" y="236" type="curve" smooth="yes"/>
      <point x="700" y="235"/>
      <point x="682" y="216"/>
      <point x="683" y="194" type="curve" smooth="yes"/>
      <point x="687" y="112" type="line" smooth="yes"/>
      <point x="687" y="107"/>
      <point x="689" y="99"/>
      <point x="692" y="94" type="curve" smooth="yes"/>
      <point x="707" y="69" type="line"/>
      <point x="402" y="40" type="line"/>
      <point x="216" y="40" type="line"/>
      <point x="186" y="65" type="line"/>
      <point x="258" y="176" type="line" smooth="yes"/>
      <point x="268" y="192"/>
      <point x="265" y="214"/>
      <point x="252" y="227" type="curve" smooth="yes"/>
      <point x="130" y="342" type="line"/>
      <point x="130" y="345" type="line"/>
      <point x="296" y="357" type="line"/>
      <point x="352" y="359" type="line"/>
      <point x="685" y="360" type="line" smooth="yes"/>
      <point x="738" y="360"/>
      <point x="738" y="440"/>
      <point x="685" y="440" type="curve" smooth="yes"/>
      <point x="511" y="441" type="line"/>
      <point x="377" y="442" type="line"/>
      <point x="177" y="452" type="line"/>
      <point x="180" y="458"/>
      <point x="183" y="466"/>
      <point x="183" y="473" type="curve" smooth="yes"/>
      <point x="180" y="596" type="line"/>
      <point x="183" y="680" type="line" smooth="yes"/>
      <point x="183" y="684"/>
      <point x="183" y="690"/>
      <point x="182" y="693" type="curve" smooth="yes"/>
      <point x="170" y="730" type="line"/>
      <point x="377" y="760" type="line"/>
      <point x="507" y="760" type="line"/>
      <point x="577" y="709" type="line"/>
      <point x="811" y="568" type="line" smooth="yes"/>
      <point x="830" y="557"/>
      <point x="855" y="563"/>
      <point x="866" y="581" type="curve" smooth="yes"/>
      <point x="877" y="600"/>
      <point x="871" y="625"/>
      <point x="853" y="636" type="curve" smooth="yes"/>
      <point x="619" y="778" type="line"/>
      <point x="543" y="832" type="line" smooth="yes"/>
      <point x="538" y="837"/>
      <point x="527" y="840"/>
      <point x="520" y="840" type="curve" smooth="yes"/>
      <point x="374" y="840" type="line" smooth="yes"/>
      <point x="372" y="840"/>
      <point x="370" y="840"/>
      <point x="368" y="840" type="curve" smooth="yes"/>
      <point x="113" y="803" type="line" smooth="yes"/>
      <point x="88" y="799"/>
      <point x="73" y="776"/>
      <point x="80" y="752" type="curve" smooth="yes"/>
      <point x="103" y="676" type="line"/>
      <point x="100" y="600" type="line"/>
      <point x="102" y="487" type="line"/>
      <point x="63" y="443" type="line" smooth="yes"/>
      <point x="51" y="429"/>
      <point x="49" y="412"/>
      <point x="55" y="400" type="curve"/>
      <point x="52" y="394"/>
      <point x="50" y="388"/>
      <point x="50" y="382" type="curve" smooth="yes"/>
      <point x="50" y="325" type="line" smooth="yes"/>
      <point x="50" y="315"/>
      <point x="56" y="302"/>
      <point x="63" y="296" type="curve" smooth="yes"/>
      <point x="172" y="192" type="line"/>
      <point x="99" y="78" type="line" smooth="yes"/>
      <point x="89" y="62"/>
      <point x="92" y="38"/>
      <point x="108" y="25" type="curve" smooth="yes"/>
      <point x="177" y="-31" type="line" smooth="yes"/>
      <point x="183" y="-36"/>
      <point x="194" y="-40"/>
      <point x="202" y="-40" type="curve" smooth="yes"/>
    </contour>
  </outline>
</glyph>
<glyph name="F" format="1">
  <advance width="929"/>
  <unicode hex="0046"/>
  <outline>
    <contour>
      <point x="273" y="-30" type="curve" smooth="yes"/>
      <point x="289" y="-15"/>
      <point x="290" y="11"/>
      <point x="276" y="27" type="curve" smooth="yes"/>
      <point x="191" y="121" type="line"/>
      <point x="162" y="187" type="line"/>
      <point x="288" y="293" type="line" smooth="yes"/>
      <point x="299" y="302"/>
      <point x="305" y="320"/>
      <point x="301" y="334" type="curve" smooth="yes"/>
      <point x="295" y="358" type="line"/>
      <point x="434" y="359" type="line"/>
      <point x="543" y="360" type="line" smooth="yes"/>
      <point x="596" y="361"/>
      <point x="596" y="440"/>
      <point x="543" y="440" type="curve" smooth="yes"/>
      <point x="316" y="441" type="line"/>
      <point x="264" y="450" type="line"/>
      <point x="267" y="465" type="line" smooth="yes"/>
      <point x="269" y="473"/>
      <point x="267" y="485"/>
      <point x="263" y="492" type="curve" smooth="yes"/>
      <point x="203" y="597" type="line"/>
      <point x="244" y="660" type="line" smooth="yes"/>
      <point x="255" y="678"/>
      <point x="251" y="702"/>
      <point x="233" y="714" type="curve" smooth="yes"/>
      <point x="204" y="734" type="line"/>
      <point x="463" y="760" type="line"/>
      <point x="468" y="760" type="line"/>
      <point x="648" y="756" type="line"/>
      <point x="644" y="742"/>
      <point x="647" y="725"/>
      <point x="659" y="714" type="curve" smooth="yes"/>
      <point x="812" y="573" type="line" smooth="yes"/>
      <point x="828" y="558"/>
      <point x="854" y="559"/>
      <point x="868" y="575" type="curve" smooth="yes"/>
      <point x="883" y="591"/>
      <point x="882" y="617"/>
      <point x="866" y="631" type="curve" smooth="yes"/>
      <point x="741" y="747" type="line"/>
      <point x="758" y="768" type="line" smooth="yes"/>
      <point x="781" y="796"/>
      <point x="765" y="833"/>
      <point x="728" y="834" type="curve" smooth="yes"/>
      <point x="470" y="840" type="line"/>
      <point x="461" y="840" type="line" smooth="yes"/>
      <point x="460" y="840"/>
      <point x="458" y="840"/>
      <point x="457" y="840" type="curve" smooth="yes"/>
      <point x="88" y="803" type="line" smooth="yes"/>
      <point x="48" y="799"/>
      <point x="36" y="753"/>
      <point x="70" y="730" type="curve" smooth="yes"/>
      <point x="156" y="671" type="line"/>
      <point x="122" y="620" type="line" smooth="yes"/>
      <point x="115" y="608"/>
      <point x="115" y="590"/>
      <point x="121" y="578" type="curve" smooth="yes"/>
      <point x="186" y="466" type="line"/>
      <point x="178" y="425" type="line" smooth="yes"/>
      <point x="173" y="404"/>
      <point x="186" y="383"/>
      <point x="207" y="378" type="curve"/>
      <point x="218" y="338" type="line"/>
      <point x="87" y="229" type="line" smooth="yes"/>
      <point x="75" y="218"/>
      <point x="70" y="197"/>
      <point x="76" y="182" type="curve" smooth="yes"/>
      <point x="120" y="83" type="line" smooth="yes"/>
      <point x="121" y="80"/>
      <point x="124" y="75"/>
      <point x="127" y="72" type="curve" smooth="yes"/>
      <point x="216" y="-27" type="line" smooth="yes"/>
      <point x="231" y="-43"/>
      <point x="257" y="-44"/>
    </contour>
  </outline>
</glyph>
<glyph name="G" format="1">
  <advance width="1031"/>
  <unicode hex="0047"/>
  <outline>
    <contour>
      <point x="713" y="-36" type="line" smooth="yes"/>
      <point x="718" y="-36"/>
      <point x="725" y="-34"/>
      <point x="730" y="-32" type="curve" smooth="yes"/>
      <point x="808" y="4" type="line" smooth="yes"/>
      <point x="834" y="15"/>
      <point x="840" y="44"/>
      <point x="822" y="66" type="curve" smooth="yes"/>
      <point x="771" y="127" type="line"/>
      <point x="799" y="188" type="line" smooth="yes"/>
      <point x="804" y="201"/>
      <point x="801" y="220"/>
      <point x="792" y="231" type="curve" smooth="yes"/>
      <point x="740" y="287" type="line"/>
      <point x="948" y="367" type="line" smooth="yes"/>
      <point x="992" y="383"/>
      <point x="981" y="444"/>
      <point x="934" y="444" type="curve" smooth="yes"/>
      <point x="734" y="444" type="line"/>
      <point x="541" y="478" type="line"/>
      <point x="420" y="542" type="line"/>
      <point x="430" y="596" type="line" smooth="yes"/>
      <point x="434" y="618"/>
      <point x="420" y="639"/>
      <point x="399" y="643" type="curve" smooth="yes"/>
      <point x="377" y="647"/>
      <point x="356" y="633"/>
      <point x="352" y="612" type="curve" smooth="yes"/>
      <point x="336" y="528" type="line" smooth="yes"/>
      <point x="333" y="512"/>
      <point x="342" y="493"/>
      <point x="356" y="485" type="curve" smooth="yes"/>
      <point x="510" y="405" type="line" smooth="yes"/>
      <point x="513" y="403"/>
      <point x="518" y="401"/>
      <point x="521" y="401" type="curve" smooth="yes"/>
      <point x="720" y="365" type="line"/>
      <point x="657" y="341" type="line" smooth="yes"/>
      <point x="629" y="331"/>
      <point x="621" y="299"/>
      <point x="641" y="277" type="curve" smooth="yes"/>
      <point x="715" y="196" type="line"/>
      <point x="688" y="137" type="line" smooth="yes"/>
      <point x="683" y="124"/>
      <point x="685" y="106"/>
      <point x="694" y="95" type="curve" smooth="yes"/>
      <point x="727" y="55" type="line"/>
      <point x="704" y="44" type="line"/>
      <point x="419" y="44" type="line"/>
      <point x="273" y="64" type="line"/>
      <point x="309" y="86" type="line" smooth="yes"/>
      <point x="323" y="95"/>
      <point x="331" y="113"/>
      <point x="328" y="129" type="curve" smooth="yes"/>
      <point x="310" y="212" type="line" smooth="yes"/>
      <point x="308" y="222"/>
      <point x="300" y="233"/>
      <point x="292" y="238" type="curve" smooth="yes"/>
      <point x="157" y="321" type="line"/>
      <point x="182" y="385" type="line"/>
      <point x="251" y="481" type="line" smooth="yes"/>
      <point x="264" y="498"/>
      <point x="260" y="523"/>
      <point x="244" y="536" type="curve" smooth="yes"/>
      <point x="131" y="622" type="line"/>
      <point x="135" y="663" type="line"/>
      <point x="247" y="729" type="line"/>
      <point x="486" y="760" type="line"/>
      <point x="735" y="735" type="line"/>
      <point x="718" y="711" type="line" smooth="yes"/>
      <point x="701" y="690"/>
      <point x="709" y="662"/>
      <point x="734" y="651" type="curve" smooth="yes"/>
      <point x="925" y="567" type="line" smooth="yes"/>
      <point x="945" y="559"/>
      <point x="969" y="568"/>
      <point x="978" y="588" type="curve" smooth="yes"/>
      <point x="986" y="608"/>
      <point x="977" y="632"/>
      <point x="957" y="641" type="curve" smooth="yes"/>
      <point x="812" y="704" type="line"/>
      <point x="842" y="744" type="line" smooth="yes"/>
      <point x="862" y="771"/>
      <point x="848" y="804"/>
      <point x="814" y="808" type="curve" smooth="yes"/>
      <point x="535" y="836" type="line"/>
      <point x="529" y="841"/>
      <point x="520" y="844"/>
      <point x="510" y="844" type="curve" smooth="yes"/>
      <point x="453" y="844" type="line" smooth="yes"/>
      <point x="441" y="844"/>
      <point x="431" y="840"/>
      <point x="424" y="833" type="curve"/>
      <point x="228" y="807" type="line" smooth="yes"/>
      <point x="224" y="807"/>
      <point x="217" y="804"/>
      <point x="213" y="802" type="curve" smooth="yes"/>
      <point x="76" y="721" type="line" smooth="yes"/>
      <point x="66" y="716"/>
      <point x="57" y="701"/>
      <point x="56" y="690" type="curve" smooth="yes"/>
      <point x="50" y="607" type="line" smooth="yes"/>
      <point x="49" y="595"/>
      <point x="56" y="580"/>
      <point x="65" y="572" type="curve" smooth="yes"/>
      <point x="164" y="496" type="line"/>
      <point x="115" y="427" type="line" smooth="yes"/>
      <point x="113" y="425"/>
      <point x="111" y="421"/>
      <point x="110" y="419" type="curve" smooth="yes"/>
      <point x="71" y="319" type="line" smooth="yes"/>
      <point x="64" y="301"/>
      <point x="71" y="280"/>
      <point x="87" y="270" type="curve" smooth="yes"/>
      <point x="235" y="179" type="line"/>
      <point x="244" y="140" type="line"/>
      <point x="135" y="74" type="line" smooth="yes"/>
      <point x="100" y="53"/>
      <point x="110" y="6"/>
      <point x="150" y="0" type="curve" smooth="yes"/>
      <point x="411" y="-36" type="line" smooth="yes"/>
      <point x="412" y="-36"/>
      <point x="414" y="-36"/>
      <point x="416" y="-36" type="curve" smooth="yes"/>
    </contour>
  </outline>
</glyph>
<glyph name="H" format="1">
  <advance width="930"/>
  <unicode hex="0048"/>
  <outline>
    <contour>
      <point x="877" y="-22" type="curve" smooth="yes"/>
      <point x="886" y="-3"/>
      <point x="878" y="22"/>
      <point x="859" y="32" type="curve" smooth="yes"/>
      <point x="708" y="109" type="line"/>
      <point x="756" y="171" type="line" smooth="yes"/>
      <point x="768" y="186"/>
      <point x="767" y="209"/>
      <point x="755" y="222" type="curve" smooth="yes"/>
      <point x="701" y="284" type="line"/>
      <point x="847" y="361" type="line" smooth="yes"/>
      <point x="867" y="371"/>
      <point x="875" y="395"/>
      <point x="864" y="415" type="curve" smooth="yes"/>
      <point x="811" y="515" type="line" smooth="yes"/>
      <point x="808" y="521"/>
      <point x="801" y="528"/>
      <point x="795" y="531" type="curve" smooth="yes"/>
      <point x="782" y="538" type="line"/>
      <point x="825" y="561" type="line" smooth="yes"/>
      <point x="850" y="574"/>
      <point x="855" y="604"/>
      <point x="834" y="624" type="curve" smooth="yes"/>
      <point x="795" y="664" type="line"/>
      <point x="828" y="687"/>
      <point x="813" y="736"/>
      <point x="771" y="736" type="curve" smooth="yes"/>
      <point x="707" y="736" type="line" smooth="yes"/>
      <point x="674" y="736"/>
      <point x="657" y="708"/>
      <point x="668" y="683" type="curve"/>
      <point x="576" y="631" type="line" smooth="yes"/>
      <point x="547" y="614"/>
      <point x="547" y="577"/>
      <point x="577" y="561" type="curve" smooth="yes"/>
      <point x="617" y="539" type="line"/>
      <point x="601" y="522"/>
      <point x="602" y="497"/>
      <point x="623" y="481" type="curve" smooth="yes"/>
      <point x="647" y="462" type="line"/>
      <point x="383" y="436" type="line"/>
      <point x="245" y="436" type="line" smooth="yes"/>
      <point x="233" y="436"/>
      <point x="223" y="432"/>
      <point x="215" y="425" type="curve"/>
      <point x="138" y="504" type="line"/>
      <point x="171" y="580" type="line" smooth="yes"/>
      <point x="173" y="583"/>
      <point x="175" y="589"/>
      <point x="175" y="593" type="curve" smooth="yes"/>
      <point x="181" y="681" type="line"/>
      <point x="252" y="771" type="line" smooth="yes"/>
      <point x="265" y="788"/>
      <point x="262" y="814"/>
      <point x="245" y="828" type="curve" smooth="yes"/>
      <point x="228" y="841"/>
      <point x="202" y="838"/>
      <point x="188" y="821" type="curve" smooth="yes"/>
      <point x="110" y="721" type="line" smooth="yes"/>
      <point x="106" y="715"/>
      <point x="103" y="706"/>
      <point x="102" y="699" type="curve" smooth="yes"/>
      <point x="96" y="606" type="line"/>
      <point x="54" y="512" type="line" smooth="yes"/>
      <point x="47" y="499"/>
      <point x="51" y="479"/>
      <point x="61" y="468" type="curve" smooth="yes"/>
      <point x="136" y="392" type="line"/>
      <point x="85" y="319" type="line" smooth="yes"/>
      <point x="78" y="308"/>
      <point x="76" y="290"/>
      <point x="82" y="278" type="curve" smooth="yes"/>
      <point x="121" y="199" type="line"/>
      <point x="120" y="189"/>
      <point x="126" y="174"/>
      <point x="134" y="166" type="curve" smooth="yes"/>
      <point x="149" y="153" type="line"/>
      <point x="208" y="72" type="line" smooth="yes"/>
      <point x="214" y="63"/>
      <point x="229" y="56"/>
      <point x="240" y="56" type="curve" smooth="yes"/>
      <point x="273" y="56" type="line" smooth="yes"/>
      <point x="312" y="56"/>
      <point x="329" y="99"/>
      <point x="299" y="126" type="curve" smooth="yes"/>
      <point x="208" y="207" type="line"/>
      <point x="203" y="214" type="line"/>
      <point x="208" y="253" type="line"/>
      <point x="341" y="324" type="line" smooth="yes"/>
      <point x="355" y="332"/>
      <point x="363" y="343"/>
      <point x="364" y="356" type="curve"/>
      <point x="467" y="356" type="line"/>
      <point x="467" y="364" type="line"/>
      <point x="731" y="390" type="line"/>
      <point x="619" y="331" type="line" smooth="yes"/>
      <point x="594" y="319"/>
      <point x="589" y="290"/>
      <point x="607" y="270" type="curve" smooth="yes"/>
      <point x="673" y="195" type="line"/>
      <point x="615" y="121" type="line" smooth="yes"/>
      <point x="598" y="100"/>
      <point x="604" y="72"/>
      <point x="628" y="60" type="curve" smooth="yes"/>
      <point x="823" y="-40" type="line" smooth="yes"/>
      <point x="842" y="-49"/>
      <point x="867" y="-41"/>
    </contour>
    <contour>
      <point x="699" y="585" type="line"/>
      <point x="677" y="596" type="line"/>
      <point x="723" y="623" type="line"/>
      <point x="739" y="606" type="line"/>
    </contour>
    <contour>
      <point x="228" y="360" type="curve" smooth="yes"/>
      <point x="233" y="357" type="line"/>
      <point x="196" y="338" type="line"/>
      <point x="217" y="367" type="line"/>
      <point x="220" y="364"/>
      <point x="224" y="362"/>
    </contour>
  </outline>
</glyph>
<glyph name="I" format="1">
  <advance width="984"/>
  <unicode hex="0049"/>
  <outline>
    <contour>
      <point x="246" y="-41" type="curve" smooth="yes"/>
      <point x="893" y="-41" type="line" smooth="yes"/>
      <point x="945" y="-41"/>
      <point x="948" y="34"/>
      <point x="897" y="39" type="curve" smooth="yes"/>
      <point x="810" y="47" type="line"/>
      <point x="729" y="54" type="line"/>
      <point x="545" y="93" type="line"/>
      <point x="520" y="206" type="line" smooth="yes"/>
      <point x="519" y="210"/>
      <point x="517" y="216"/>
      <point x="515" y="219" type="curve" smooth="yes"/>
      <point x="454" y="319" type="line" smooth="yes"/>
      <point x="454" y="320"/>
      <point x="453" y="322"/>
      <point x="452" y="323" type="curve" smooth="yes"/>
      <point x="381" y="416" type="line"/>
      <point x="366" y="477" type="line"/>
      <point x="553" y="564" type="line" smooth="yes"/>
      <point x="566" y="570"/>
      <point x="577" y="587"/>
      <point x="576" y="602" type="curve" smooth="yes"/>
      <point x="571" y="740" type="line" smooth="yes"/>
      <point x="570" y="747"/>
      <point x="568" y="753"/>
      <point x="565" y="759" type="curve"/>
      <point x="732" y="759" type="line"/>
      <point x="732" y="839" type="line"/>
      <point x="90" y="839" type="line" smooth="yes"/>
      <point x="37" y="839"/>
      <point x="36" y="760"/>
      <point x="89" y="759" type="curve" smooth="yes"/>
      <point x="232" y="755" type="line"/>
      <point x="237" y="751"/>
      <point x="244" y="747"/>
      <point x="253" y="746" type="curve" smooth="yes"/>
      <point x="492" y="705" type="line"/>
      <point x="495" y="625" type="line"/>
      <point x="303" y="536" type="line" smooth="yes"/>
      <point x="287" y="528"/>
      <point x="277" y="508"/>
      <point x="281" y="490" type="curve" smooth="yes"/>
      <point x="305" y="390" type="line" smooth="yes"/>
      <point x="306" y="385"/>
      <point x="309" y="379"/>
      <point x="312" y="375" type="curve" smooth="yes"/>
      <point x="387" y="276" type="line"/>
      <point x="443" y="183" type="line"/>
      <point x="472" y="51" type="line" smooth="yes"/>
      <point x="473" y="47"/>
      <point x="475" y="43"/>
      <point x="477" y="39" type="curve"/>
      <point x="246" y="39" type="line" smooth="yes"/>
      <point x="224" y="39"/>
      <point x="206" y="21"/>
      <point x="206" y="-1" type="curve" smooth="yes"/>
      <point x="206" y="-23"/>
      <point x="224" y="-41"/>
    </contour>
  </outline>
</glyph>
<glyph name="J" format="1">
  <advance width="669"/>
  <unicode hex="004A"/>
  <outline>
    <contour>
      <point x="142" y="-41" type="curve" smooth="yes"/>
      <point x="221" y="-41" type="line" smooth="yes"/>
      <point x="224" y="-41"/>
      <point x="228" y="-41"/>
      <point x="230" y="-40" type="curve" smooth="yes"/>
      <point x="379" y="-4" type="line" smooth="yes"/>
      <point x="385" y="-3"/>
      <point x="394" y="3"/>
      <point x="399" y="7" type="curve" smooth="yes"/>
      <point x="474" y="87" type="line" smooth="yes"/>
      <point x="478" y="92"/>
      <point x="483" y="100"/>
      <point x="484" y="106" type="curve" smooth="yes"/>
      <point x="502" y="190" type="line" smooth="yes"/>
      <point x="504" y="200"/>
      <point x="501" y="216"/>
      <point x="494" y="224" type="curve" smooth="yes"/>
      <point x="414" y="318" type="line"/>
      <point x="389" y="410" type="line" smooth="yes"/>
      <point x="388" y="412"/>
      <point x="386" y="417"/>
      <point x="385" y="419" type="curve" smooth="yes"/>
      <point x="345" y="488" type="line"/>
      <point x="454" y="568" type="line" smooth="yes"/>
      <point x="465" y="576"/>
      <point x="472" y="595"/>
      <point x="469" y="609" type="curve" smooth="yes"/>
      <point x="436" y="749" type="line" smooth="yes"/>
      <point x="435" y="752"/>
      <point x="433" y="756"/>
      <point x="431" y="759" type="curve"/>
      <point x="579" y="759" type="line" smooth="yes"/>
      <point x="601" y="759"/>
      <point x="619" y="777"/>
      <point x="619" y="799" type="curve" smooth="yes"/>
      <point x="619" y="821"/>
      <point x="601" y="839"/>
      <point x="579" y="839" type="curve" smooth="yes"/>
      <point x="170" y="839" type="line"/>
      <point x="170" y="837" type="line"/>
      <point x="87" y="826" type="line" smooth="yes"/>
      <point x="39" y="820"/>
      <point x="38" y="754"/>
      <point x="86" y="747" type="curve" smooth="yes"/>
      <point x="364" y="704" type="line"/>
      <point x="385" y="617" type="line"/>
      <point x="268" y="532" type="line" smooth="yes"/>
      <point x="252" y="520"/>
      <point x="247" y="497"/>
      <point x="257" y="480" type="curve" smooth="yes"/>
      <point x="313" y="383" type="line"/>
      <point x="339" y="288" type="line" smooth="yes"/>
      <point x="341" y="283"/>
      <point x="344" y="276"/>
      <point x="347" y="273" type="curve" smooth="yes"/>
      <point x="420" y="187" type="line"/>
      <point x="408" y="134" type="line"/>
      <point x="349" y="71" type="line"/>
      <point x="216" y="39" type="line"/>
      <point x="142" y="39" type="line" smooth="yes"/>
      <point x="120" y="39"/>
      <point x="102" y="21"/>
      <point x="102" y="-1" type="curve" smooth="yes"/>
      <point x="102" y="-23"/>
      <point x="120" y="-41"/>
    </contour>
  </outline>
</glyph>
<glyph name="K" format="1">
  <advance width="1065"/>
  <unicode hex="004B"/>
  <outline>
    <contour>
      <point x="142" y="-33" type="curve" smooth="yes"/>
      <point x="407" y="67" type="line" smooth="yes"/>
      <point x="438" y="78"/>
      <point x="444" y="114"/>
      <point x="418" y="135" type="curve" smooth="yes"/>
      <point x="298" y="235" type="line"/>
      <point x="213" y="306" type="line"/>
      <point x="212" y="331" type="line"/>
      <point x="212" y="332" type="line"/>
      <point x="560" y="364" type="line"/>
      <point x="668" y="364" type="line"/>
      <point x="659" y="346"/>
      <point x="665" y="325"/>
      <point x="686" y="313" type="curve" smooth="yes"/>
      <point x="861" y="212" type="line"/>
      <point x="695" y="142" type="line" smooth="yes"/>
      <point x="684" y="137"/>
      <point x="674" y="124"/>
      <point x="672" y="112" type="curve" smooth="yes"/>
      <point x="654" y="11" type="line" smooth="yes"/>
      <point x="650" y="-10"/>
      <point x="665" y="-32"/>
      <point x="686" y="-35" type="curve" smooth="yes"/>
      <point x="707" y="-39"/>
      <point x="729" y="-24"/>
      <point x="732" y="-3" type="curve" smooth="yes"/>
      <point x="747" y="77" type="line"/>
      <point x="966" y="169" type="line" smooth="yes"/>
      <point x="999" y="183"/>
      <point x="1001" y="223"/>
      <point x="970" y="241" type="curve" smooth="yes"/>
      <point x="780" y="351" type="line"/>
      <point x="809" y="371" type="line" smooth="yes"/>
      <point x="817" y="377"/>
      <point x="822" y="383"/>
      <point x="825" y="391" type="curve"/>
      <point x="919" y="400" type="line" smooth="yes"/>
      <point x="930" y="401"/>
      <point x="943" y="409"/>
      <point x="949" y="418" type="curve" smooth="yes"/>
      <point x="1002" y="499" type="line" smooth="yes"/>
      <point x="1017" y="522"/>
      <point x="1007" y="550"/>
      <point x="981" y="559" type="curve" smooth="yes"/>
      <point x="830" y="607" type="line"/>
      <point x="987" y="667" type="line" smooth="yes"/>
      <point x="1023" y="680"/>
      <point x="1024" y="723"/>
      <point x="990" y="740" type="curve" smooth="yes"/>
      <point x="781" y="840" type="line" smooth="yes"/>
      <point x="762" y="849"/>
      <point x="737" y="841"/>
      <point x="728" y="821" type="curve" smooth="yes"/>
      <point x="719" y="802"/>
      <point x="727" y="777"/>
      <point x="747" y="768" type="curve" smooth="yes"/>
      <point x="871" y="708" type="line"/>
      <point x="695" y="641" type="line" smooth="yes"/>
      <point x="656" y="627"/>
      <point x="658" y="578"/>
      <point x="697" y="566" type="curve" smooth="yes"/>
      <point x="906" y="499" type="line"/>
      <point x="892" y="478" type="line"/>
      <point x="558" y="444" type="line"/>
      <point x="392" y="444" type="line"/>
      <point x="392" y="429" type="line"/>
      <point x="291" y="419" type="line"/>
      <point x="269" y="513" type="line" smooth="yes"/>
      <point x="268" y="516"/>
      <point x="267" y="519"/>
      <point x="266" y="522" type="curve" smooth="yes"/>
      <point x="227" y="601" type="line"/>
      <point x="281" y="682" type="line" smooth="yes"/>
      <point x="284" y="686"/>
      <point x="287" y="693"/>
      <point x="288" y="698" type="curve" smooth="yes"/>
      <point x="302" y="798" type="line" smooth="yes"/>
      <point x="305" y="820"/>
      <point x="289" y="841"/>
      <point x="268" y="844" type="curve" smooth="yes"/>
      <point x="246" y="847"/>
      <point x="225" y="831"/>
      <point x="222" y="810" type="curve" smooth="yes"/>
      <point x="210" y="719" type="line"/>
      <point x="148" y="626" type="line" smooth="yes"/>
      <point x="141" y="616"/>
      <point x="139" y="598"/>
      <point x="145" y="586" type="curve" smooth="yes"/>
      <point x="192" y="490" type="line"/>
      <point x="208" y="423" type="line"/>
      <point x="186" y="409" type="line"/>
      <point x="166" y="408" type="line" smooth="yes"/>
      <point x="148" y="406"/>
      <point x="134" y="392"/>
      <point x="130" y="375" type="curve"/>
      <point x="69" y="338" type="line" smooth="yes"/>
      <point x="49" y="326"/>
      <point x="44" y="300"/>
      <point x="58" y="281" type="curve" smooth="yes"/>
      <point x="121" y="193" type="line"/>
      <point x="114" y="111" type="line"/>
      <point x="89" y="14" type="line" smooth="yes"/>
      <point x="80" y="-20"/>
      <point x="109" y="-46"/>
    </contour>
    <contour>
      <point x="193" y="94" type="line" smooth="yes"/>
      <point x="193" y="96"/>
      <point x="194" y="99"/>
      <point x="194" y="101" type="curve" smooth="yes"/>
      <point x="202" y="201" type="line" smooth="yes"/>
      <point x="202" y="204"/>
      <point x="202" y="208"/>
      <point x="201" y="212" type="curve"/>
      <point x="246" y="173" type="line"/>
      <point x="314" y="117" type="line"/>
      <point x="186" y="69" type="line"/>
    </contour>
  </outline>
</glyph>
<glyph name="L" format="1">
  <advance width="748"/>
  <unicode hex="004C"/>
  <outline>
    <contour>
      <point x="698" y="-40" type="line"/>
      <point x="698" y="40" type="line"/>
      <point x="386" y="40" type="line"/>
      <point x="382" y="43"/>
      <point x="377" y="45"/>
      <point x="371" y="46" type="curve" smooth="yes"/>
      <point x="213" y="78" type="line"/>
      <point x="344" y="167" type="line" smooth="yes"/>
      <point x="373" y="186"/>
      <point x="369" y="223"/>
      <point x="338" y="237" type="curve" smooth="yes"/>
      <point x="176" y="307" type="line"/>
      <point x="268" y="366" type="line" smooth="yes"/>
      <point x="279" y="374"/>
      <point x="287" y="391"/>
      <point x="286" y="404" type="curve" smooth="yes"/>
      <point x="276" y="504" type="line" smooth="yes"/>
      <point x="275" y="514"/>
      <point x="267" y="527"/>
      <point x="259" y="533" type="curve" smooth="yes"/>
      <point x="141" y="615" type="line"/>
      <point x="165" y="672" type="line"/>
      <point x="331" y="765" type="line" smooth="yes"/>
      <point x="349" y="776"/>
      <point x="356" y="801"/>
      <point x="346" y="820" type="curve" smooth="yes"/>
      <point x="335" y="838"/>
      <point x="310" y="845"/>
      <point x="291" y="835" type="curve" smooth="yes"/>
      <point x="113" y="735" type="line" smooth="yes"/>
      <point x="107" y="731"/>
      <point x="99" y="722"/>
      <point x="96" y="715" type="curve" smooth="yes"/>
      <point x="55" y="615" type="line" smooth="yes"/>
      <point x="48" y="599"/>
      <point x="55" y="577"/>
      <point x="69" y="567" type="curve" smooth="yes"/>
      <point x="198" y="478" type="line"/>
      <point x="204" y="420" type="line"/>
      <point x="70" y="334" type="line" smooth="yes"/>
      <point x="41" y="315"/>
      <point x="44" y="277"/>
      <point x="76" y="263" type="curve" smooth="yes"/>
      <point x="239" y="192" type="line"/>
      <point x="89" y="92" type="line" smooth="yes"/>
      <point x="57" y="70"/>
      <point x="65" y="27"/>
      <point x="103" y="19" type="curve" smooth="yes"/>
      <point x="318" y="-25" type="line"/>
      <point x="325" y="-34"/>
      <point x="337" y="-40"/>
      <point x="352" y="-40" type="curve" smooth="yes"/>
    </contour>
  </outline>
</glyph>
<glyph name="M" format="1">
  <advance width="1036"/>
  <unicode hex="004D"/>
  <outline>
    <contour>
      <point x="791" y="-39" type="curve" smooth="yes"/>
      <point x="811" y="-32"/>
      <point x="823" y="-9"/>
      <point x="816" y="12" type="curve" smooth="yes"/>
      <point x="788" y="96" type="line"/>
      <point x="826" y="172" type="line"/>
      <point x="966" y="266" type="line" smooth="yes"/>
      <point x="996" y="285"/>
      <point x="991" y="324"/>
      <point x="958" y="336" type="curve" smooth="yes"/>
      <point x="737" y="421" type="line"/>
      <point x="761" y="470" type="line"/>
      <point x="922" y="564" type="line" smooth="yes"/>
      <point x="929" y="568"/>
      <point x="936" y="577"/>
      <point x="939" y="584" type="curve" smooth="yes"/>
      <point x="979" y="684" type="line" smooth="yes"/>
      <point x="986" y="702"/>
      <point x="978" y="725"/>
      <point x="961" y="734" type="curve" smooth="yes"/>
      <point x="811" y="817" type="line"/>
      <point x="807" y="822"/>
      <point x="801" y="826"/>
      <point x="793" y="829" type="curve" smooth="yes"/>
      <point x="776" y="836" type="line" smooth="yes"/>
      <point x="753" y="845"/>
      <point x="734" y="835"/>
      <point x="726" y="819" type="curve"/>
      <point x="580" y="779" type="line" smooth="yes"/>
      <point x="572" y="777"/>
      <point x="561" y="769"/>
      <point x="557" y="762" type="curve" smooth="yes"/>
      <point x="466" y="621" type="line" smooth="yes"/>
      <point x="466" y="620"/>
      <point x="465" y="618"/>
      <point x="464" y="617" type="curve" smooth="yes"/>
      <point x="432" y="553" type="line"/>
      <point x="399" y="609" type="line"/>
      <point x="406" y="736" type="line"/>
      <point x="417" y="791" type="line" smooth="yes"/>
      <point x="422" y="817"/>
      <point x="404" y="839"/>
      <point x="378" y="839" type="curve" smooth="yes"/>
      <point x="156" y="839" type="line" smooth="yes"/>
      <point x="144" y="839"/>
      <point x="129" y="831"/>
      <point x="123" y="821" type="curve" smooth="yes"/>
      <point x="57" y="721" type="line" smooth="yes"/>
      <point x="42" y="699"/>
      <point x="51" y="671"/>
      <point x="76" y="662" type="curve" smooth="yes"/>
      <point x="241" y="598" type="line"/>
      <point x="88" y="536" type="line" smooth="yes"/>
      <point x="53" y="522"/>
      <point x="52" y="479"/>
      <point x="86" y="463" type="curve" smooth="yes"/>
      <point x="225" y="399" type="line"/>
      <point x="85" y="335" type="line" smooth="yes"/>
      <point x="72" y="330"/>
      <point x="61" y="313"/>
      <point x="61" y="299" type="curve"/>
      <point x="61" y="199" type="line"/>
      <point x="61" y="186"/>
      <point x="70" y="171"/>
      <point x="81" y="164" type="curve" smooth="yes"/>
      <point x="221" y="85" type="line"/>
      <point x="180" y="20" type="line" smooth="yes"/>
      <point x="169" y="2"/>
      <point x="174" y="-23"/>
      <point x="193" y="-35" type="curve" smooth="yes"/>
      <point x="211" y="-46"/>
      <point x="236" y="-41"/>
      <point x="248" y="-22" type="curve" smooth="yes"/>
      <point x="311" y="78" type="line" smooth="yes"/>
      <point x="323" y="97"/>
      <point x="317" y="122"/>
      <point x="297" y="134" type="curve" smooth="yes"/>
      <point x="141" y="222" type="line"/>
      <point x="141" y="273" type="line"/>
      <point x="338" y="363" type="line" smooth="yes"/>
      <point x="373" y="378"/>
      <point x="373" y="420"/>
      <point x="339" y="435" type="curve" smooth="yes"/>
      <point x="204" y="497" type="line"/>
      <point x="340" y="552" type="line"/>
      <point x="384" y="478" type="line" smooth="yes"/>
      <point x="386" y="475"/>
      <point x="389" y="471"/>
      <point x="392" y="469" type="curve" smooth="yes"/>
      <point x="504" y="369" type="line" smooth="yes"/>
      <point x="510" y="364"/>
      <point x="522" y="359"/>
      <point x="531" y="359" type="curve" smooth="yes"/>
      <point x="605" y="359" type="line" smooth="yes"/>
      <point x="625" y="359"/>
      <point x="638" y="369"/>
      <point x="644" y="383" type="curve"/>
      <point x="648" y="373"/>
      <point x="656" y="366"/>
      <point x="667" y="362" type="curve" smooth="yes"/>
      <point x="857" y="289" type="line"/>
      <point x="773" y="232" type="line" smooth="yes"/>
      <point x="768" y="229"/>
      <point x="762" y="222"/>
      <point x="759" y="217" type="curve" smooth="yes"/>
      <point x="709" y="117" type="line" smooth="yes"/>
      <point x="705" y="109"/>
      <point x="704" y="95"/>
      <point x="707" y="86" type="curve" smooth="yes"/>
      <point x="740" y="-14" type="line" smooth="yes"/>
      <point x="747" y="-34"/>
      <point x="770" y="-46"/>
    </contour>
    <contour>
      <point x="326" y="743" type="curve" smooth="yes"/>
      <point x="321" y="653" type="line"/>
      <point x="151" y="718" type="line"/>
      <point x="178" y="759" type="line"/>
      <point x="329" y="759" type="line"/>
      <point x="327" y="748" type="line" smooth="yes"/>
      <point x="327" y="747"/>
      <point x="326" y="745"/>
    </contour>
    <contour>
      <point x="627" y="433" type="curve" smooth="yes"/>
      <point x="502" y="513" type="line"/>
      <point x="535" y="579" type="line"/>
      <point x="616" y="706" type="line"/>
      <point x="770" y="748" type="line"/>
      <point x="892" y="681" type="line"/>
      <point x="870" y="627" type="line"/>
      <point x="711" y="534" type="line" smooth="yes"/>
      <point x="705" y="530"/>
      <point x="698" y="523"/>
      <point x="695" y="517" type="curve" smooth="yes"/>
      <point x="645" y="417" type="line" smooth="yes"/>
      <point x="644" y="414" type="line"/>
      <point x="641" y="421"/>
      <point x="635" y="427"/>
    </contour>
  </outline>
</glyph>
<glyph name="N" format="1">
  <advance width="1052"/>
  <unicode hex="004E"/>
  <outline>
    <contour>
      <point x="814" y="-35" type="curve" smooth="yes"/>
      <point x="982" y="65" type="line" smooth="yes"/>
      <point x="999" y="75"/>
      <point x="1006" y="97"/>
      <point x="999" y="115" type="curve" smooth="yes"/>
      <point x="959" y="208" type="line"/>
      <point x="956" y="296" type="line"/>
      <point x="972" y="392" type="line" smooth="yes"/>
      <point x="975" y="409"/>
      <point x="965" y="428"/>
      <point x="950" y="435" type="curve" smooth="yes"/>
      <point x="805" y="502" type="line"/>
      <point x="917" y="564" type="line" smooth="yes"/>
      <point x="946" y="580"/>
      <point x="947" y="616"/>
      <point x="919" y="633" type="curve" smooth="yes"/>
      <point x="770" y="724" type="line"/>
      <point x="756" y="806" type="line" smooth="yes"/>
      <point x="753" y="827"/>
      <point x="732" y="842"/>
      <point x="710" y="838" type="curve" smooth="yes"/>
      <point x="689" y="835"/>
      <point x="674" y="814"/>
      <point x="678" y="792" type="curve" smooth="yes"/>
      <point x="695" y="692" type="line" smooth="yes"/>
      <point x="696" y="682"/>
      <point x="705" y="670"/>
      <point x="713" y="665" type="curve" smooth="yes"/>
      <point x="818" y="601" type="line"/>
      <point x="698" y="534" type="line" smooth="yes"/>
      <point x="666" y="517"/>
      <point x="668" y="478"/>
      <point x="700" y="463" type="curve" smooth="yes"/>
      <point x="888" y="376" type="line"/>
      <point x="877" y="306" type="line" smooth="yes"/>
      <point x="876" y="304"/>
      <point x="876" y="300"/>
      <point x="876" y="298" type="curve" smooth="yes"/>
      <point x="879" y="198" type="line" smooth="yes"/>
      <point x="879" y="194"/>
      <point x="881" y="187"/>
      <point x="882" y="183" type="curve" smooth="yes"/>
      <point x="911" y="115" type="line"/>
      <point x="784" y="40" type="line"/>
      <point x="709" y="45" type="line"/>
      <point x="669" y="76" type="line"/>
      <point x="680" y="195" type="line" smooth="yes"/>
      <point x="680" y="201"/>
      <point x="679" y="211"/>
      <point x="676" y="216" type="curve" smooth="yes"/>
      <point x="628" y="316" type="line" smooth="yes"/>
      <point x="625" y="323"/>
      <point x="617" y="331"/>
      <point x="611" y="334" type="curve" smooth="yes"/>
      <point x="488" y="399" type="line"/>
      <point x="606" y="464" type="line" smooth="yes"/>
      <point x="625" y="474"/>
      <point x="632" y="498"/>
      <point x="623" y="517" type="curve" smooth="yes"/>
      <point x="578" y="606" type="line"/>
      <point x="591" y="736" type="line" smooth="yes"/>
      <point x="594" y="757"/>
      <point x="579" y="776"/>
      <point x="559" y="780" type="curve" smooth="yes"/>
      <point x="345" y="822" type="line"/>
      <point x="336" y="836"/>
      <point x="318" y="844"/>
      <point x="297" y="836" type="curve" smooth="yes"/>
      <point x="279" y="829" type="line" smooth="yes"/>
      <point x="266" y="825"/>
      <point x="258" y="816"/>
      <point x="254" y="807" type="curve"/>
      <point x="150" y="731" type="line" smooth="yes"/>
      <point x="147" y="730"/>
      <point x="144" y="727"/>
      <point x="142" y="725" type="curve" smooth="yes"/>
      <point x="58" y="625" type="line" smooth="yes"/>
      <point x="49" y="614"/>
      <point x="47" y="594"/>
      <point x="53" y="581" type="curve" smooth="yes"/>
      <point x="103" y="481" type="line" smooth="yes"/>
      <point x="106" y="476"/>
      <point x="111" y="470"/>
      <point x="116" y="466" type="curve" smooth="yes"/>
      <point x="238" y="380" type="line"/>
      <point x="232" y="302" type="line" smooth="yes"/>
      <point x="231" y="292"/>
      <point x="236" y="278"/>
      <point x="244" y="271" type="curve" smooth="yes"/>
      <point x="320" y="193" type="line"/>
      <point x="275" y="120" type="line"/>
      <point x="212" y="20" type="line" smooth="yes"/>
      <point x="201" y="2"/>
      <point x="206" y="-23"/>
      <point x="225" y="-35" type="curve" smooth="yes"/>
      <point x="243" y="-46"/>
      <point x="268" y="-41"/>
      <point x="280" y="-22" type="curve" smooth="yes"/>
      <point x="343" y="78" type="line"/>
      <point x="405" y="178" type="line" smooth="yes"/>
      <point x="414" y="193"/>
      <point x="412" y="215"/>
      <point x="399" y="227" type="curve" smooth="yes"/>
      <point x="313" y="314" type="line"/>
      <point x="320" y="396" type="line" smooth="yes"/>
      <point x="321" y="408"/>
      <point x="313" y="424"/>
      <point x="303" y="432" type="curve" smooth="yes"/>
      <point x="170" y="526" type="line"/>
      <point x="137" y="593" type="line"/>
      <point x="200" y="670" type="line"/>
      <point x="309" y="748" type="line"/>
      <point x="508" y="709" type="line"/>
      <point x="497" y="603" type="line" smooth="yes"/>
      <point x="497" y="597"/>
      <point x="498" y="587"/>
      <point x="501" y="581" type="curve" smooth="yes"/>
      <point x="534" y="516" type="line"/>
      <point x="384" y="434" type="line" smooth="yes"/>
      <point x="353" y="418"/>
      <point x="354" y="380"/>
      <point x="384" y="364" type="curve" smooth="yes"/>
      <point x="562" y="270" type="line"/>
      <point x="599" y="192" type="line"/>
      <point x="587" y="61" type="line" smooth="yes"/>
      <point x="586" y="49"/>
      <point x="593" y="33"/>
      <point x="603" y="26" type="curve" smooth="yes"/>
      <point x="670" y="-26" type="line" smooth="yes"/>
      <point x="676" y="-30"/>
      <point x="685" y="-33"/>
      <point x="692" y="-34" type="curve" smooth="yes"/>
      <point x="791" y="-41" type="line" smooth="yes"/>
      <point x="798" y="-41"/>
      <point x="809" y="-39"/>
    </contour>
  </outline>
</glyph>
<glyph name="O" format="1">
  <advance width="984"/>
  <unicode hex="004F"/>
  <outline>
    <contour>
      <point x="385" y="-41" type="curve" smooth="yes"/>
      <point x="508" y="-41" type="line" smooth="yes"/>
      <point x="530" y="-41"/>
      <point x="548" y="-23"/>
      <point x="548" y="-1" type="curve" smooth="yes"/>
      <point x="548" y="21"/>
      <point x="530" y="39"/>
      <point x="508" y="39" type="curve" smooth="yes"/>
      <point x="435" y="39" type="line"/>
      <point x="433" y="55"/>
      <point x="422" y="69"/>
      <point x="405" y="74" type="curve" smooth="yes"/>
      <point x="186" y="132" type="line"/>
      <point x="236" y="166" type="line" smooth="yes"/>
      <point x="237" y="167"/>
      <point x="239" y="169"/>
      <point x="240" y="170" type="curve" smooth="yes"/>
      <point x="346" y="270" type="line" smooth="yes"/>
      <point x="368" y="290"/>
      <point x="364" y="321"/>
      <point x="338" y="334" type="curve" smooth="yes"/>
      <point x="208" y="404" type="line"/>
      <point x="298" y="466" type="line" smooth="yes"/>
      <point x="310" y="475"/>
      <point x="317" y="494"/>
      <point x="314" y="509" type="curve" smooth="yes"/>
      <point x="289" y="609" type="line" smooth="yes"/>
      <point x="288" y="612"/>
      <point x="286" y="617"/>
      <point x="284" y="619" type="curve" smooth="yes"/>
      <point x="253" y="672" type="line"/>
      <point x="321" y="725" type="line"/>
      <point x="506" y="759" type="line"/>
      <point x="566" y="759" type="line"/>
      <point x="581" y="739" type="line" smooth="yes"/>
      <point x="585" y="734"/>
      <point x="594" y="727"/>
      <point x="600" y="725" type="curve" smooth="yes"/>
      <point x="777" y="666" type="line"/>
      <point x="736" y="629" type="line" smooth="yes"/>
      <point x="722" y="616"/>
      <point x="719" y="592"/>
      <point x="730" y="577" type="curve" smooth="yes"/>
      <point x="794" y="482" type="line"/>
      <point x="812" y="412" type="line"/>
      <point x="723" y="328" type="line" smooth="yes"/>
      <point x="704" y="311"/>
      <point x="705" y="283"/>
      <point x="725" y="268" type="curve" smooth="yes"/>
      <point x="839" y="176" type="line"/>
      <point x="850" y="130" type="line"/>
      <point x="777" y="69" type="line"/>
      <point x="705" y="35" type="line" smooth="yes"/>
      <point x="685" y="26"/>
      <point x="677" y="2"/>
      <point x="686" y="-18" type="curve" smooth="yes"/>
      <point x="695" y="-38"/>
      <point x="719" y="-46"/>
      <point x="739" y="-37" type="curve" smooth="yes"/>
      <point x="816" y="-1" type="line" smooth="yes"/>
      <point x="818" y="0"/>
      <point x="822" y="3"/>
      <point x="825" y="4" type="curve" smooth="yes"/>
      <point x="921" y="85" type="line" smooth="yes"/>
      <point x="931" y="94"/>
      <point x="937" y="112"/>
      <point x="934" y="125" type="curve" smooth="yes"/>
      <point x="914" y="208" type="line" smooth="yes"/>
      <point x="912" y="216"/>
      <point x="906" y="225"/>
      <point x="900" y="230" type="curve" smooth="yes"/>
      <point x="811" y="301" type="line"/>
      <point x="883" y="370" type="line" smooth="yes"/>
      <point x="893" y="379"/>
      <point x="898" y="396"/>
      <point x="895" y="409" type="curve" smooth="yes"/>
      <point x="870" y="509" type="line" smooth="yes"/>
      <point x="869" y="513"/>
      <point x="866" y="518"/>
      <point x="864" y="521" type="curve" smooth="yes"/>
      <point x="816" y="593" type="line"/>
      <point x="881" y="653" type="line" smooth="yes"/>
      <point x="906" y="675"/>
      <point x="899" y="710"/>
      <point x="867" y="720" type="curve" smooth="yes"/>
      <point x="638" y="797" type="line"/>
      <point x="619" y="823" type="line" smooth="yes"/>
      <point x="612" y="832"/>
      <point x="598" y="839"/>
      <point x="587" y="839" type="curve" smooth="yes"/>
      <point x="502" y="839" type="line" smooth="yes"/>
      <point x="500" y="839"/>
      <point x="497" y="839"/>
      <point x="495" y="838" type="curve" smooth="yes"/>
      <point x="297" y="802" type="line" smooth="yes"/>
      <point x="292" y="801"/>
      <point x="284" y="798"/>
      <point x="280" y="794" type="curve" smooth="yes"/>
      <point x="177" y="713" type="line" smooth="yes"/>
      <point x="161" y="702"/>
      <point x="157" y="678"/>
      <point x="167" y="662" type="curve" smooth="yes"/>
      <point x="213" y="584" type="line"/>
      <point x="230" y="516" type="line"/>
      <point x="109" y="432" type="line" smooth="yes"/>
      <point x="83" y="413"/>
      <point x="85" y="379"/>
      <point x="113" y="364" type="curve" smooth="yes"/>
      <point x="251" y="290" type="line"/>
      <point x="188" y="230" type="line"/>
      <point x="70" y="148" type="line" smooth="yes"/>
      <point x="39" y="127"/>
      <point x="46" y="87"/>
      <point x="82" y="77" type="curve" smooth="yes"/>
      <point x="346" y="7" type="line"/>
      <point x="340" y="-19"/>
      <point x="358" y="-41"/>
    </contour>
  </outline>
</glyph>
<glyph name="P" format="1">
  <advance width="955"/>
  <unicode hex="0050"/>
  <outline>
    <contour>
      <point x="123" y="-29" type="curve" smooth="yes"/>
      <point x="255" y="71" type="line" smooth="yes"/>
      <point x="257" y="72"/>
      <point x="259" y="74"/>
      <point x="260" y="76" type="curve" smooth="yes"/>
      <point x="352" y="176" type="line" smooth="yes"/>
      <point x="372" y="197"/>
      <point x="366" y="228"/>
      <point x="339" y="240" type="curve" smooth="yes"/>
      <point x="277" y="267" type="line"/>
      <point x="541" y="267" type="line" smooth="yes"/>
      <point x="545" y="267"/>
      <point x="550" y="268"/>
      <point x="554" y="269" type="curve" smooth="yes"/>
      <point x="661" y="305" type="line" smooth="yes"/>
      <point x="664" y="306"/>
      <point x="668" y="308"/>
      <point x="670" y="310" type="curve" smooth="yes"/>
      <point x="792" y="390" type="line" smooth="yes"/>
      <point x="797" y="394"/>
      <point x="804" y="401"/>
      <point x="806" y="406" type="curve" smooth="yes"/>
      <point x="847" y="489" type="line" smooth="yes"/>
      <point x="849" y="494"/>
      <point x="851" y="502"/>
      <point x="851" y="508" type="curve" smooth="yes"/>
      <point x="849" y="591" type="line"/>
      <point x="899" y="664" type="line" smooth="yes"/>
      <point x="908" y="678"/>
      <point x="907" y="701"/>
      <point x="895" y="714" type="curve" smooth="yes"/>
      <point x="821" y="794" type="line" smooth="yes"/>
      <point x="818" y="797"/>
      <point x="814" y="800"/>
      <point x="811" y="802" type="curve" smooth="yes"/>
      <point x="749" y="838" type="line" smooth="yes"/>
      <point x="744" y="841"/>
      <point x="735" y="843"/>
      <point x="729" y="843" type="curve" smooth="yes"/>
      <point x="474" y="843" type="line"/>
      <point x="474" y="789" type="line"/>
      <point x="466" y="842" type="line"/>
      <point x="334" y="805" type="line"/>
      <point x="91" y="724" type="line" smooth="yes"/>
      <point x="78" y="720"/>
      <point x="66" y="705"/>
      <point x="64" y="692" type="curve" smooth="yes"/>
      <point x="50" y="609" type="line" smooth="yes"/>
      <point x="50" y="604"/>
      <point x="50" y="596"/>
      <point x="52" y="592" type="curve" smooth="yes"/>
      <point x="82" y="492" type="line" smooth="yes"/>
      <point x="84" y="485"/>
      <point x="90" y="475"/>
      <point x="96" y="471" type="curve" smooth="yes"/>
      <point x="183" y="406" type="line"/>
      <point x="74" y="337" type="line" smooth="yes"/>
      <point x="44" y="318"/>
      <point x="47" y="280"/>
      <point x="79" y="266" type="curve" smooth="yes"/>
      <point x="96" y="259" type="line"/>
      <point x="98" y="254"/>
      <point x="100" y="250"/>
      <point x="103" y="245" type="curve" smooth="yes"/>
      <point x="161" y="167" type="line"/>
      <point x="177" y="112" type="line"/>
      <point x="75" y="35" type="line" smooth="yes"/>
      <point x="58" y="22"/>
      <point x="54" y="-4"/>
      <point x="67" y="-21" type="curve" smooth="yes"/>
      <point x="80" y="-38"/>
      <point x="106" y="-42"/>
    </contour>
    <contour>
      <point x="275" y="369" type="line" smooth="yes"/>
      <point x="301" y="385"/>
      <point x="302" y="417"/>
      <point x="278" y="435" type="curve" smooth="yes"/>
      <point x="155" y="527" type="line"/>
      <point x="131" y="606" type="line"/>
      <point x="139" y="656" type="line"/>
      <point x="355" y="728" type="line"/>
      <point x="482" y="763" type="line"/>
      <point x="718" y="763" type="line"/>
      <point x="766" y="735" type="line"/>
      <point x="815" y="683" type="line"/>
      <point x="776" y="625" type="line" smooth="yes"/>
      <point x="772" y="620"/>
      <point x="769" y="609"/>
      <point x="769" y="602" type="curve" smooth="yes"/>
      <point x="771" y="516" type="line"/>
      <point x="739" y="451" type="line"/>
      <point x="630" y="379" type="line"/>
      <point x="534" y="347" type="line"/>
      <point x="248" y="347" type="line" smooth="yes"/>
      <point x="245" y="347"/>
      <point x="241" y="346"/>
      <point x="238" y="346" type="curve"/>
    </contour>
    <contour>
      <point x="235" y="196" type="line" smooth="yes"/>
      <point x="235" y="196"/>
      <point x="235" y="197"/>
      <point x="235" y="198" type="curve"/>
      <point x="256" y="189" type="line"/>
      <point x="242" y="174" type="line"/>
    </contour>
  </outline>
</glyph>
<glyph name="Q" format="1">
  <advance width="968"/>
  <unicode hex="0051"/>
  <outline>
    <contour>
      <point x="447" y="-41" type="curve" smooth="yes"/>
      <point x="458" y="-41" type="line" smooth="yes"/>
      <point x="510" y="-41"/>
      <point x="512" y="37"/>
      <point x="459" y="39" type="curve" smooth="yes"/>
      <point x="270" y="46" type="line"/>
      <point x="217" y="85" type="line"/>
      <point x="149" y="186" type="line"/>
      <point x="288" y="264" type="line" smooth="yes"/>
      <point x="315" y="280"/>
      <point x="317" y="313"/>
      <point x="291" y="331" type="curve" smooth="yes"/>
      <point x="164" y="423" type="line"/>
      <point x="150" y="481" type="line"/>
      <point x="275" y="566" type="line" smooth="yes"/>
      <point x="298" y="581"/>
      <point x="300" y="609"/>
      <point x="281" y="628" type="curve" smooth="yes"/>
      <point x="224" y="683" type="line"/>
      <point x="267" y="726" type="line"/>
      <point x="415" y="759" type="line"/>
      <point x="549" y="759" type="line"/>
      <point x="550" y="754" type="line" smooth="yes"/>
      <point x="553" y="741"/>
      <point x="566" y="728"/>
      <point x="578" y="724" type="curve" smooth="yes"/>
      <point x="769" y="671" type="line"/>
      <point x="700" y="634" type="line" smooth="yes"/>
      <point x="684" y="626"/>
      <point x="676" y="605"/>
      <point x="681" y="588" type="curve" smooth="yes"/>
      <point x="707" y="497" type="line"/>
      <point x="690" y="418" type="line"/>
      <point x="604" y="326" type="line" smooth="yes"/>
      <point x="587" y="309"/>
      <point x="589" y="282"/>
      <point x="608" y="267" type="curve" smooth="yes"/>
      <point x="650" y="235" type="line"/>
      <point x="559" y="232" type="line" smooth="yes"/>
      <point x="555" y="232"/>
      <point x="548" y="230"/>
      <point x="544" y="228" type="curve" smooth="yes"/>
      <point x="434" y="177" type="line" smooth="yes"/>
      <point x="408" y="164"/>
      <point x="402" y="134"/>
      <point x="422" y="113" type="curve" smooth="yes"/>
      <point x="557" y="-29" type="line" smooth="yes"/>
      <point x="572" y="-44"/>
      <point x="598" y="-45"/>
      <point x="614" y="-30" type="curve" smooth="yes"/>
      <point x="629" y="-15"/>
      <point x="630" y="11"/>
      <point x="615" y="27" type="curve" smooth="yes"/>
      <point x="518" y="128" type="line"/>
      <point x="570" y="152" type="line"/>
      <point x="762" y="159" type="line" smooth="yes"/>
      <point x="803" y="160"/>
      <point x="818" y="206"/>
      <point x="786" y="231" type="curve" smooth="yes"/>
      <point x="692" y="304" type="line"/>
      <point x="756" y="372" type="line" smooth="yes"/>
      <point x="760" y="376"/>
      <point x="765" y="385"/>
      <point x="766" y="391" type="curve" smooth="yes"/>
      <point x="787" y="491" type="line" smooth="yes"/>
      <point x="788" y="496"/>
      <point x="788" y="505"/>
      <point x="786" y="510" type="curve" smooth="yes"/>
      <point x="766" y="579" type="line"/>
      <point x="895" y="647" type="line" smooth="yes"/>
      <point x="930" y="665"/>
      <point x="925" y="710"/>
      <point x="887" y="721" type="curve" smooth="yes"/>
      <point x="623" y="795" type="line"/>
      <point x="619" y="808" type="line" smooth="yes"/>
      <point x="615" y="825"/>
      <point x="598" y="839"/>
      <point x="581" y="839" type="curve" smooth="yes"/>
      <point x="411" y="839" type="line" smooth="yes"/>
      <point x="409" y="839"/>
      <point x="405" y="839"/>
      <point x="402" y="838" type="curve" smooth="yes"/>
      <point x="239" y="802" type="line" smooth="yes"/>
      <point x="233" y="800"/>
      <point x="224" y="796"/>
      <point x="219" y="791" type="curve" smooth="yes"/>
      <point x="138" y="710" type="line" smooth="yes"/>
      <point x="122" y="694"/>
      <point x="122" y="669"/>
      <point x="139" y="653" type="curve" smooth="yes"/>
      <point x="189" y="604" type="line"/>
      <point x="82" y="532" type="line" smooth="yes"/>
      <point x="69" y="524"/>
      <point x="61" y="504"/>
      <point x="65" y="489" type="curve" smooth="yes"/>
      <point x="90" y="389" type="line" smooth="yes"/>
      <point x="92" y="381"/>
      <point x="99" y="371"/>
      <point x="106" y="367" type="curve" smooth="yes"/>
      <point x="194" y="303" type="line"/>
      <point x="71" y="234" type="line" smooth="yes"/>
      <point x="50" y="222"/>
      <point x="44" y="196"/>
      <point x="58" y="176" type="curve" smooth="yes"/>
      <point x="155" y="35" type="line" smooth="yes"/>
      <point x="157" y="32"/>
      <point x="161" y="28"/>
      <point x="164" y="26" type="curve" smooth="yes"/>
      <point x="231" y="-26" type="line" smooth="yes"/>
      <point x="237" y="-30"/>
      <point x="247" y="-34"/>
      <point x="254" y="-34" type="curve" smooth="yes"/>
      <point x="441" y="-40" type="line"/>
      <point x="443" y="-41"/>
      <point x="445" y="-41"/>
    </contour>
  </outline>
</glyph>
<glyph name="R" format="1">
  <advance width="1016"/>
  <unicode hex="0052"/>
  <outline>
    <contour>
      <point x="288" y="336" type="line"/>
      <point x="288" y="271" type="line"/>
      <point x="199" y="324" type="line"/>
      <point x="156" y="405" type="line"/>
      <point x="158" y="475" type="line"/>
      <point x="283" y="563" type="line" smooth="yes"/>
      <point x="298" y="574"/>
      <point x="304" y="596"/>
      <point x="296" y="613" type="curve" smooth="yes"/>
      <point x="273" y="664" type="line"/>
      <point x="374" y="726" type="line"/>
      <point x="422" y="756" type="line"/>
      <point x="520" y="756" type="line"/>
      <point x="693" y="726" type="line"/>
      <point x="696" y="677" type="line" smooth="yes"/>
      <point x="696" y="668"/>
      <point x="702" y="655"/>
      <point x="710" y="649" type="curve" smooth="yes"/>
      <point x="800" y="571" type="line"/>
      <point x="827" y="513" type="line"/>
      <point x="712" y="447" type="line" smooth="yes"/>
      <point x="707" y="444"/>
      <point x="700" y="437"/>
      <point x="697" y="431" type="curve" smooth="yes"/>
      <point x="659" y="361" type="line"/>
      <point x="619" y="336" type="line"/>
    </contour>
    <contour>
      <point x="304" y="-24" type="curve" smooth="yes"/>
      <point x="314" y="-5"/>
      <point x="307" y="20"/>
      <point x="289" y="31" type="curve" smooth="yes"/>
      <point x="183" y="90" type="line"/>
      <point x="349" y="159" type="line" smooth="yes"/>
      <point x="382" y="173"/>
      <point x="385" y="212"/>
      <point x="355" y="230" type="curve" smooth="yes"/>
      <point x="312" y="256" type="line"/>
      <point x="690" y="256" type="line"/>
      <point x="710" y="220" type="line" smooth="yes"/>
      <point x="711" y="218"/>
      <point x="714" y="214"/>
      <point x="715" y="212" type="curve" smooth="yes"/>
      <point x="842" y="75" type="line"/>
      <point x="890" y="-22" type="line" smooth="yes"/>
      <point x="900" y="-41"/>
      <point x="925" y="-49"/>
      <point x="944" y="-40" type="curve" smooth="yes"/>
      <point x="963" y="-30"/>
      <point x="971" y="-5"/>
      <point x="962" y="14" type="curve" smooth="yes"/>
      <point x="911" y="116" type="line" smooth="yes"/>
      <point x="909" y="119"/>
      <point x="907" y="123"/>
      <point x="904" y="125" type="curve" smooth="yes"/>
      <point x="778" y="263" type="line"/>
      <point x="749" y="315" type="line" smooth="yes"/>
      <point x="746" y="321"/>
      <point x="740" y="326"/>
      <point x="733" y="330" type="curve"/>
      <point x="762" y="384" type="line"/>
      <point x="898" y="461" type="line" smooth="yes"/>
      <point x="915" y="471"/>
      <point x="923" y="494"/>
      <point x="914" y="512" type="curve" smooth="yes"/>
      <point x="869" y="612" type="line" smooth="yes"/>
      <point x="867" y="617"/>
      <point x="863" y="623"/>
      <point x="859" y="626" type="curve" smooth="yes"/>
      <point x="775" y="699" type="line"/>
      <point x="771" y="762" type="line" smooth="yes"/>
      <point x="770" y="780"/>
      <point x="755" y="796"/>
      <point x="738" y="799" type="curve" smooth="yes"/>
      <point x="621" y="820" type="line"/>
      <point x="621" y="836" type="line"/>
      <point x="411" y="836" type="line" smooth="yes"/>
      <point x="405" y="836"/>
      <point x="395" y="833"/>
      <point x="390" y="830" type="curve" smooth="yes"/>
      <point x="331" y="794" type="line"/>
      <point x="200" y="713" type="line" smooth="yes"/>
      <point x="183" y="703"/>
      <point x="177" y="680"/>
      <point x="185" y="662" type="curve" smooth="yes"/>
      <point x="210" y="609" type="line"/>
      <point x="96" y="529" type="line" smooth="yes"/>
      <point x="87" y="522"/>
      <point x="79" y="508"/>
      <point x="79" y="497" type="curve" smooth="yes"/>
      <point x="76" y="397" type="line" smooth="yes"/>
      <point x="76" y="391"/>
      <point x="78" y="382"/>
      <point x="81" y="377" type="curve" smooth="yes"/>
      <point x="134" y="277" type="line" smooth="yes"/>
      <point x="137" y="272"/>
      <point x="143" y="265"/>
      <point x="148" y="262" type="curve" smooth="yes"/>
      <point x="246" y="203" type="line"/>
      <point x="77" y="133" type="line" smooth="yes"/>
      <point x="43" y="119"/>
      <point x="41" y="79"/>
      <point x="72" y="61" type="curve" smooth="yes"/>
      <point x="249" y="-39" type="line" smooth="yes"/>
      <point x="268" y="-49"/>
      <point x="293" y="-42"/>
    </contour>
  </outline>
</glyph>
<glyph name="S" format="1">
  <advance width="1029"/>
  <unicode hex="0053"/>
  <outline>
    <contour>
      <point x="523" y="-36" type="line"/>
      <point x="591" y="-36" type="line" smooth="yes"/>
      <point x="595" y="-36"/>
      <point x="602" y="-35"/>
      <point x="606" y="-33" type="curve" smooth="yes"/>
      <point x="692" y="3" type="line"/>
      <point x="911" y="85" type="line" smooth="yes"/>
      <point x="940" y="96"/>
      <point x="948" y="128"/>
      <point x="926" y="150" type="curve" smooth="yes"/>
      <point x="849" y="232" type="line"/>
      <point x="766" y="342" type="line"/>
      <point x="802" y="374" type="line" smooth="yes"/>
      <point x="833" y="400"/>
      <point x="816" y="444"/>
      <point x="776" y="444" type="curve" smooth="yes"/>
      <point x="519" y="444" type="line"/>
      <point x="514" y="447"/>
      <point x="509" y="449"/>
      <point x="502" y="450" type="curve" smooth="yes"/>
      <point x="194" y="499" type="line"/>
      <point x="140" y="596" type="line"/>
      <point x="207" y="657" type="line" smooth="yes"/>
      <point x="210" y="660"/>
      <point x="214" y="665"/>
      <point x="215" y="668" type="curve" smooth="yes"/>
      <point x="249" y="730" type="line"/>
      <point x="552" y="764" type="line"/>
      <point x="641" y="764" type="line"/>
      <point x="642" y="749"/>
      <point x="653" y="735"/>
      <point x="670" y="730" type="curve" smooth="yes"/>
      <point x="883" y="663" type="line"/>
      <point x="863" y="621" type="line" smooth="yes"/>
      <point x="854" y="602"/>
      <point x="862" y="577"/>
      <point x="882" y="568" type="curve" smooth="yes"/>
      <point x="901" y="559"/>
      <point x="926" y="567"/>
      <point x="935" y="587" type="curve" smooth="yes"/>
      <point x="975" y="670" type="line" smooth="yes"/>
      <point x="985" y="693"/>
      <point x="974" y="718"/>
      <point x="951" y="726" type="curve" smooth="yes"/>
      <point x="753" y="788" type="line"/>
      <point x="767" y="814"/>
      <point x="749" y="844"/>
      <point x="716" y="844" type="curve" smooth="yes"/>
      <point x="387" y="844" type="line"/>
      <point x="387" y="826" type="line"/>
      <point x="219" y="807" type="line" smooth="yes"/>
      <point x="207" y="806"/>
      <point x="194" y="797"/>
      <point x="188" y="787" type="curve" smooth="yes"/>
      <point x="148" y="712" type="line"/>
      <point x="62" y="634" type="line" smooth="yes"/>
      <point x="49" y="622"/>
      <point x="46" y="600"/>
      <point x="54" y="584" type="curve" smooth="yes"/>
      <point x="134" y="443" type="line" smooth="yes"/>
      <point x="140" y="433"/>
      <point x="152" y="425"/>
      <point x="163" y="423" type="curve" smooth="yes"/>
      <point x="264" y="407" type="line"/>
      <point x="262" y="387"/>
      <point x="276" y="364"/>
      <point x="304" y="364" type="curve" smooth="yes"/>
      <point x="676" y="364" type="line"/>
      <point x="670" y="351"/>
      <point x="671" y="335"/>
      <point x="680" y="324" type="curve" smooth="yes"/>
      <point x="786" y="182" type="line" smooth="yes"/>
      <point x="787" y="181"/>
      <point x="788" y="179"/>
      <point x="789" y="178" type="curve" smooth="yes"/>
      <point x="827" y="139" type="line"/>
      <point x="664" y="78" type="line"/>
      <point x="582" y="44" type="line"/>
      <point x="523" y="44" type="line"/>
      <point x="290" y="51" type="line"/>
      <point x="218" y="92" type="line"/>
      <point x="138" y="225" type="line" smooth="yes"/>
      <point x="127" y="243"/>
      <point x="102" y="249"/>
      <point x="83" y="238" type="curve" smooth="yes"/>
      <point x="65" y="227"/>
      <point x="59" y="202"/>
      <point x="70" y="183" type="curve" smooth="yes"/>
      <point x="155" y="42" type="line" smooth="yes"/>
      <point x="158" y="37"/>
      <point x="164" y="31"/>
      <point x="169" y="28" type="curve" smooth="yes"/>
      <point x="259" y="-24" type="line" smooth="yes"/>
      <point x="263" y="-26"/>
      <point x="272" y="-29"/>
      <point x="277" y="-29" type="curve" smooth="yes"/>
    </contour>
  </outline>
</glyph>
<glyph name="T" format="1">
  <advance width="807"/>
  <unicode hex="0054"/>
  <outline>
    <contour>
      <point x="550" y="-40" type="curve" smooth="yes"/>
      <point x="571" y="-36"/>
      <point x="587" y="-15"/>
      <point x="584" y="6" type="curve" smooth="yes"/>
      <point x="569" y="104" type="line"/>
      <point x="566" y="201" type="line" smooth="yes"/>
      <point x="566" y="215"/>
      <point x="555" y="230"/>
      <point x="543" y="236" type="curve" smooth="yes"/>
      <point x="402" y="303" type="line"/>
      <point x="509" y="365" type="line" smooth="yes"/>
      <point x="529" y="377"/>
      <point x="535" y="403"/>
      <point x="522" y="422" type="curve" smooth="yes"/>
      <point x="461" y="515" type="line"/>
      <point x="445" y="607" type="line" smooth="yes"/>
      <point x="445" y="610"/>
      <point x="443" y="615"/>
      <point x="442" y="618" type="curve" smooth="yes"/>
      <point x="403" y="697" type="line"/>
      <point x="393" y="723" type="line"/>
      <point x="716" y="753" type="line" smooth="yes"/>
      <point x="727" y="754"/>
      <point x="741" y="763"/>
      <point x="747" y="773" type="curve" smooth="yes"/>
      <point x="751" y="780" type="line" smooth="yes"/>
      <point x="767" y="809"/>
      <point x="749" y="840"/>
      <point x="716" y="840" type="curve" smooth="yes"/>
      <point x="90" y="840" type="line" smooth="yes"/>
      <point x="68" y="840"/>
      <point x="50" y="822"/>
      <point x="50" y="800" type="curve" smooth="yes"/>
      <point x="50" y="778"/>
      <point x="68" y="760"/>
      <point x="90" y="760" type="curve" smooth="yes"/>
      <point x="298" y="760" type="line"/>
      <point x="298" y="754"/>
      <point x="299" y="749"/>
      <point x="300" y="745" type="curve" smooth="yes"/>
      <point x="329" y="667" type="line" smooth="yes"/>
      <point x="329" y="666"/>
      <point x="330" y="665"/>
      <point x="331" y="664" type="curve" smooth="yes"/>
      <point x="368" y="588" type="line"/>
      <point x="384" y="493" type="line" smooth="yes"/>
      <point x="384" y="489"/>
      <point x="387" y="482"/>
      <point x="390" y="478" type="curve" smooth="yes"/>
      <point x="432" y="413" type="line"/>
      <point x="296" y="335" type="line" smooth="yes"/>
      <point x="266" y="317"/>
      <point x="267" y="279"/>
      <point x="299" y="264" type="curve" smooth="yes"/>
      <point x="487" y="174" type="line"/>
      <point x="489" y="99" type="line" smooth="yes"/>
      <point x="489" y="97"/>
      <point x="489" y="95"/>
      <point x="489" y="94" type="curve" smooth="yes"/>
      <point x="504" y="-6" type="line" smooth="yes"/>
      <point x="508" y="-27"/>
      <point x="529" y="-43"/>
    </contour>
  </outline>
</glyph>
<glyph name="U" format="1">
  <advance width="950"/>
  <unicode hex="0055"/>
  <outline>
    <contour>
      <point x="555" y="-41" type="curve" smooth="yes"/>
      <point x="560" y="-41" type="line" smooth="yes"/>
      <point x="565" y="-41"/>
      <point x="569" y="-40"/>
      <point x="573" y="-39" type="curve"/>
      <point x="864" y="-5" type="line" smooth="yes"/>
      <point x="890" y="-2"/>
      <point x="905" y="22"/>
      <point x="898" y="46" type="curve" smooth="yes"/>
      <point x="874" y="127" type="line" smooth="yes"/>
      <point x="874" y="129"/>
      <point x="872" y="132"/>
      <point x="871" y="134" type="curve" smooth="yes"/>
      <point x="828" y="219" type="line"/>
      <point x="787" y="291" type="line"/>
      <point x="873" y="370" type="line" smooth="yes"/>
      <point x="891" y="386"/>
      <point x="891" y="413"/>
      <point x="873" y="429" type="curve" smooth="yes"/>
      <point x="786" y="507" type="line"/>
      <point x="829" y="578" type="line" smooth="yes"/>
      <point x="830" y="580"/>
      <point x="831" y="583"/>
      <point x="832" y="584" type="curve" smooth="yes"/>
      <point x="872" y="684" type="line" smooth="yes"/>
      <point x="878" y="699"/>
      <point x="873" y="719"/>
      <point x="861" y="730" type="curve" smooth="yes"/>
      <point x="742" y="830" type="line" smooth="yes"/>
      <point x="725" y="844"/>
      <point x="699" y="841"/>
      <point x="685" y="825" type="curve" smooth="yes"/>
      <point x="671" y="808"/>
      <point x="674" y="782"/>
      <point x="690" y="768" type="curve" smooth="yes"/>
      <point x="787" y="687" type="line"/>
      <point x="759" y="617" type="line"/>
      <point x="701" y="520" type="line" smooth="yes"/>
      <point x="691" y="504"/>
      <point x="695" y="481"/>
      <point x="708" y="469" type="curve" smooth="yes"/>
      <point x="787" y="399" type="line"/>
      <point x="710" y="328" type="line" smooth="yes"/>
      <point x="697" y="317"/>
      <point x="694" y="295"/>
      <point x="702" y="279" type="curve" smooth="yes"/>
      <point x="758" y="179" type="line"/>
      <point x="798" y="101" type="line"/>
      <point x="808" y="69" type="line"/>
      <point x="558" y="40" type="line"/>
      <point x="299" y="74" type="line"/>
      <point x="235" y="110" type="line"/>
      <point x="363" y="162" type="line" smooth="yes"/>
      <point x="378" y="168"/>
      <point x="389" y="186"/>
      <point x="388" y="202" type="curve" smooth="yes"/>
      <point x="380" y="302" type="line" smooth="yes"/>
      <point x="379" y="314"/>
      <point x="370" y="328"/>
      <point x="359" y="334" type="curve" smooth="yes"/>
      <point x="247" y="395" type="line"/>
      <point x="398" y="462" type="line" smooth="yes"/>
      <point x="434" y="478"/>
      <point x="432" y="524"/>
      <point x="395" y="537" type="curve" smooth="yes"/>
      <point x="161" y="617" type="line"/>
      <point x="210" y="672" type="line"/>
      <point x="307" y="771" type="line" smooth="yes"/>
      <point x="323" y="786"/>
      <point x="322" y="812"/>
      <point x="307" y="827" type="curve" smooth="yes"/>
      <point x="292" y="843"/>
      <point x="266" y="842"/>
      <point x="251" y="827" type="curve" smooth="yes"/>
      <point x="150" y="726" type="line"/>
      <point x="61" y="626" type="line" smooth="yes"/>
      <point x="41" y="603"/>
      <point x="49" y="571"/>
      <point x="78" y="561" type="curve" smooth="yes"/>
      <point x="273" y="494" type="line"/>
      <point x="140" y="436" type="line" smooth="yes"/>
      <point x="107" y="421"/>
      <point x="105" y="381"/>
      <point x="137" y="364" type="curve" smooth="yes"/>
      <point x="302" y="274" type="line"/>
      <point x="306" y="225" type="line"/>
      <point x="128" y="153" type="line" smooth="yes"/>
      <point x="95" y="139"/>
      <point x="92" y="99"/>
      <point x="124" y="81" type="curve" smooth="yes"/>
      <point x="266" y="0" type="line" smooth="yes"/>
      <point x="270" y="-2"/>
      <point x="276" y="-4"/>
      <point x="281" y="-5" type="curve" smooth="yes"/>
      <point x="541" y="-39" type="line"/>
      <point x="545" y="-40"/>
      <point x="550" y="-41"/>
    </contour>
  </outline>
</glyph>
<glyph name="V" format="1">
  <advance width="991"/>
  <unicode hex="0056"/>
  <outline>
    <contour>
      <point x="295" y="-40" type="curve" smooth="yes"/>
      <point x="497" y="-40" type="line" smooth="yes"/>
      <point x="499" y="-40"/>
      <point x="503" y="-40"/>
      <point x="505" y="-39" type="curve" smooth="yes"/>
      <point x="687" y="-3" type="line" smooth="yes"/>
      <point x="690" y="-2"/>
      <point x="694" y="-1"/>
      <point x="696" y="0" type="curve" smooth="yes"/>
      <point x="871" y="80" type="line" smooth="yes"/>
      <point x="886" y="88"/>
      <point x="896" y="107"/>
      <point x="894" y="124" type="curve" smooth="yes"/>
      <point x="879" y="207" type="line" smooth="yes"/>
      <point x="879" y="211"/>
      <point x="877" y="217"/>
      <point x="875" y="220" type="curve" smooth="yes"/>
      <point x="818" y="318" type="line"/>
      <point x="775" y="414" type="line"/>
      <point x="754" y="484" type="line"/>
      <point x="873" y="567" type="line" smooth="yes"/>
      <point x="879" y="572"/>
      <point x="886" y="581"/>
      <point x="888" y="589" type="curve" smooth="yes"/>
      <point x="918" y="689" type="line" smooth="yes"/>
      <point x="919" y="689"/>
      <point x="919" y="691"/>
      <point x="919" y="692" type="curve" smooth="yes"/>
      <point x="940" y="792" type="line" smooth="yes"/>
      <point x="945" y="813"/>
      <point x="930" y="835"/>
      <point x="909" y="839" type="curve" smooth="yes"/>
      <point x="888" y="844"/>
      <point x="866" y="829"/>
      <point x="862" y="808" type="curve" smooth="yes"/>
      <point x="841" y="710" type="line"/>
      <point x="816" y="625" type="line"/>
      <point x="684" y="533" type="line" smooth="yes"/>
      <point x="671" y="524"/>
      <point x="664" y="504"/>
      <point x="669" y="489" type="curve" smooth="yes"/>
      <point x="699" y="389" type="line" smooth="yes"/>
      <point x="699" y="387"/>
      <point x="700" y="385"/>
      <point x="701" y="384" type="curve" smooth="yes"/>
      <point x="746" y="284" type="line" smooth="yes"/>
      <point x="746" y="283"/>
      <point x="747" y="281"/>
      <point x="747" y="280" type="curve" smooth="yes"/>
      <point x="802" y="186" type="line"/>
      <point x="810" y="140" type="line"/>
      <point x="667" y="75" type="line"/>
      <point x="493" y="40" type="line"/>
      <point x="371" y="40" type="line"/>
      <point x="424" y="118" type="line" smooth="yes"/>
      <point x="442" y="144"/>
      <point x="429" y="175"/>
      <point x="398" y="180" type="curve" smooth="yes"/>
      <point x="317" y="195" type="line"/>
      <point x="318" y="208"/>
      <point x="313" y="222"/>
      <point x="298" y="232" type="curve" smooth="yes"/>
      <point x="171" y="324" type="line"/>
      <point x="152" y="390" type="line"/>
      <point x="226" y="474" type="line" smooth="yes"/>
      <point x="238" y="487"/>
      <point x="239" y="509"/>
      <point x="228" y="523" type="curve" smooth="yes"/>
      <point x="178" y="593" type="line"/>
      <point x="270" y="669" type="line" smooth="yes"/>
      <point x="292" y="688"/>
      <point x="290" y="718"/>
      <point x="266" y="734" type="curve" smooth="yes"/>
      <point x="112" y="834" type="line" smooth="yes"/>
      <point x="94" y="845"/>
      <point x="68" y="840"/>
      <point x="56" y="822" type="curve" smooth="yes"/>
      <point x="45" y="804"/>
      <point x="50" y="778"/>
      <point x="68" y="766" type="curve" smooth="yes"/>
      <point x="177" y="696" type="line"/>
      <point x="98" y="631" type="line" smooth="yes"/>
      <point x="83" y="618"/>
      <point x="80" y="593"/>
      <point x="92" y="577" type="curve" smooth="yes"/>
      <point x="145" y="502" type="line"/>
      <point x="78" y="426" type="line" smooth="yes"/>
      <point x="70" y="417"/>
      <point x="66" y="401"/>
      <point x="69" y="389" type="curve" smooth="yes"/>
      <point x="97" y="289" type="line" smooth="yes"/>
      <point x="100" y="282"/>
      <point x="106" y="272"/>
      <point x="113" y="268" type="curve" smooth="yes"/>
      <point x="158" y="235" type="line"/>
      <point x="101" y="233" type="line" smooth="yes"/>
      <point x="51" y="230"/>
      <point x="47" y="162"/>
      <point x="95" y="153" type="curve" smooth="yes"/>
      <point x="323" y="112" type="line"/>
      <point x="262" y="23" type="line" smooth="yes"/>
      <point x="242" y="-6"/>
      <point x="260" y="-40"/>
    </contour>
  </outline>
</glyph>
<glyph name="W" format="1">
  <advance width="1007"/>
  <unicode hex="0057"/>
  <outline>
    <contour>
      <point x="293" y="165" type="line" smooth="yes"/>
      <point x="314" y="177"/>
      <point x="320" y="204"/>
      <point x="305" y="224" type="curve" smooth="yes"/>
      <point x="253" y="293" type="line"/>
      <point x="339" y="360" type="line"/>
      <point x="374" y="332" type="line"/>
      <point x="370" y="329" type="line" smooth="yes"/>
      <point x="349" y="309"/>
      <point x="353" y="278"/>
      <point x="379" y="265" type="curve" smooth="yes"/>
      <point x="518" y="191" type="line"/>
      <point x="295" y="95" type="line" smooth="yes"/>
      <point x="281" y="89"/>
      <point x="273" y="79"/>
      <point x="270" y="68" type="curve"/>
      <point x="185" y="105" type="line"/>
    </contour>
    <contour>
      <point x="445" y="-40" type="line" smooth="yes"/>
      <point x="459" y="-40"/>
      <point x="475" y="-30"/>
      <point x="481" y="-18" type="curve" smooth="yes"/>
      <point x="484" y="-11" type="line" smooth="yes"/>
      <point x="495" y="11"/>
      <point x="485" y="36"/>
      <point x="462" y="44" type="curve" smooth="yes"/>
      <point x="418" y="61" type="line"/>
      <point x="583" y="132" type="line"/>
      <point x="647" y="36" type="line" smooth="yes"/>
      <point x="658" y="20"/>
      <point x="681" y="14"/>
      <point x="698" y="23" type="curve" smooth="yes"/>
      <point x="781" y="64" type="line" smooth="yes"/>
      <point x="791" y="70"/>
      <point x="801" y="83"/>
      <point x="803" y="95" type="curve" smooth="yes"/>
      <point x="816" y="195" type="line" smooth="yes"/>
      <point x="817" y="205"/>
      <point x="812" y="219"/>
      <point x="805" y="227" type="curve" smooth="yes"/>
      <point x="737" y="301" type="line"/>
      <point x="795" y="370" type="line"/>
      <point x="937" y="467" type="line" smooth="yes"/>
      <point x="965" y="486"/>
      <point x="962" y="522"/>
      <point x="932" y="536" type="curve" smooth="yes"/>
      <point x="779" y="606" type="line"/>
      <point x="871" y="667" type="line" smooth="yes"/>
      <point x="898" y="684"/>
      <point x="897" y="719"/>
      <point x="868" y="735" type="curve" smooth="yes"/>
      <point x="686" y="835" type="line" smooth="yes"/>
      <point x="667" y="845"/>
      <point x="642" y="838"/>
      <point x="632" y="819" type="curve" smooth="yes"/>
      <point x="622" y="800"/>
      <point x="629" y="775"/>
      <point x="648" y="765" type="curve" smooth="yes"/>
      <point x="771" y="697" type="line"/>
      <point x="674" y="633" type="line" smooth="yes"/>
      <point x="645" y="615"/>
      <point x="648" y="578"/>
      <point x="679" y="564" type="curve" smooth="yes"/>
      <point x="834" y="493" type="line"/>
      <point x="746" y="433" type="line" smooth="yes"/>
      <point x="743" y="431"/>
      <point x="739" y="428"/>
      <point x="737" y="426" type="curve" smooth="yes"/>
      <point x="653" y="326" type="line" smooth="yes"/>
      <point x="641" y="311"/>
      <point x="641" y="287"/>
      <point x="655" y="273" type="curve" smooth="yes"/>
      <point x="734" y="187" type="line"/>
      <point x="726" y="126" type="line"/>
      <point x="694" y="110" type="line"/>
      <point x="658" y="164" type="line"/>
      <point x="689" y="177"/>
      <point x="692" y="215"/>
      <point x="662" y="234" type="curve" smooth="yes"/>
      <point x="503" y="333" type="line"/>
      <point x="496" y="338" type="line"/>
      <point x="529" y="370" type="line"/>
      <point x="642" y="470" type="line" smooth="yes"/>
      <point x="678" y="501"/>
      <point x="646" y="554"/>
      <point x="602" y="537" type="curve" smooth="yes"/>
      <point x="346" y="441" type="line"/>
      <point x="291" y="522" type="line" smooth="yes"/>
      <point x="290" y="525"/>
      <point x="287" y="528"/>
      <point x="285" y="530" type="curve" smooth="yes"/>
      <point x="179" y="625" type="line"/>
      <point x="147" y="681" type="line"/>
      <point x="333" y="763" type="line" smooth="yes"/>
      <point x="353" y="772"/>
      <point x="362" y="796"/>
      <point x="354" y="816" type="curve" smooth="yes"/>
      <point x="345" y="836"/>
      <point x="321" y="845"/>
      <point x="301" y="837" type="curve" smooth="yes"/>
      <point x="74" y="737" type="line" smooth="yes"/>
      <point x="52" y="727"/>
      <point x="43" y="701"/>
      <point x="55" y="680" type="curve" smooth="yes"/>
      <point x="112" y="580" type="line" smooth="yes"/>
      <point x="114" y="577"/>
      <point x="118" y="573"/>
      <point x="120" y="570" type="curve" smooth="yes"/>
      <point x="228" y="474" type="line"/>
      <point x="271" y="409" type="line"/>
      <point x="172" y="332" type="line" smooth="yes"/>
      <point x="155" y="318"/>
      <point x="152" y="293"/>
      <point x="165" y="276" type="curve" smooth="yes"/>
      <point x="213" y="212" type="line"/>
      <point x="76" y="135" type="line" smooth="yes"/>
      <point x="45" y="117"/>
      <point x="47" y="78"/>
      <point x="80" y="63" type="curve" smooth="yes"/>
      <point x="309" y="-37" type="line" smooth="yes"/>
      <point x="313" y="-39"/>
      <point x="320" y="-40"/>
      <point x="325" y="-40" type="curve" smooth="yes"/>
    </contour>
  </outline>
</glyph>
